<svg width="136" height="137" viewBox="0 0 136 137" fill="none" xmlns="http://www.w3.org/2000/svg">
<path d="M90.0866 85.9461C93.3006 84.2068 96.9795 83.2168 100.897 83.2168H100.911C101.309 83.2168 101.495 82.7352 101.203 82.4676C97.1285 78.7841 92.4741 75.809 87.4303 73.6643C87.3772 73.6375 87.3241 73.6241 87.2709 73.5974C95.5186 67.5635 100.884 57.7567 100.884 46.6924C100.884 28.3633 86.1686 13.5127 68.0131 13.5127C49.8577 13.5127 35.1553 28.3633 35.1553 46.6924C35.1553 57.7567 40.5209 67.5635 48.7819 73.5974C48.7287 73.6241 48.6756 73.6375 48.6225 73.6643C42.6858 76.1929 37.36 79.8186 32.778 84.4477C28.2224 89.0284 24.5956 94.4586 22.0998 100.435C19.6443 106.288 18.3191 112.559 18.1952 118.912C18.1916 119.055 18.2165 119.197 18.2683 119.33C18.3201 119.462 18.3978 119.584 18.4968 119.686C18.5958 119.788 18.7142 119.869 18.8448 119.925C18.9755 119.98 19.1159 120.009 19.2577 120.009H27.2131C27.7842 120.009 28.2623 119.541 28.2756 118.965C28.5412 108.637 32.6452 98.9638 39.91 91.6321C47.4139 84.0463 57.4014 79.8721 68.0264 79.8721C75.5569 79.8721 82.7819 81.9726 89.0108 85.906C89.1708 86.0072 89.3545 86.0643 89.5433 86.0713C89.7322 86.0784 89.9195 86.0352 90.0866 85.9461ZM68.0264 69.7041C61.9436 69.7041 56.2194 67.3093 51.903 62.9611C49.7792 60.8273 48.0956 58.2913 46.9491 55.4992C45.8025 52.707 45.2157 49.714 45.2225 46.6924C45.2225 40.5515 47.5998 34.7718 51.903 30.4236C56.2061 26.0755 61.9303 23.6807 68.0264 23.6807C74.1225 23.6807 79.8334 26.0755 84.1498 30.4236C86.2736 32.5574 87.9572 35.0935 89.1038 37.8856C90.2503 40.6777 90.8371 43.6708 90.8303 46.6924C90.8303 52.8333 88.453 58.613 84.1498 62.9611C79.8334 67.3093 74.1092 69.7041 68.0264 69.7041ZM116.875 101.546H105.719V90.3076C105.719 89.7189 105.24 89.2373 104.656 89.2373H97.2186C96.6342 89.2373 96.1561 89.7189 96.1561 90.3076V101.546H84.9998C84.4155 101.546 83.9373 102.028 83.9373 102.616V110.108C83.9373 110.697 84.4155 111.179 84.9998 111.179H96.1561V122.417C96.1561 123.006 96.6342 123.487 97.2186 123.487H104.656C105.24 123.487 105.719 123.006 105.719 122.417V111.179H116.875C117.459 111.179 117.937 110.697 117.937 110.108V102.616C117.937 102.028 117.459 101.546 116.875 101.546Z" fill="black"/>
</svg>
