<svg width="200" height="200" viewBox="0 0 200 200" fill="none" xmlns="http://www.w3.org/2000/svg">
<path d="M100 25C141.25 25 175 58.75 175 100C175 141.25 141.25 175 100 175C58.75 175 25 141.25 25 100C25 58.75 58.75 25 100 25ZM100 12.5C51.875 12.5 12.5 51.875 12.5 100C12.5 148.125 51.875 187.5 100 187.5C148.125 187.5 187.5 148.125 187.5 100C187.5 51.875 148.125 12.5 100 12.5Z" fill="black"/>
<path d="M150 93.75H106.25V50H93.75V93.75H50V106.25H93.75V150H106.25V106.25H150V93.75Z" fill="black"/>
</svg>
