<svg width="168" height="168" viewBox="0 0 168 168" fill="none" xmlns="http://www.w3.org/2000/svg">
<path d="M17.0429 34H0.304688V150.667C0.304688 159.833 7.83688 167.333 17.0429 167.333H134.21V150.667H17.0429V34ZM150.948 0.666626H50.5193C41.3133 0.666626 33.7811 8.16663 33.7811 17.3333V117.333C33.7811 126.5 41.3133 134 50.5193 134H150.948C160.154 134 167.687 126.5 167.687 117.333V17.3333C167.687 8.16663 160.154 0.666626 150.948 0.666626ZM150.948 117.333H50.5193V17.3333H150.948V117.333ZM67.2575 59H134.21V75.6666H67.2575V59ZM67.2575 84H100.734V100.667H67.2575V84ZM67.2575 34H134.21V50.6666H67.2575V34Z" fill="black"/>
</svg>
