<svg width="116" height="110" viewBox="0 0 116 110" fill="none" xmlns="http://www.w3.org/2000/svg">
<path d="M113.161 54.1113L64.1065 5.08205L60.8184 1.79396C60.0692 1.04972 59.0561 0.632019 58 0.632019C56.944 0.632019 55.9309 1.04972 55.1817 1.79396L2.83891 54.1113C2.07123 54.876 1.46453 55.7867 1.05461 56.7897C0.644682 57.7928 0.439846 58.8677 0.452186 59.9512C0.502968 64.4199 4.22269 67.9873 8.69144 67.9873H14.087V109.336H101.913V67.9873H107.423C109.594 67.9873 111.638 67.1367 113.174 65.6006C113.93 64.8466 114.53 63.9501 114.937 62.963C115.345 61.9758 115.552 60.9176 115.548 59.8496C115.548 57.6914 114.697 55.6475 113.161 54.1113ZM65.1094 100.195H50.8907V74.2969H65.1094V100.195ZM92.7725 58.8467V100.195H73.2344V71.25C73.2344 68.4444 70.962 66.1719 68.1563 66.1719H47.8438C45.0381 66.1719 42.7657 68.4444 42.7657 71.25V100.195H23.2276V58.8467H11.0401L58.0127 11.9121L60.9454 14.8447L104.973 58.8467H92.7725Z" fill="black"/>
</svg>
