<svg width="130" height="130" viewBox="0 0 130 130" fill="none" xmlns="http://www.w3.org/2000/svg">
<path d="M19.7167 26.7583V41.7444H24.0139V21.8472H20.5833L14.625 25.8556L16.3222 28.8889L19.7167 26.7583Z" fill="black"/>
<path d="M20.1139 53.5167C20.486 53.482 20.8613 53.5237 21.2167 53.6393C21.5722 53.7548 21.9003 53.9417 22.1809 54.1885C22.4615 54.4353 22.6888 54.7369 22.8487 55.0746C23.0087 55.4124 23.098 55.7793 23.1111 56.1528C23.1111 57.525 22.3528 58.825 19.9695 60.7389L12.7472 66.4083V70.0194H27.6972V66.0111H19.2472L22.8584 63.2306C26.4695 60.7028 27.4806 58.6444 27.4806 56.0083C27.4501 55.1078 27.2357 54.223 26.8507 53.4084C26.4657 52.5938 25.9181 51.8665 25.2417 51.2712C24.5653 50.676 23.7743 50.2253 22.9173 49.947C22.0603 49.6687 21.1555 49.5686 20.2584 49.6528C18.7534 49.644 17.2679 49.9931 15.9243 50.6712C14.5807 51.3492 13.4175 52.3369 12.5306 53.5528L15.275 56.1889C15.8264 55.406 16.5485 54.7586 17.3868 54.2956C18.2251 53.8327 19.1576 53.5663 20.1139 53.5167Z" fill="black"/>
<path d="M23.6889 88.9778C24.7139 88.7217 25.6249 88.1322 26.2785 87.3021C26.9322 86.472 27.2915 85.4482 27.3 84.3917C27.3 81.25 24.4833 78.9389 20.0778 78.9389C18.6206 78.9135 17.1774 79.2264 15.8616 79.853C14.5458 80.4796 13.3932 81.4028 12.4944 82.55L14.9861 85.15C15.5628 84.4571 16.2787 83.8933 17.0875 83.4951C17.8963 83.097 18.7797 82.8734 19.6805 82.8389C21.6305 82.8389 23.0028 83.7778 23.0028 85.2222C23.0028 86.6667 21.7028 87.4611 19.3917 87.4611H17.2972V91.0722H19.6083C22.2805 91.0722 23.4722 91.8306 23.4722 93.3472C23.4722 94.8639 22.2083 95.8028 19.8611 95.8028C18.8682 95.795 17.8875 95.5825 16.9803 95.1787C16.0732 94.7748 15.2591 94.1882 14.5889 93.4556L12.0611 96.2722C13.0675 97.3781 14.3028 98.2515 15.681 98.8315C17.0593 99.4115 18.5473 99.6841 20.0417 99.6306C24.7 99.6306 27.7333 97.1389 27.7333 93.7083C27.7305 92.5681 27.322 91.466 26.581 90.5993C25.84 89.7326 24.8148 89.1578 23.6889 88.9778Z" fill="black"/>
<path d="M117.072 32.5C117.072 31.5423 116.692 30.6238 116.015 29.9466C115.337 29.2693 114.419 28.8889 113.461 28.8889H36.1111V36.1111H113.461C114.419 36.1111 115.337 35.7307 116.015 35.0534C116.692 34.3762 117.072 33.4577 117.072 32.5Z" fill="black"/>
<path d="M113.461 57.7778H36.1111V65H113.461C114.419 65 115.337 64.6195 116.015 63.9423C116.692 63.2651 117.072 62.3466 117.072 61.3889C117.072 60.4312 116.692 59.5127 116.015 58.8354C115.337 58.1582 114.419 57.7778 113.461 57.7778Z" fill="black"/>
<path d="M113.461 86.6667H36.1111V93.8889H113.461C114.419 93.8889 115.337 93.5084 116.015 92.8312C116.692 92.154 117.072 91.2355 117.072 90.2778C117.072 89.32 116.692 88.4015 116.015 87.7243C115.337 87.0471 114.419 86.6667 113.461 86.6667Z" fill="black"/>
</svg>
