<svg width="130" height="130" viewBox="0 0 130 130" fill="none" xmlns="http://www.w3.org/2000/svg">
<path d="M60.9375 8.125V65H69.0625V8.125H60.9375Z" fill="black"/>
<path d="M24.375 71.5975C24.373 64.3416 26.3148 57.2177 29.9984 50.9663C33.6821 44.715 38.973 39.5646 45.3213 36.0506L41.3806 28.9494C31.9599 34.1662 24.5316 42.3554 20.2554 52.2387C15.9792 62.122 15.0958 73.143 17.7431 83.5813C20.3904 94.0195 26.4193 103.287 34.8888 109.938C43.3582 116.589 53.7914 120.248 64.5597 120.345C75.328 120.442 85.8252 116.97 94.4126 110.472C103 103.975 109.194 94.8163 112.028 84.4272C114.863 74.0382 114.177 63.0031 110.079 53.0446C105.981 43.0862 98.7006 34.765 89.375 29.38L85.3044 36.4081C91.4812 39.9724 96.611 45.0999 100.178 51.2752C103.745 57.4505 105.624 64.456 105.625 71.5875C105.626 78.7189 103.75 85.7251 100.186 91.9017C96.621 98.0784 91.4931 103.208 85.3176 106.774C79.1421 110.341 72.1365 112.219 65.005 112.22C57.8736 112.221 50.8675 110.345 44.6911 106.779C38.5147 103.214 33.3856 98.0862 29.8194 91.9104C26.2531 85.7347 24.3754 78.729 24.375 71.5975Z" fill="black"/>
</svg>
