<svg width="84" height="126" viewBox="0 0 84 126" fill="none" xmlns="http://www.w3.org/2000/svg">
<path d="M58.2534 53.9292L80 4.66666L58.2534 53.9292ZM29.3434 55.02L4.16669 4.66666L29.3434 55.02ZM49.4392 51.6133L26.5375 4.66666L49.4392 51.6133ZM58.7667 4.66666L52.7 19.25L58.7667 4.66666ZM10 86.3333C10 95.6159 13.6875 104.518 20.2513 111.082C26.8151 117.646 35.7174 121.333 45 121.333C54.2826 121.333 63.185 117.646 69.7488 111.082C76.3125 104.518 80 95.6159 80 86.3333C80 77.0507 76.3125 68.1484 69.7488 61.5846C63.185 55.0208 54.2826 51.3333 45 51.3333C35.7174 51.3333 26.8151 55.0208 20.2513 61.5846C13.6875 68.1484 10 77.0507 10 86.3333V86.3333Z" stroke="black" stroke-width="8" stroke-linecap="round" stroke-linejoin="round"/>
</svg>
