<svg width="132" height="126" viewBox="0 0 132 126" fill="none" xmlns="http://www.w3.org/2000/svg">
<path d="M131.078 47.3241C130.451 45.3772 129.297 43.6419 127.744 42.3103C126.191 40.9787 124.3 40.1028 122.281 39.7794L90.5867 34.6287L75.8943 6.07797C74.9585 4.26039 73.54 2.73571 71.7946 1.67124C70.0493 0.606771 68.0444 0.0436401 66 0.0436401C63.9556 0.0436401 61.9508 0.606771 60.2054 1.67124C58.46 2.73571 57.0415 4.26039 56.1057 6.07797L41.4133 34.6287L9.72001 39.7794C7.70223 40.1078 5.8139 40.9857 4.2622 42.3167C2.71051 43.6477 1.55541 45.3804 0.923659 47.3247C0.291905 49.2689 0.207905 51.3496 0.680874 53.3385C1.15384 55.3274 2.16551 57.1476 3.60486 58.5993L26.2181 81.3952L21.3236 113.129C21.0095 115.15 21.259 117.219 22.0445 119.108C22.83 120.996 24.1212 122.632 25.776 123.834C27.4309 125.036 29.3852 125.759 31.4241 125.922C33.4631 126.086 35.5076 125.684 37.3328 124.761L66 110.298L94.668 124.761C96.4934 125.682 98.5374 126.082 100.576 125.918C102.614 125.754 104.567 125.031 106.221 123.829C107.876 122.627 109.167 120.993 109.953 119.105C110.739 117.218 110.989 115.15 110.677 113.129L105.783 81.3952L128.396 58.5993C129.84 57.1504 130.855 55.3302 131.328 53.3402C131.801 51.3502 131.715 49.268 131.078 47.3241ZM122.183 52.4374L96.461 78.3672L102.029 114.464C102.098 114.896 102.046 115.339 101.879 115.743C101.712 116.148 101.436 116.498 101.082 116.756C100.727 117.013 100.309 117.167 99.8724 117.201C99.436 117.235 98.9986 117.148 98.6088 116.949L66 100.498L33.391 116.949C33.0012 117.148 32.5638 117.236 32.1274 117.202C31.6909 117.168 31.2724 117.014 30.9182 116.756C30.5641 116.499 30.2881 116.149 30.1208 115.744C29.9535 115.339 29.9015 114.897 29.9705 114.464L35.5391 78.3672L9.81708 52.4371C9.50991 52.1268 9.29408 51.7379 9.19323 51.313C9.09238 50.8882 9.11041 50.4438 9.24533 50.0285C9.38026 49.6132 9.62688 49.2431 9.95817 48.9587C10.2895 48.6742 10.6927 48.4865 11.1236 48.4159L47.1738 42.5573L63.8861 10.0819C64.0859 9.69346 64.3889 9.36757 64.7618 9.14004C65.1348 8.91251 65.5632 8.79214 66 8.79214C66.4369 8.79214 66.8653 8.91251 67.2382 9.14004C67.6111 9.36757 67.9141 9.69346 68.114 10.0819L84.8262 42.5573L120.876 48.4159C121.307 48.4865 121.711 48.6742 122.042 48.9587C122.373 49.2431 122.62 49.6132 122.755 50.0285C122.89 50.4438 122.908 50.8882 122.807 51.313C122.706 51.7379 122.49 52.1268 122.183 52.4371L122.183 52.4374Z" fill="black"/>
</svg>
