<svg width="110" height="130" viewBox="0 0 110 130" fill="none" xmlns="http://www.w3.org/2000/svg">
<path d="M25 27.8571C23.6739 27.8571 22.4021 28.3463 21.4645 29.217C20.5268 30.0877 20 31.2686 20 32.5C20 33.7314 20.5268 34.9123 21.4645 35.783C22.4021 36.6537 23.6739 37.1429 25 37.1429V27.8571ZM45 37.1429C46.3261 37.1429 47.5979 36.6537 48.5355 35.783C49.4732 34.9123 50 33.7314 50 32.5C50 31.2686 49.4732 30.0877 48.5355 29.217C47.5979 28.3463 46.3261 27.8571 45 27.8571V37.1429ZM25 60.3571C23.6739 60.3571 22.4021 60.8463 21.4645 61.717C20.5268 62.5877 20 63.7686 20 65C20 66.2314 20.5268 67.4123 21.4645 68.283C22.4021 69.1537 23.6739 69.6429 25 69.6429V60.3571ZM85 69.6429C86.3261 69.6429 87.5979 69.1537 88.5355 68.283C89.4732 67.4123 90 66.2314 90 65C90 63.7686 89.4732 62.5877 88.5355 61.717C87.5979 60.8463 86.3261 60.3571 85 60.3571V69.6429ZM25 78.9286C23.6739 78.9286 22.4021 79.4177 21.4645 80.2884C20.5268 81.1591 20 82.3401 20 83.5714C20 84.8028 20.5268 85.9837 21.4645 86.8544C22.4021 87.7251 23.6739 88.2143 25 88.2143V78.9286ZM85 88.2143C86.3261 88.2143 87.5979 87.7251 88.5355 86.8544C89.4732 85.9837 90 84.8028 90 83.5714C90 82.3401 89.4732 81.1591 88.5355 80.2884C87.5979 79.4177 86.3261 78.9286 85 78.9286V88.2143ZM25 97.5C23.6739 97.5 22.4021 97.9892 21.4645 98.8599C20.5268 99.7306 20 100.911 20 102.143C20 103.374 20.5268 104.555 21.4645 105.426C22.4021 106.297 23.6739 106.786 25 106.786V97.5ZM45 106.786C46.3261 106.786 47.5979 106.297 48.5355 105.426C49.4732 104.555 50 103.374 50 102.143C50 100.911 49.4732 99.7306 48.5355 98.8599C47.5979 97.9892 46.3261 97.5 45 97.5V106.786ZM15 9.28571H95V0H15V9.28571ZM100 13.9286V116.071H110V13.9286H100ZM95 120.714H15V130H95V120.714ZM10 116.071V13.9286H0V116.071H10ZM15 120.714C13.6739 120.714 12.4021 120.225 11.4645 119.354C10.5268 118.484 10 117.303 10 116.071H0C0 119.766 1.58035 123.308 4.3934 125.92C7.20644 128.533 11.0218 130 15 130V120.714ZM100 116.071C100 117.303 99.4732 118.484 98.5355 119.354C97.5979 120.225 96.3261 120.714 95 120.714V130C98.9782 130 102.794 128.533 105.607 125.92C108.42 123.308 110 119.766 110 116.071H100ZM95 9.28571C96.3261 9.28571 97.5979 9.77487 98.5355 10.6456C99.4732 11.5163 100 12.6972 100 13.9286H110C110 10.2345 108.42 6.6917 105.607 4.07958C102.794 1.46747 98.9782 0 95 0V9.28571ZM15 0C11.0218 0 7.20644 1.46747 4.3934 4.07958C1.58035 6.6917 0 10.2345 0 13.9286H10C10 12.6972 10.5268 11.5163 11.4645 10.6456C12.4021 9.77487 13.6739 9.28571 15 9.28571V0ZM25 37.1429H45V27.8571H25V37.1429ZM25 69.6429H85V60.3571H25V69.6429ZM25 88.2143H85V78.9286H25V88.2143ZM25 106.786H45V97.5H25V106.786Z" fill="black"/>
</svg>
