<svg width="318" height="690" viewBox="0 0 318 690" fill="none" xmlns="http://www.w3.org/2000/svg"> <g clip-path="url(#clip0)"> <path d="M245.27 673.83L243.55 678.36C241.87 682.78 243.93 686.07 231.86 686.07H82.7498C70.6998 686.07 72.7498 682.78 71.0598 678.36L69.3398 673.83H245.27Z" fill="#C69158"/> <path d="M271.074 2.72238C273.663 3.29596 275.919 4.87469 277.344 7.11125C278.769 9.34782 279.248 12.059 278.674 14.6484L159.968 550.539L140.442 546.213L259.15 10.3133C259.723 7.72387 261.302 5.46838 263.539 4.04298C265.775 2.61758 268.486 2.13904 271.076 2.71262L271.074 2.72238Z" fill="#0FBC56"/> <path d="M161.831 553.54L137.441 548.13L256.721 9.78998C257.439 6.55567 259.412 3.73881 262.206 1.95909C265 0.179374 268.387 -0.417426 271.621 0.299985C274.856 1.0174 277.673 2.99025 279.452 5.78454C281.232 8.57883 281.829 11.9657 281.111 15.2L161.831 553.54ZM143.401 544.33L158.001 547.57L276.231 14.11C276.661 12.1699 276.302 10.1386 275.234 8.46301C274.166 6.78737 272.476 5.60464 270.536 5.17498C268.596 4.74533 266.565 5.10397 264.889 6.17199C263.214 7.24001 262.031 8.92993 261.601 10.87L143.401 544.33Z" fill="#154007"/> <g opacity="0.5"> <path opacity="0.5" d="M299.092 304.36H18.2617C15.2242 304.36 12.7617 306.822 12.7617 309.86V313.86C12.7617 316.897 15.2242 319.36 18.2617 319.36H299.092C302.129 319.36 304.592 316.897 304.592 313.86V309.86C304.592 306.822 302.129 304.36 299.092 304.36Z" fill="#64BCB3"/> </g> <g opacity="0.5"> <path opacity="0.5" d="M307.571 288C307.571 248.511 291.884 210.639 263.961 182.715C236.038 154.792 198.166 139.105 158.676 139.105C119.187 139.105 81.3148 154.792 53.3916 182.715C25.4684 210.639 9.78125 248.511 9.78125 288H307.571Z" fill="#64BCB3"/> </g> <path d="M312.561 288.68H302.561C302.561 209.34 238.011 144.79 158.671 144.79C79.3313 144.79 14.7812 209.34 14.7812 288.68H4.78125C4.78125 203.82 73.7812 134.79 158.671 134.79C243.561 134.79 312.561 203.83 312.561 288.68Z" fill="#385868"/> <path d="M59.499 208.58C81.019 185.92 112.499 163.05 144.979 164.15C150.489 164.34 150.489 155.77 144.979 155.58C110.189 154.4 76.529 178.21 53.449 202.52C49.649 206.52 55.699 212.58 59.509 208.58H59.499Z" fill="white"/> <path d="M299.092 322.68H18.2617C15.743 322.677 13.3281 321.676 11.5471 319.895C9.76611 318.114 8.76437 315.699 8.76172 313.18V309.18C8.76437 306.661 9.76611 304.246 11.5471 302.465C13.3281 300.684 15.743 299.683 18.2617 299.68H299.092C301.61 299.683 304.025 300.684 305.806 302.465C307.587 304.246 308.589 306.661 308.592 309.18V313.18C308.589 315.699 307.587 318.114 305.806 319.895C304.025 321.676 301.61 322.677 299.092 322.68ZM18.2617 307.68C17.8655 307.685 17.487 307.845 17.2068 308.125C16.9266 308.405 16.7669 308.784 16.7617 309.18V313.18C16.7669 313.576 16.9266 313.955 17.2068 314.235C17.487 314.515 17.8655 314.675 18.2617 314.68H299.092C299.488 314.675 299.866 314.515 300.147 314.235C300.427 313.955 300.587 313.576 300.592 313.18V309.18C300.587 308.784 300.427 308.405 300.147 308.125C299.866 307.845 299.488 307.685 299.092 307.68H18.2617Z" fill="#385868"/> <g opacity="0.5"> <path opacity="0.5" d="M307.85 286.64H9.5C6.46243 286.64 4 289.103 4 292.14V296.14C4 299.178 6.46243 301.64 9.5 301.64H307.85C310.888 301.64 313.35 299.178 313.35 296.14V292.14C313.35 289.103 310.888 286.64 307.85 286.64Z" fill="#64BCB3"/> </g> <path d="M307.85 305H9.5C6.98126 304.997 4.56643 303.996 2.78541 302.215C1.00439 300.434 0.00264713 298.019 0 295.5L0 291.5C0.00264713 288.981 1.00439 286.566 2.78541 284.785C4.56643 283.004 6.98126 282.003 9.5 282H307.85C310.369 282.003 312.784 283.004 314.565 284.785C316.346 286.566 317.347 288.981 317.35 291.5V295.5C317.347 298.019 316.346 300.434 314.565 302.215C312.784 303.996 310.369 304.997 307.85 305ZM9.5 290C9.10379 290.005 8.72526 290.165 8.44507 290.445C8.16488 290.725 8.00518 291.104 8 291.5V295.5C8.00518 295.896 8.16488 296.275 8.44507 296.555C8.72526 296.835 9.10379 296.995 9.5 297H307.85C308.246 296.995 308.625 296.835 308.905 296.555C309.185 296.275 309.345 295.896 309.35 295.5V291.5C309.345 291.104 309.185 290.725 308.905 290.445C308.625 290.165 308.246 290.005 307.85 290H9.5Z" fill="#385868"/> <path d="M155.821 686.08H229.521C241.921 686.08 245.611 676.95 247.331 664.67L294.471 329.43C294.624 328.335 294.541 327.221 294.227 326.162C293.912 325.102 293.375 324.122 292.65 323.288C291.924 322.454 291.029 321.786 290.024 321.327C289.018 320.868 287.926 320.631 286.821 320.63H30.5213C29.4162 320.631 28.3242 320.868 27.3188 321.327C26.3134 321.786 25.4181 322.454 24.6931 323.288C23.9681 324.122 23.4303 325.102 23.1161 326.162C22.8018 327.221 22.7183 328.335 22.8713 329.43L70.0013 664.67C71.7313 676.95 74.0513 686.08 86.4513 686.08H161.521" fill="#C69158"/> <path opacity="0.2" d="M155.9 669.08H243.24C257.08 657.08 243.24 660.71 244.93 649.46L290.79 342.33C291.43 338.07 294.73 334.27 290.17 334.27H28.5596C23.9896 334.27 25.9396 338.07 26.5596 342.33L72.4296 649.46C74.1096 660.71 62.0596 669.08 74.1196 669.08H161.46" fill="white"/> <path d="M233.309 689.08H81.9989C78.0205 689.063 74.1802 687.619 71.1775 685.009C68.1748 682.399 66.2093 678.797 65.6389 674.86L14.8789 313.63H300.469L249.669 674.85C249.101 678.789 247.136 682.393 244.133 685.005C241.13 687.617 237.289 689.063 233.309 689.08ZM154.819 679.08H233.309C234.881 679.074 236.398 678.503 237.584 677.472C238.77 676.44 239.546 675.016 239.769 673.46L288.999 323.63H26.3789L75.5789 673.46C75.8011 675.009 76.5706 676.428 77.7483 677.459C78.926 678.49 80.4338 679.065 81.9989 679.08H154.819Z" fill="#385868"/> <g opacity="0.5"> <path opacity="0.3" d="M225.208 627.846L235.754 627.134C237.622 627.008 239.035 625.392 238.909 623.524L238.197 612.978C238.071 611.11 236.454 609.698 234.586 609.824L224.04 610.535C222.172 610.661 220.76 612.278 220.886 614.146L221.598 624.692C221.724 626.56 223.34 627.972 225.208 627.846Z" fill="#F7D1A9"/> <path opacity="0.5" d="M225.848 638.751L235.501 634.447C237.211 633.685 237.98 631.68 237.217 629.97L232.913 620.317C232.151 618.607 230.146 617.838 228.436 618.601L218.782 622.905C217.072 623.667 216.304 625.672 217.067 627.382L221.371 637.036C222.133 638.746 224.138 639.514 225.848 638.751Z" fill="white"/> <path opacity="0.3" d="M197.38 636.154L189.846 628.74C188.511 627.427 186.365 627.444 185.052 628.779L177.638 636.312C176.325 637.647 176.342 639.793 177.677 641.106L185.21 648.52C186.545 649.834 188.691 649.816 190.004 648.482L197.418 640.948C198.732 639.614 198.714 637.467 197.38 636.154Z" fill="#F7D1A9"/> <path opacity="0.5" d="M205.778 639.161L198.244 631.747C196.91 630.434 194.764 630.451 193.45 631.786L186.037 639.32C184.723 640.654 184.741 642.801 186.075 644.114L193.609 651.528C194.943 652.841 197.09 652.824 198.403 651.489L205.817 643.955C207.13 642.621 207.113 640.474 205.778 639.161Z" fill="white"/> </g> <g opacity="0.5"> <path opacity="0.3" d="M168.019 610.897L157.449 611.637C155.576 611.768 154.165 613.392 154.296 615.265L155.036 625.835C155.167 627.707 156.791 629.118 158.663 628.987L169.233 628.247C171.105 628.116 172.517 626.492 172.386 624.62L171.646 614.05C171.515 612.178 169.891 610.766 168.019 610.897Z" fill="#F7D1A9"/> <path opacity="0.5" d="M165.363 599.061L155.709 603.365C153.999 604.128 153.231 606.132 153.994 607.842L158.298 617.496C159.06 619.206 161.065 619.974 162.775 619.211L172.429 614.907C174.139 614.145 174.907 612.141 174.144 610.431L169.84 600.777C169.078 599.067 167.073 598.298 165.363 599.061Z" fill="white"/> <path opacity="0.3" d="M193.839 601.65L201.373 609.064C202.707 610.378 204.854 610.36 206.167 609.026L213.581 601.492C214.894 600.158 214.877 598.011 213.542 596.698L206.008 589.284C204.674 587.971 202.527 587.988 201.214 589.323L193.8 596.856C192.487 598.191 192.504 600.337 193.839 601.65Z" fill="#F7D1A9"/> <path opacity="0.5" d="M185.433 598.638L192.967 606.052C194.301 607.365 196.447 607.348 197.761 606.013L205.174 598.479C206.488 597.145 206.47 594.998 205.136 593.685L197.602 586.271C196.268 584.958 194.121 584.975 192.808 586.31L185.394 593.844C184.081 595.178 184.098 597.325 185.433 598.638Z" fill="white"/> </g> <g opacity="0.5"> <path opacity="0.3" d="M139.657 647.144L149.783 650.172C151.577 650.709 153.466 649.689 154.003 647.896L157.031 637.769C157.568 635.975 156.548 634.086 154.755 633.55L144.628 630.521C142.834 629.985 140.945 631.004 140.409 632.798L137.38 642.924C136.844 644.718 137.863 646.607 139.657 647.144Z" fill="#F7D1A9"/> <path opacity="0.5" d="M136.547 657.56L147.097 656.913C148.966 656.798 150.388 655.19 150.273 653.322L149.626 642.771C149.511 640.903 147.903 639.481 146.035 639.595L135.484 640.243C133.616 640.357 132.194 641.965 132.308 643.834L132.955 654.384C133.07 656.253 134.678 657.675 136.547 657.56Z" fill="white"/> <path opacity="0.3" d="M110.676 645.123L106.219 635.539C105.429 633.841 103.413 633.105 101.715 633.894L92.1308 638.351C90.4332 639.141 89.6969 641.157 90.4864 642.855L94.9434 652.439C95.7329 654.137 97.7491 654.873 99.4468 654.083L109.031 649.626C110.729 648.837 111.465 646.821 110.676 645.123Z" fill="#F7D1A9"/> <path opacity="0.5" d="M117.488 650.891L113.031 641.307C112.242 639.609 110.225 638.873 108.528 639.662L98.9433 644.119C97.2457 644.909 96.5095 646.925 97.2989 648.622L101.756 658.207C102.545 659.904 104.562 660.641 106.259 659.851L115.844 655.394C117.541 654.605 118.278 652.589 117.488 650.891Z" fill="white"/> </g> <g opacity="0.5"> <path opacity="0.3" d="M90.5505 609.657L80.4236 606.628C78.6299 606.092 76.7409 607.111 76.2045 608.905L73.1759 619.032C72.6395 620.825 73.6587 622.714 75.4525 623.251L85.5793 626.279C87.373 626.816 89.262 625.797 89.7985 624.003L92.827 613.876C93.3635 612.082 92.3442 610.193 90.5505 609.657Z" fill="#F7D1A9"/> <path opacity="0.5" d="M93.6682 599.235L83.118 599.882C81.2493 599.996 79.8273 601.604 79.9419 603.473L80.589 614.023C80.7037 615.892 82.3115 617.314 84.1802 617.199L94.7304 616.552C96.5991 616.437 98.0211 614.83 97.9065 612.961L97.2594 602.411C97.1447 600.542 95.5369 599.12 93.6682 599.235Z" fill="white"/> <path opacity="0.3" d="M119.539 611.668L123.996 621.253C124.786 622.95 126.802 623.687 128.5 622.897L138.084 618.44C139.782 617.651 140.518 615.634 139.728 613.937L135.271 604.352C134.482 602.655 132.466 601.919 130.768 602.708L121.184 607.165C119.486 607.955 118.75 609.971 119.539 611.668Z" fill="#F7D1A9"/> <path opacity="0.5" d="M112.719 605.906L117.176 615.491C117.965 617.188 119.982 617.925 121.679 617.135L131.264 612.678C132.961 611.889 133.698 609.873 132.908 608.175L128.451 598.591C127.662 596.893 125.645 596.157 123.948 596.946L114.363 601.403C112.666 602.193 111.93 604.209 112.719 605.906Z" fill="white"/> </g> <path d="M254.87 451L239.87 558.43L237.74 573.69C237.35 576.52 241.68 577.75 242.08 574.89L257.08 467.46L259.21 452.2C259.6 449.37 255.27 448.14 254.87 451Z" fill="white"/> <path d="M262.719 394.71L258.279 426.54C257.889 429.37 262.219 430.6 262.619 427.74L267.059 395.91C267.449 393.08 263.119 391.85 262.719 394.71Z" fill="white"/> <path d="M269.131 348.68L264.751 380.07C264.361 382.9 268.691 384.13 269.091 381.27L273.471 349.88C273.861 347.05 269.531 345.82 269.131 348.68Z" fill="white"/> </g> <defs> <clipPath id="clip0"> <rect width="317.35" height="689.08" fill="white"/> </clipPath> </defs> </svg> 