<svg width="974" height="699" viewBox="0 0 974 699" fill="none" xmlns="http://www.w3.org/2000/svg"> <g clip-path="url(#clip0)"> <path d="M258.59 634.27L281.59 678.96L291.17 674.03L267.35 627.75" fill="#F96440"/> <path opacity="0.2" d="M269.862 636.55L280.352 656.95L270.052 660.46L261.102 643.08L269.862 636.55Z" fill="#463E3B"/> <path d="M293.582 674.81L279.222 682.2L254.992 635.12L259.782 632.65L281.542 674.95L286.332 672.48L263.742 628.6L268.532 626.13L293.582 674.81Z" fill="#314E5D"/> <path d="M237.779 663.15L459.509 549C463.855 546.763 467.719 543.692 470.878 539.962C474.037 536.232 476.431 531.916 477.922 527.261C479.413 522.606 479.973 517.703 479.57 512.832C479.166 507.96 477.806 503.216 475.569 498.87L280.469 119.83C278.232 115.484 275.161 111.621 271.431 108.461C267.701 105.302 263.386 102.908 258.731 101.417C254.075 99.9257 249.172 99.3659 244.301 99.7696C239.429 100.173 234.685 101.533 230.339 103.77L8.60915 217.89C5.50896 219.487 3.16999 222.25 2.10668 225.571C1.04337 228.892 1.34282 232.5 2.93915 235.6L220.069 657.48C221.666 660.58 224.429 662.919 227.75 663.982C231.071 665.046 234.679 664.746 237.779 663.15Z" fill="#E8F0F9"/> <path d="M231.173 105.37L9.44281 219.48C7.49948 220.478 5.83603 221.946 4.60322 223.75C3.37042 225.554 2.60722 227.637 2.38281 229.81C3.31292 228.909 4.37102 228.151 5.52281 227.56L227.253 113.44C231.599 111.203 236.343 109.843 241.214 109.44C246.086 109.036 250.989 109.596 255.644 111.087C260.299 112.578 264.615 114.972 268.345 118.131C272.075 121.291 275.146 125.154 277.383 129.5L472.483 508.58C474.783 513.042 476.154 517.924 476.511 522.932C476.869 527.939 476.206 532.967 474.563 537.71C478.114 532.219 480.154 525.888 480.477 519.357C480.8 512.826 479.395 506.325 476.403 500.51L281.303 121.43C279.066 117.084 275.995 113.221 272.265 110.061C268.535 106.902 264.219 104.508 259.564 103.017C254.909 101.526 250.006 100.966 245.134 101.37C240.263 101.773 235.519 103.133 231.173 105.37Z" fill="white"/> <path d="M18.4926 214.82L12.6326 217.82C11.0984 218.614 9.73569 219.703 8.62236 221.024C7.50903 222.345 6.66689 223.872 6.14405 225.518C5.62121 227.165 5.42793 228.898 5.57524 230.62C5.72255 232.341 6.20757 234.016 7.00259 235.55L224.083 657.43C224.872 658.966 225.957 660.331 227.274 661.448C228.592 662.565 230.117 663.411 231.761 663.938C233.406 664.466 235.138 664.664 236.859 664.522C238.58 664.38 240.257 663.9 241.793 663.11L247.653 660.11L18.4926 214.82Z" fill="#BCD9EA"/> <path d="M462.001 551.82L240.221 665.93C236.483 667.849 232.137 668.206 228.136 666.924C224.135 665.642 220.807 662.824 218.881 659.09L1.75096 237.22C-0.168004 233.482 -0.525524 229.136 0.756874 225.135C2.03927 221.134 4.85679 217.806 8.59096 215.88L230.321 101.76C239.74 96.9386 250.686 96.0458 260.762 99.277C270.837 102.508 279.222 109.6 284.081 119L479.181 498.08C484 507.49 484.899 518.425 481.679 528.495C478.46 538.565 471.385 546.951 462.001 551.82ZM11.061 220.67C8.59617 221.942 6.7369 224.14 5.89134 226.782C5.04577 229.424 5.283 232.293 6.55096 234.76L223.671 656.63C224.943 659.095 227.141 660.954 229.783 661.8C232.425 662.645 235.294 662.408 237.761 661.14L459.491 547C467.625 542.801 473.761 535.548 476.555 526.83C479.348 518.113 478.57 508.644 474.391 500.5L279.291 121.45C275.092 113.316 267.839 107.18 259.121 104.386C250.404 101.593 240.935 102.371 232.791 106.55L11.061 220.67Z" fill="#314E5D"/> <path opacity="0.2" d="M320.999 290L294.219 263.44L251.129 220.69L250.179 219.75C248.418 218.003 246.035 217.028 243.554 217.037C241.073 217.046 238.698 218.04 236.949 219.8L236.009 220.75L103.219 354.61L102.279 355.61C100.533 357.372 99.5571 359.755 99.5665 362.235C99.5758 364.716 100.57 367.092 102.329 368.84L137.739 403.97L172.199 438.1L173.199 439.04C174.961 440.786 177.344 441.762 179.825 441.753C182.306 441.744 184.681 440.75 186.429 438.99L321.099 303.18C322.824 301.414 323.781 299.038 323.763 296.569C323.744 294.101 322.751 291.74 320.999 290Z" fill="#463E3B"/> <path d="M250.896 211.488L99.2465 338.917C96.7265 341.035 96.4002 344.794 98.5178 347.314L167.057 428.881C169.175 431.401 172.934 431.727 175.454 429.61L327.104 302.18C329.624 300.063 329.95 296.303 327.832 293.783L259.293 212.217C257.175 209.697 253.416 209.37 250.896 211.488Z" fill="white"/> <g opacity="0.2"> <path opacity="0.2" d="M215.832 395.67L179.102 426.55C178.026 427.458 176.781 428.144 175.438 428.569C174.096 428.995 172.683 429.151 171.28 429.03C169.878 428.908 168.513 428.51 167.264 427.86C166.015 427.21 164.906 426.319 164.002 425.24L101.552 350.92C101.314 350.643 101.097 350.349 100.902 350.04C113.502 352.68 127.182 352.46 140.092 351.63C146.962 351.18 153.892 350.63 160.712 351.45C178.522 353.61 194.102 365.09 205.112 379.23C209.119 384.415 212.704 389.913 215.832 395.67Z" fill="#DED6D3"/> </g> <path d="M177.549 431C175.118 432.239 172.339 432.617 169.665 432.072C166.992 431.527 164.582 430.091 162.829 428L98.6494 351.63C97.629 350.418 96.8575 349.016 96.3791 347.505C95.9007 345.994 95.7247 344.404 95.8612 342.825C95.9978 341.246 96.4441 339.71 97.1747 338.304C97.9054 336.898 98.906 335.649 100.119 334.63L246.569 211.58C247.778 210.552 249.179 209.774 250.691 209.291C252.203 208.808 253.795 208.63 255.376 208.767C256.957 208.903 258.495 209.352 259.902 210.088C261.308 210.823 262.555 211.83 263.569 213.05L327.749 289.41C328.77 290.622 329.541 292.024 330.02 293.535C330.498 295.046 330.674 296.636 330.538 298.215C330.401 299.793 329.955 301.33 329.224 302.736C328.493 304.142 327.493 305.391 326.279 306.41L179.809 429.47C179.116 430.063 178.358 430.576 177.549 431ZM251.269 214.91C250.826 215.139 250.41 215.418 250.029 215.74L103.589 338.78C102.238 339.919 101.394 341.547 101.242 343.307C101.09 345.068 101.643 346.817 102.779 348.17L166.999 424.53C168.138 425.881 169.766 426.725 171.527 426.877C173.287 427.029 175.036 426.476 176.389 425.34L322.789 302.27C324.141 301.131 324.985 299.503 325.137 297.743C325.289 295.982 324.736 294.233 323.599 292.88L259.419 216.52C258.447 215.364 257.112 214.573 255.631 214.275C254.151 213.977 252.613 214.19 251.269 214.88V214.91Z" fill="#314E5D"/> <path opacity="0.2" d="M201.839 128C200.373 125.149 197.833 122.998 194.78 122.019C191.727 121.04 188.411 121.314 185.559 122.78L176.729 127.33C174.23 128.628 172.262 130.758 171.166 133.353C170.071 135.947 169.916 138.843 170.729 141.54C170.82 143.228 171.267 144.877 172.039 146.38L396.679 582.92C397.407 584.336 398.406 585.594 399.621 586.623C400.835 587.652 402.241 588.43 403.757 588.914C405.274 589.398 406.871 589.578 408.457 589.444C410.043 589.309 411.586 588.863 412.999 588.13L421.829 583.58C424.64 581.395 426.634 578.328 427.49 574.873C428.346 571.417 428.015 567.774 426.549 564.53L201.839 128Z" fill="#463E3B"/> <path d="M193.734 116.595L186.087 120.53C179.826 123.752 177.362 131.44 180.584 137.701L404.625 573.078C407.847 579.339 415.535 581.803 421.796 578.581L429.443 574.646C435.704 571.424 438.168 563.736 434.946 557.475L210.905 122.098C207.683 115.837 199.995 113.373 193.734 116.595Z" fill="#938D35"/> <path d="M195.943 118.51L430.413 574.09C430.297 574.164 430.177 574.231 430.053 574.29L425.633 576.57L191.133 120.93L194.823 119.03C195.183 118.843 195.556 118.67 195.943 118.51Z" fill="#DAE23B"/> <path d="M181.029 122.858L179.438 123.677L415.156 581.745L416.748 580.926L181.029 122.858Z" fill="#463E3B"/> <path d="M186.627 121.992L185.035 122.811L420.754 580.88L422.345 580.061L186.627 121.992Z" fill="#463E3B"/> <path d="M191.408 119.524L189.816 120.343L425.535 578.412L427.126 577.593L191.408 119.524Z" fill="#463E3B"/> <path d="M196.201 117.065L194.609 117.884L430.328 575.953L431.919 575.133L196.201 117.065Z" fill="#463E3B"/> <path d="M200.994 114.606L199.402 115.425L435.121 573.493L436.712 572.674L200.994 114.606Z" fill="#463E3B"/> <path d="M431 577.86L422.17 582.41C418.685 584.199 414.632 584.532 410.901 583.336C407.17 582.14 404.066 579.512 402.27 576.03L177.55 139.49C175.761 136.004 175.428 131.951 176.624 128.22C177.82 124.489 180.448 121.385 183.93 119.59L192.76 115.04C196.246 113.251 200.299 112.918 204.03 114.114C207.761 115.31 210.865 117.938 212.66 121.42L437.33 558C439.111 561.475 439.444 565.514 438.259 569.235C437.073 572.955 434.464 576.056 431 577.86ZM186.39 124.38C184.183 125.52 182.518 127.488 181.757 129.852C180.996 132.217 181.202 134.787 182.33 137L407 573.57C408.142 575.783 410.116 577.452 412.488 578.212C414.859 578.971 417.435 578.758 419.65 577.62L428.48 573.07C430.693 571.928 432.363 569.954 433.122 567.583C433.882 565.211 433.669 562.635 432.53 560.42L207.87 123.88C206.728 121.667 204.755 119.998 202.383 119.238C200.011 118.479 197.435 118.692 195.22 119.83L186.39 124.38Z" fill="#314E5D"/> <path d="M803.501 3.17993H348.951C334.962 3.17993 323.621 14.5206 323.621 28.5099V668.4C323.621 682.389 334.962 693.73 348.951 693.73H803.501C817.49 693.73 828.831 682.389 828.831 668.4V28.5099C828.831 14.5206 817.49 3.17993 803.501 3.17993Z" fill="#1DCDFF"/> <path d="M828.831 435.39V652.39C828.831 675.23 818.001 693.74 804.641 693.74H347.811C334.451 693.74 323.621 675.23 323.621 652.39V526.88C354.421 561.46 389.481 584.79 425.441 599.28C468.861 616.8 513.691 621.91 558.291 622.66C611.611 623.57 665.851 618.09 716.051 587.4C762.081 559.25 804.741 507.52 828.831 435.39Z" fill="#1AB5E1"/> <path d="M506.28 4.91998C458.69 18.57 392.58 5.39998 351.5 55.56C332 79.35 327.21 125.47 324.07 163.62L324.13 56.84C324.13 43.16 324.4 28.23 329.58 17.84C336 4.90998 347.2 3.91998 357.08 3.92998C405.62 3.99998 458.69 -5.00002 506.28 4.91998Z" fill="#4ED9FF"/> <path d="M803.021 4H348.471C334.481 4 323.141 15.3406 323.141 29.33V669.22C323.141 683.209 334.481 694.55 348.471 694.55H803.021C817.01 694.55 828.351 683.209 828.351 669.22V29.33C828.351 15.3406 817.01 4 803.021 4Z" stroke="#314E5D" stroke-width="8" stroke-miterlimit="10"/> <path d="M765.711 48.6899H387.251C378.491 48.6899 371.391 55.7907 371.391 64.5499V627.42C371.391 636.179 378.491 643.28 387.251 643.28H765.711C774.47 643.28 781.571 636.179 781.571 627.42V64.5499C781.571 55.7907 774.47 48.6899 765.711 48.6899Z" fill="white"/> <path d="M781.072 65.56V181H370.902V65.56C370.902 56.7 376.772 49.56 384.022 49.56H768.002C775.202 49.52 781.072 56.7 781.072 65.56Z" fill="#EA4583"/> <path d="M765.222 47.7H386.762C378.003 47.7 370.902 54.8007 370.902 63.56V630.73C370.902 639.489 378.003 646.59 386.762 646.59H765.222C773.982 646.59 781.082 639.489 781.082 630.73V63.56C781.082 54.8007 773.982 47.7 765.222 47.7Z" stroke="#314E5D" stroke-width="8" stroke-miterlimit="10"/> <path d="M709.62 126.43H441.68V149.59H709.62V126.43Z" fill="white"/> <path d="M433.332 298.98H564.422V293.47H433.332V298.98Z" fill="#AFE6FF"/> <path d="M433.341 311.1L718.641 311.1V305.59L433.341 305.59V311.1Z" fill="#AFE6FF"/> <path d="M433.332 323.22H564.422V317.71H433.332V323.22Z" fill="#AFE6FF"/> <path d="M433.341 335.33L718.641 335.33V329.82L433.341 329.82V335.33Z" fill="#AFE6FF"/> <path d="M433.332 347.46H564.422V341.95H433.332V347.46Z" fill="#AFE6FF"/> <path d="M433.341 359.57L718.641 359.57V354.06L433.341 354.06V359.57Z" fill="#AFE6FF"/> <path d="M662.82 85.77L761.23 85.77V74.19L662.82 74.19V85.77Z" fill="#EEA248"/> <path d="M550.84 85.77L649.25 85.77V74.19L550.84 74.19V85.77Z" fill="#EEA248"/> <path d="M401.91 91.1399C408.074 91.1399 413.07 86.1434 413.07 79.9799C413.07 73.8165 408.074 68.8199 401.91 68.8199C395.747 68.8199 390.75 73.8165 390.75 79.9799C390.75 86.1434 395.747 91.1399 401.91 91.1399Z" fill="#EEA248"/> <path d="M472.611 262.14C486.313 262.14 497.421 251.032 497.421 237.33C497.421 223.628 486.313 212.52 472.611 212.52C458.909 212.52 447.801 223.628 447.801 237.33C447.801 251.032 458.909 262.14 472.611 262.14Z" fill="#EA4583"/> <path d="M689.271 215H671.931C663.702 215 657.031 221.671 657.031 229.9V247.24C657.031 255.469 663.702 262.14 671.931 262.14H689.271C697.5 262.14 704.171 255.469 704.171 247.24V229.9C704.171 221.671 697.5 215 689.271 215Z" fill="#958FEE"/> <path d="M573.112 218.54C573.458 217.915 573.965 217.394 574.581 217.031C575.196 216.668 575.898 216.476 576.612 216.476C577.327 216.476 578.028 216.668 578.644 217.031C579.259 217.394 579.766 217.915 580.112 218.54L590.952 237.31L601.792 256.08C602.144 256.69 602.329 257.382 602.328 258.086C602.327 258.791 602.14 259.482 601.786 260.091C601.432 260.7 600.923 261.205 600.311 261.554C599.7 261.903 599.007 262.085 598.302 262.08H554.932C554.228 262.085 553.535 261.903 552.923 261.554C552.311 261.205 551.803 260.7 551.449 260.091C551.094 259.482 550.907 258.791 550.906 258.086C550.905 257.382 551.09 256.69 551.442 256.08L562.282 237.31L573.112 218.54Z" fill="#EEA248"/> <path d="M953.483 177.922L884.215 152.868C873.063 148.834 860.754 154.604 856.72 165.756L689.933 626.873C685.9 638.024 691.67 650.334 702.821 654.367L772.09 679.422C783.241 683.455 795.551 677.685 799.584 666.534L966.371 205.417C970.405 194.265 964.635 181.956 953.483 177.922Z" fill="#E8F0F9"/> <path d="M958.119 177L941.909 171.22C946.031 172.692 949.4 175.74 951.275 179.695C953.15 183.65 953.378 188.187 951.909 192.31L783.789 663.75C782.317 667.872 779.269 671.241 775.314 673.116C771.36 674.991 766.822 675.219 762.699 673.75L778.909 679.53C783.032 680.999 787.57 680.771 791.524 678.896C795.479 677.021 798.527 673.652 799.999 669.53L968.119 198.12C968.851 196.077 969.173 193.909 969.067 191.741C968.96 189.574 968.427 187.448 967.498 185.486C966.57 183.525 965.263 181.766 963.654 180.309C962.044 178.853 960.164 177.729 958.119 177Z" fill="#BCD9EA"/> <path opacity="0.2" d="M958.12 177L879.35 148.91C875.227 147.441 870.689 147.669 866.735 149.544C862.78 151.419 859.732 154.788 858.26 158.91L851.84 176.91C853.312 172.788 856.36 169.419 860.315 167.544C864.269 165.669 868.807 165.441 872.93 166.91L951.7 195C955.822 196.472 959.19 199.52 961.066 203.475C962.941 207.43 963.169 211.967 961.7 216.09L968.12 198.09C969.589 193.967 969.361 189.43 967.486 185.475C965.61 181.52 962.242 178.472 958.12 177Z" fill="#463E3B"/> <path d="M940.401 213.338L938.473 218.744L956.481 225.167L958.41 219.761L940.401 213.338Z" fill="#314E5D"/> <path d="M935.256 227.75L933.328 233.156L951.337 239.58L953.265 234.173L935.256 227.75Z" fill="#314E5D"/> <path d="M930.116 242.159L928.188 247.565L946.196 253.988L948.125 248.582L930.116 242.159Z" fill="#314E5D"/> <path d="M910.276 252.856L908.324 258.251L944.27 271.253L946.221 265.857L910.276 252.856Z" fill="#314E5D"/> <path d="M922.831 268.271L920.902 273.677L938.911 280.1L940.839 274.694L922.831 268.271Z" fill="#314E5D"/> <path d="M917.698 282.683L915.77 288.089L933.778 294.512L935.707 289.106L917.698 282.683Z" fill="#314E5D"/> <path d="M912.561 297.095L910.633 302.501L928.642 308.925L930.57 303.518L912.561 297.095Z" fill="#314E5D"/> <path d="M892.538 307.978L890.586 313.374L926.532 326.376L928.483 320.98L892.538 307.978Z" fill="#314E5D"/> <path d="M905.268 323.203L903.34 328.61L921.349 335.033L923.277 329.627L905.268 323.203Z" fill="#314E5D"/> <path d="M900.135 337.616L898.207 343.022L916.216 349.445L918.144 344.039L900.135 337.616Z" fill="#314E5D"/> <path d="M894.991 352.028L893.062 357.434L911.071 363.858L913 358.451L894.991 352.028Z" fill="#314E5D"/> <path d="M871.846 360.007L869.918 365.413L905.936 378.26L907.864 372.854L871.846 360.007Z" fill="#314E5D"/> <path d="M884.112 376.857L882.184 382.263L900.192 388.687L902.121 383.28L884.112 376.857Z" fill="#314E5D"/> <path d="M878.967 391.269L877.039 396.676L895.048 403.099L896.976 397.693L878.967 391.269Z" fill="#314E5D"/> <path d="M873.835 405.672L871.906 411.078L889.915 417.501L891.843 412.095L873.835 405.672Z" fill="#314E5D"/> <path d="M853.456 416.945L851.504 422.341L887.45 435.342L889.401 429.947L853.456 416.945Z" fill="#314E5D"/> <path d="M864.741 431.15L862.812 436.556L880.821 442.979L882.75 437.573L864.741 431.15Z" fill="#314E5D"/> <path d="M859.608 445.553L857.68 450.959L875.688 457.382L877.617 451.976L859.608 445.553Z" fill="#314E5D"/> <path d="M854.463 459.965L852.535 465.371L870.544 471.794L872.472 466.388L854.463 459.965Z" fill="#314E5D"/> <path d="M833.916 471.412L831.965 476.808L867.91 489.809L869.862 484.414L833.916 471.412Z" fill="#314E5D"/> <path d="M847.178 486.083L845.25 491.489L863.259 497.912L865.187 492.506L847.178 486.083Z" fill="#314E5D"/> <path d="M842.046 500.495L840.117 505.901L858.126 512.325L860.054 506.918L842.046 500.495Z" fill="#314E5D"/> <path d="M836.905 514.898L834.977 520.304L852.985 526.727L854.914 521.321L836.905 514.898Z" fill="#314E5D"/> <path d="M816.17 526.535L814.219 531.93L850.164 544.932L852.116 539.536L816.17 526.535Z" fill="#314E5D"/> <path d="M827.819 540.376L825.891 545.782L843.899 552.206L845.828 546.799L827.819 540.376Z" fill="#314E5D"/> <path d="M822.674 554.788L820.746 560.195L838.755 566.618L840.683 561.211L822.674 554.788Z" fill="#314E5D"/> <path d="M817.542 569.201L815.613 574.607L833.622 581.03L835.55 575.624L817.542 569.201Z" fill="#314E5D"/> <path d="M794.393 577.18L792.465 582.586L828.482 595.432L830.411 590.026L794.393 577.18Z" fill="#314E5D"/> <path d="M808.46 594.673L806.531 600.079L824.54 606.502L826.468 601.096L808.46 594.673Z" fill="#314E5D"/> <path d="M803.315 609.081L801.387 614.488L819.395 620.911L821.324 615.505L803.315 609.081Z" fill="#314E5D"/> <path d="M798.171 623.484L796.242 628.89L814.251 635.313L816.179 629.907L798.171 623.484Z" fill="#314E5D"/> <path d="M775.026 631.473L773.098 636.879L809.115 649.726L811.044 644.319L775.026 631.473Z" fill="#314E5D"/> <path d="M892.911 155.811L714.965 654.716L718.563 655.999L896.509 157.094L892.911 155.811Z" fill="white"/> <path d="M694.24 647.3L688.84 645.37L864.2 153.67C864.711 152.237 865.77 151.065 867.145 150.413C868.519 149.76 870.096 149.68 871.53 150.19L694.24 647.3Z" fill="white"/> <path d="M871.555 150.233L694.254 647.329L699.66 649.258L876.962 152.161L871.555 150.233Z" fill="white"/> <path d="M876.954 152.152L699.652 649.249L705.059 651.177L882.36 154.08L876.954 152.152Z" fill="white"/> <path d="M756.89 645.314C758.486 640.84 756.153 635.92 751.679 634.325C747.206 632.729 742.286 635.062 740.69 639.536C739.094 644.009 741.427 648.929 745.901 650.525C750.375 652.121 755.295 649.788 756.89 645.314Z" fill="white"/> <path d="M744.922 653.2C742.786 652.441 740.923 651.066 739.568 649.248C738.212 647.431 737.426 645.253 737.308 642.989C737.191 640.725 737.746 638.476 738.905 636.528C740.064 634.58 741.775 633.018 743.821 632.042C745.866 631.065 748.156 630.716 750.4 631.04C752.644 631.363 754.741 632.344 756.428 633.859C758.114 635.374 759.314 637.355 759.876 639.551C760.437 641.748 760.335 644.062 759.582 646.2C758.566 649.072 756.451 651.423 753.702 652.735C750.953 654.048 747.795 654.215 744.922 653.2ZM750.702 637C749.633 636.619 748.474 636.563 747.373 636.84C746.272 637.117 745.278 637.715 744.516 638.557C743.755 639.399 743.26 640.449 743.095 641.572C742.93 642.695 743.102 643.843 743.589 644.868C744.076 645.894 744.856 646.752 745.831 647.335C746.806 647.917 747.932 648.197 749.066 648.139C750.2 648.082 751.291 647.689 752.202 647.011C753.113 646.333 753.802 645.4 754.182 644.33C754.692 642.897 754.612 641.319 753.96 639.945C753.307 638.57 752.136 637.511 750.702 637Z" fill="#314E5D"/> <path d="M918.254 187.169C919.849 182.695 917.516 177.775 913.042 176.18C908.569 174.584 903.649 176.917 902.053 181.391C900.458 185.864 902.791 190.784 907.264 192.38C911.738 193.975 916.658 191.642 918.254 187.169Z" fill="white"/> <path d="M906.27 195.07C904.134 194.311 902.271 192.936 900.915 191.118C899.56 189.301 898.774 187.122 898.656 184.858C898.538 182.594 899.094 180.346 900.253 178.398C901.412 176.449 903.123 174.888 905.168 173.911C907.214 172.935 909.504 172.586 911.747 172.909C913.991 173.233 916.089 174.214 917.776 175.729C919.462 177.244 920.662 179.225 921.223 181.421C921.785 183.618 921.683 185.931 920.93 188.07C919.914 190.942 917.798 193.292 915.049 194.605C912.3 195.918 909.142 196.085 906.27 195.07ZM912.05 178.86C910.981 178.479 909.822 178.423 908.721 178.7C907.62 178.977 906.626 179.575 905.864 180.417C905.103 181.259 904.608 182.308 904.443 183.432C904.278 184.555 904.45 185.702 904.937 186.728C905.424 187.754 906.204 188.612 907.179 189.194C908.154 189.777 909.279 190.057 910.413 189.999C911.547 189.941 912.639 189.549 913.55 188.871C914.46 188.193 915.15 187.26 915.53 186.19C916.04 184.756 915.96 183.179 915.307 181.805C914.655 180.43 913.483 179.371 912.05 178.86Z" fill="#314E5D"/> <path d="M781.132 684.38L697.132 654.38C692.988 652.895 689.602 649.827 687.716 645.849C685.831 641.871 685.599 637.308 687.072 633.16L857.072 156.53C858.557 152.386 861.625 149 865.603 147.114C869.581 145.228 874.144 144.997 878.292 146.47L962.292 176.47C966.436 177.955 969.822 181.023 971.708 185.001C973.594 188.979 973.825 193.542 972.352 197.69L802.352 674.32C800.867 678.464 797.799 681.85 793.821 683.736C789.844 685.621 785.28 685.853 781.132 684.38ZM876.362 151.92C873.646 150.954 870.658 151.106 868.054 152.342C865.45 153.577 863.442 155.796 862.472 158.51L692.472 635.14C691.516 637.853 691.674 640.835 692.911 643.432C694.148 646.03 696.363 648.032 699.072 649L783.072 679C785.788 679.966 788.776 679.814 791.38 678.578C793.985 677.343 795.992 675.124 796.962 672.41L966.962 195.78C967.928 193.064 967.776 190.076 966.541 187.472C965.305 184.867 963.086 182.86 960.372 181.89L876.362 151.92Z" fill="#314E5D"/> <path opacity="0.1" d="M856.801 328.09C857.205 320.503 858.645 313.007 861.081 305.81C862.915 299.909 865.828 294.399 869.671 289.56C873.607 284.625 879.069 281.136 885.201 279.64L885.601 281.51C879.887 282.919 874.802 286.183 871.141 290.79C867.449 295.449 864.652 300.752 862.891 306.43C860.512 313.462 859.106 320.787 858.711 328.2L856.801 328.09Z" fill="black"/> <path opacity="0.1" d="M796.239 349C794.902 348.523 793.605 347.941 792.359 347.26L793.279 345.58C806.019 352.58 823.619 347.67 830.949 335.14C833.079 331.5 834.589 327.05 835.699 321.14C837.569 311.14 837.419 302.2 835.239 294.52C832.639 285.37 826.979 277.84 819.709 273.86L820.629 272.18C828.349 276.4 834.349 284.35 837.079 294C839.339 302 839.509 311.21 837.579 321.49C836.429 327.63 834.849 332.28 832.579 336.12C825.489 348.21 809.339 353.62 796.239 349Z" fill="black"/> <path opacity="0.1" d="M799.77 327.24L799.95 325.34C807.67 326.09 815.5 320.08 817.4 311.95C819.14 304.47 815.99 295.72 809.549 290.16L810.799 288.71C817.799 294.71 821.17 304.24 819.27 312.39C817.16 321.41 808.42 328.08 799.77 327.24Z" fill="black"/> <path opacity="0.1" d="M727.199 553.73C725.833 553.245 724.54 552.572 723.359 551.73L724.469 550.17C728.089 552.76 732.719 553.43 737.829 552.12C748.979 549.26 760.889 537.61 768.179 522.44C771.469 515.59 774.269 507.52 776.999 497.04C781.579 479.42 783.669 464.04 783.209 451.42C782.669 436.42 778.399 424.96 771.499 420.04L772.609 418.48C779.999 423.75 784.549 435.73 785.119 451.35C785.579 464.19 783.469 479.72 778.849 497.52C776.089 508.12 773.249 516.3 769.909 523.27C762.379 538.92 749.999 551 738.309 554C734.663 555.029 730.791 554.935 727.199 553.73Z" fill="black"/> <path opacity="0.1" d="M736.689 516L736.539 514.09C744.749 513.43 755.199 500.63 759.349 486.09C763.209 472.61 761.979 458.22 756.289 450.28L757.839 449.16C763.949 457.68 765.259 472.38 761.189 486.61C756.759 502.09 745.769 515.25 736.689 516Z" fill="black"/> <path opacity="0.1" d="M868.289 461.93C860.569 457.71 854.569 449.76 851.839 440.11C849.579 432.11 849.409 422.9 851.339 412.62C852.489 406.48 854.069 401.83 856.339 397.99C864.169 384.61 882.969 379.39 896.579 386.84L895.659 388.52C882.929 381.52 865.319 386.43 857.989 398.96C855.859 402.6 854.349 407.05 853.239 412.96C851.369 422.96 851.519 431.9 853.699 439.58C856.299 448.73 861.959 456.26 869.229 460.24L868.289 461.93Z" fill="black"/> <path opacity="0.1" d="M878.123 445.35C871.123 439.35 867.753 429.82 869.653 421.67C871.763 412.67 880.503 405.97 889.153 406.81L888.973 408.71C881.253 407.96 873.423 413.97 871.523 422.1C869.783 429.58 872.933 438.33 879.373 443.89L878.123 445.35Z" fill="black"/> <path opacity="0.1" d="M799.301 650.49C788.391 644.49 779.911 633.28 776.041 619.64C772.841 608.35 772.601 595.23 775.341 580.64C776.971 571.93 779.211 565.35 782.341 559.92C793.401 541.03 819.941 533.67 839.151 544.18L838.231 545.86C819.901 535.86 794.551 542.86 783.991 560.86C780.931 566.09 778.761 572.47 777.171 580.96C774.491 595.25 774.711 608.08 777.831 619.08C781.561 632.23 789.701 643.08 800.161 648.77L799.301 650.49Z" fill="black"/> <path opacity="0.1" d="M813.362 626.91C803.552 618.44 798.752 605.04 801.422 593.56C804.422 580.88 816.652 571.56 828.782 572.69L828.602 574.59C817.392 573.5 806.042 582.21 803.292 593.99C800.772 604.79 805.292 617.43 814.612 625.45L813.362 626.91Z" fill="black"/> <path d="M878.252 162.76L708.016 640.049L713.422 641.977L883.659 164.688L878.252 162.76Z" fill="#314E5D"/> <path opacity="0.1" d="M801.512 496.08C799.302 490 796.512 482.44 796.742 474.78C796.892 468.78 798.742 463.03 800.632 457.47C801.632 454.33 802.742 451.09 803.482 447.86C805.417 438.769 804.894 429.327 801.967 420.506C799.041 411.684 793.817 403.802 786.832 397.67L788.072 396.22C795.318 402.582 800.737 410.76 803.772 419.912C806.808 429.064 807.35 438.859 805.342 448.29C804.582 451.61 803.502 454.9 802.442 458.08C800.642 463.51 798.792 469.08 798.652 474.84C798.472 482.13 801.152 489.51 803.302 495.44L801.512 496.08Z" fill="black"/> <path opacity="0.1" d="M873.571 259.88C871.361 253.8 868.571 246.24 868.801 238.58C868.951 232.58 870.801 226.83 872.691 221.27C873.691 218.13 874.801 214.89 875.541 211.66C877.475 202.569 876.953 193.127 874.026 184.306C871.1 175.484 865.875 167.602 858.891 161.47L860.131 160.02C867.376 166.382 872.795 174.56 875.831 183.712C878.866 192.864 879.408 202.659 877.401 212.09C876.641 215.41 875.561 218.7 874.501 221.88C872.701 227.31 870.851 232.88 870.711 238.64C870.531 245.93 873.211 253.31 875.361 259.24L873.571 259.88Z" fill="black"/> <path opacity="0.1" d="M927.219 297.29C925.009 291.21 922.219 283.65 922.449 275.99C922.599 269.99 924.449 264.24 926.339 258.68C927.339 255.54 928.449 252.3 929.189 249.07C931.124 239.979 930.601 230.537 927.675 221.716C924.748 212.894 919.524 205.012 912.539 198.88L913.779 197.43C921.025 203.792 926.444 211.97 929.479 221.122C932.515 230.274 933.057 240.069 931.049 249.5C930.289 252.82 929.209 256.11 928.149 259.29C926.349 264.72 924.499 270.29 924.359 276.05C924.179 283.34 926.859 290.72 929.009 296.65L927.219 297.29Z" fill="black"/> <path opacity="0.1" d="M727.651 662.09L726.041 661.09C729.671 655.38 729.281 648.09 728.901 641.09C728.801 639.26 728.701 637.43 728.671 635.63C728.698 629.474 729.142 623.326 730.001 617.23C731.411 605.51 732.751 594.43 728.471 584.11C725.381 576.66 719.471 570.5 714.211 565.32L715.551 563.96C720.961 569.27 727.011 575.6 730.241 583.38C734.721 594.17 733.241 606.01 731.911 617.46C731.047 623.462 730.589 629.516 730.541 635.58C730.541 637.35 730.671 639.15 730.761 640.96C731.201 648.29 731.611 655.86 727.651 662.09Z" fill="black"/> </g> <defs> <clipPath id="clip0"> <rect width="973.3" height="698.55" fill="white"/> </clipPath> </defs> </svg> 