<svg width="39" height="66" viewBox="0 0 39 66" fill="none" xmlns="http://www.w3.org/2000/svg"> <g clip-path="url(#clip0)"> <path d="M11.3711 52.55V54.55C11.3699 54.9006 11.4729 55.2436 11.667 55.5356C11.861 55.8276 12.1374 56.0554 12.4611 56.19C12.6511 56.27 12.8711 56.36 13.1111 56.44L13.2311 56.73V58.28C13.2304 58.5497 13.3099 58.8134 13.4595 59.0378C13.6091 59.2621 13.822 59.437 14.0711 59.5401L14.5011 59.7001V60.0801C14.558 61.3374 15.0975 62.5244 16.0074 63.394C16.9173 64.2637 18.1275 64.749 19.3861 64.749C20.6447 64.749 21.8549 64.2637 22.7648 63.394C23.6747 62.5244 24.2142 61.3374 24.2711 60.0801L24.4311 59.6501L24.7211 59.5401C24.9703 59.437 25.1831 59.2621 25.3327 59.0378C25.4823 58.8134 25.5618 58.5497 25.5611 58.28V56.7401V56.85V56.5201L26.3911 56.2001C26.7148 56.0654 26.9912 55.8376 27.1852 55.5456C27.3793 55.2537 27.4823 54.9106 27.4811 54.5601V52.5601L11.3711 52.55Z" fill="#D9E1E4"/> <path d="M19.4004 62C17.8169 62.0016 16.2446 61.7344 14.7504 61.21C14.6318 61.161 14.5366 61.0683 14.4845 60.951C14.4324 60.8337 14.4273 60.7009 14.4704 60.58C14.5193 60.4616 14.6126 60.367 14.7304 60.3165C14.8481 60.2661 14.981 60.2637 15.1004 60.31C17.7558 61.2336 20.6451 61.2336 23.3004 60.31C23.3595 60.2857 23.4227 60.2735 23.4866 60.2739C23.5504 60.2744 23.6135 60.2876 23.6721 60.3127C23.7308 60.3379 23.7839 60.3745 23.8282 60.4204C23.8726 60.4663 23.9073 60.5205 23.9304 60.58C23.9773 60.6982 23.9764 60.8301 23.9279 60.9476C23.8794 61.0652 23.7871 61.1593 23.6704 61.21C22.311 61.745 20.8613 62.0132 19.4004 62Z" fill="#94B5BF"/> <path d="M19.5616 55.35C16.7852 55.3595 14.0269 54.9032 11.4016 54C11.2822 53.9536 11.1862 53.8616 11.1346 53.7444C11.0831 53.6272 11.0802 53.4943 11.1266 53.375C11.173 53.2556 11.2649 53.1596 11.3821 53.108C11.4993 53.0565 11.6322 53.0536 11.7516 53.1C11.8316 53.1 19.5116 56.02 26.6516 53.1C26.7107 53.077 26.7737 53.0659 26.8371 53.0673C26.9005 53.0686 26.963 53.0825 27.021 53.108C27.0791 53.1336 27.1315 53.1703 27.1754 53.2161C27.2192 53.2619 27.2536 53.3159 27.2766 53.375C27.2996 53.4341 27.3107 53.4971 27.3093 53.5605C27.3079 53.6239 27.2941 53.6864 27.2685 53.7444C27.243 53.8025 27.2063 53.8549 27.1605 53.8987C27.1147 53.9426 27.0607 53.977 27.0016 54C24.6319 54.9257 22.1054 55.3841 19.5616 55.35Z" fill="#94B5BF"/> <path d="M25.36 56.46V56.79V56.68V57.76L25.17 57.83C23.2105 58.5495 21.1467 58.9447 19.06 59C17.0131 58.9572 14.9867 58.5823 13.06 57.89V56.68L13 56.53C14.9239 57.2353 16.9513 57.6171 19 57.66L25.36 56.46Z" fill="#94B5BF"/> <path d="M28.6691 51.33V47.46C28.6691 47.46 28.2091 40.29 31.5391 34.93C34.8691 29.57 37.8891 26.33 37.8891 18.72C37.8891 11.11 31.3291 0.540039 19.2191 0.540039C7.10906 0.540039 0.539062 11.11 0.539062 18.72C0.539062 26.33 3.53906 29.58 6.89906 34.93C8.87636 38.0419 9.876 41.6747 9.76906 45.36V51.36C9.76615 51.5313 9.81272 51.6998 9.90318 51.8452C9.99364 51.9907 10.1242 52.1069 10.2791 52.18C13.0919 53.4302 16.1359 54.0762 19.2141 54.0762C22.2922 54.0762 25.3362 53.4302 28.1491 52.18C28.3106 52.1064 28.4465 51.9861 28.5392 51.8346C28.6318 51.6832 28.6771 51.5074 28.6691 51.33Z" fill="#FBE481"/> <path opacity="0.5" d="M31.2117 35.1701C29.2344 38.2819 28.2348 41.9148 28.3417 45.6001V51.6001C28.3413 51.7719 28.2922 51.9401 28.2002 52.0852C28.1082 52.2304 27.977 52.3464 27.8217 52.4201C25.7475 53.3614 23.5364 53.9656 21.2717 54.2101C21.2717 53.5001 21.2117 52.6301 21.1617 51.6001V45.6001C21.0397 41.9171 22.0293 38.2827 24.0017 35.1701C27.3317 29.8201 30.3517 26.5801 30.3517 18.9601C30.3517 12.1401 25.0817 2.96009 15.2617 1.12009C16.4547 0.890867 17.6669 0.777009 18.8817 0.78009C31.0017 0.78009 37.5617 11.3501 37.5617 19.0001C37.5617 26.6501 34.5317 29.8201 31.2117 35.1701Z" fill="#F8A547"/> <path d="M31.05 34.9999C29.5634 37.493 28.7919 40.3473 28.82 43.2499C28.82 44.7899 28.82 45.6899 28.82 45.6899L28.15 51.3999C28.1496 51.5717 28.1005 51.7399 28.0085 51.8851C27.9165 52.0302 27.7853 52.1463 27.63 52.2199C25.565 53.1558 23.3641 53.7567 21.11 53.9999C21.11 53.9299 21.11 53.8799 21.11 53.8099C22.8969 53.6518 24.6534 53.248 26.33 52.6099C26.65 52.4599 26.83 52.6999 26.83 52.3499V45.4199C26.7221 41.739 27.7181 38.11 29.69 34.9999C33.02 29.6499 36.06 26.4099 36.06 18.7899C36.06 11.1699 29.7 0.999901 18 0.619901C18.25 0.619901 18.51 0.619901 18.76 0.619901C30.84 0.599901 37.41 11.1699 37.41 18.7799C37.41 26.3899 34.38 29.6399 31.05 34.9999Z" fill="#FCA100"/> <path d="M6.89906 34.9999C8.87443 38.1089 9.87399 41.7379 9.76906 45.4199V51.4199C9.77037 51.5928 9.82091 51.7618 9.91478 51.907C10.0086 52.0522 10.1419 52.1677 10.2991 52.2399C12.3711 53.1719 14.5791 53.7661 16.8391 53.9999C16.8391 53.9299 16.8391 53.8799 16.8391 53.8099C15.0433 53.5057 13.2952 52.9678 11.6391 52.2099C11.3091 52.0599 11.1191 52.6999 11.1191 52.3499L11.9991 48.5299C12.9404 44.2871 12.3488 39.848 10.3291 35.9999C10.1491 35.6699 9.94906 35.3399 9.73906 34.9999C6.41906 29.6399 3.37906 26.3999 3.37906 18.7799C3.37906 11.1599 8.24906 0.999885 19.9991 0.619885C19.7591 0.619885 19.4991 0.619885 19.2391 0.619885C16.4523 0.578957 13.6932 1.17791 11.1742 2.37066C8.65522 3.56341 6.44344 5.31816 4.70906 7.49988C2.1143 10.6978 0.648377 14.6632 0.539062 18.7799C0.539063 26.3999 3.56906 29.6399 6.89906 34.9999Z" fill="white"/> <path d="M4.82 32.2499C4.72842 32.2507 4.63815 32.2281 4.55768 32.1844C4.47721 32.1406 4.40918 32.0772 4.36 31.9999C1.89 28.1899 0 24.7899 0 18.7199C0.0687836 15.6235 0.914695 12.594 2.46 9.9099C2.49539 9.84679 2.54288 9.79129 2.59975 9.74657C2.65662 9.70185 2.72176 9.66878 2.79143 9.64928C2.8611 9.62977 2.93393 9.6242 3.00576 9.63288C3.07758 9.64157 3.14699 9.66434 3.21 9.6999C3.27192 9.73516 3.32625 9.78233 3.36986 9.83868C3.41346 9.89504 3.44549 9.95947 3.46408 10.0283C3.48267 10.097 3.48746 10.1688 3.47818 10.2395C3.4689 10.3101 3.44573 10.3782 3.41 10.4399C1.95533 12.962 1.15758 15.8091 1.09 18.7199C1.09 24.4999 2.82 27.6299 5.27 31.4099C5.3104 31.4691 5.33836 31.5359 5.3522 31.6063C5.36603 31.6766 5.36546 31.749 5.3505 31.8191C5.33554 31.8892 5.30652 31.9556 5.26518 32.0142C5.22384 32.0727 5.17105 32.1223 5.11 32.1599C5.02444 32.2181 4.92347 32.2494 4.82 32.2499Z" fill="#3E3126"/> <path d="M28.7213 43.74C28.5789 43.7248 28.448 43.6547 28.3565 43.5445C28.265 43.4343 28.2201 43.2928 28.2313 43.15C28.3125 42.3428 28.4428 41.5413 28.6213 40.75C29.1076 38.5864 29.9562 36.5206 31.1313 34.64C31.6413 33.82 32.1313 33.04 32.6413 32.29C35.3013 28.22 37.4013 25 37.4013 18.72C37.4013 11.33 31.1013 1.08999 19.2713 1.08999C14.85 1.02318 10.5669 2.63067 7.28132 5.58999C7.23054 5.64965 7.1676 5.69778 7.09671 5.73114C7.02582 5.7645 6.94863 5.78233 6.87029 5.78344C6.79195 5.78455 6.71428 5.76891 6.64247 5.73757C6.57067 5.70623 6.50639 5.65991 6.45394 5.60171C6.40149 5.54351 6.36208 5.47478 6.33834 5.40011C6.31461 5.32545 6.3071 5.24657 6.31632 5.16877C6.32554 5.09097 6.35128 5.01603 6.39181 4.94898C6.43234 4.88194 6.48672 4.82432 6.55132 4.77999C10.0251 1.65296 14.5478 -0.0533182 19.2213 -8.17562e-06C31.7613 -8.17562e-06 38.4413 10.87 38.4413 18.72C38.4413 25.33 36.1513 28.83 33.5013 32.88C33.0213 33.63 32.5013 34.4 32.0013 35.22C30.8945 37.001 30.0935 38.9546 29.6313 41C29.4627 41.7448 29.3424 42.4997 29.2713 43.26C29.2542 43.3934 29.1888 43.5159 29.0874 43.6044C28.9861 43.6928 28.8558 43.7411 28.7213 43.74Z" fill="#3E3126"/> <path d="M19.3288 54.6099C16.1331 54.5968 12.9756 53.9155 10.0588 52.6099C9.80722 52.496 9.59403 52.3116 9.44497 52.0792C9.29591 51.8467 9.21734 51.576 9.21877 51.2999V46.7999C9.23667 46.6681 9.30175 46.5472 9.40197 46.4596C9.50218 46.3721 9.63072 46.3239 9.76377 46.3239C9.89682 46.3239 10.0254 46.3721 10.1256 46.4596C10.2258 46.5472 10.2909 46.6681 10.3088 46.7999V51.2999C10.3092 51.3665 10.3282 51.4317 10.3635 51.4882C10.3988 51.5447 10.4491 51.5903 10.5088 51.6199C13.2484 52.8411 16.2143 53.4723 19.2138 53.4723C22.2133 53.4723 25.1792 52.8411 27.9188 51.6199C27.9811 51.5927 28.0341 51.548 28.0714 51.4911C28.1087 51.4343 28.1286 51.3679 28.1288 51.2999V44.6899C28.1287 44.5457 28.1853 44.4073 28.2863 44.3045C28.3873 44.2016 28.5246 44.1425 28.6688 44.1399C28.8146 44.1399 28.9545 44.1978 29.0577 44.301C29.1608 44.4041 29.2188 44.544 29.2188 44.6899V51.3299C29.2163 51.6078 29.1352 51.8792 28.9847 52.1129C28.8343 52.3465 28.6207 52.5327 28.3688 52.6499C25.5308 53.9439 22.4478 54.6123 19.3288 54.6099Z" fill="#3E3126"/> <path d="M9.46141 41.9999C9.33566 41.9998 9.2139 41.9557 9.11714 41.8754C9.02039 41.7951 8.9547 41.6835 8.93141 41.5599C8.63332 40.0257 8.14627 38.5344 7.48141 37.1199C7.45103 37.0556 7.43366 36.9859 7.43029 36.9149C7.42693 36.8438 7.43763 36.7728 7.46179 36.7059C7.48595 36.639 7.52309 36.5775 7.57107 36.525C7.61906 36.4725 7.67695 36.43 7.74141 36.3999C7.87278 36.3382 8.02323 36.3308 8.15998 36.3795C8.29672 36.4282 8.40867 36.529 8.47141 36.6599C9.17642 38.1598 9.69043 39.7421 10.0014 41.3699C10.028 41.5117 9.99776 41.6582 9.91734 41.7779C9.83691 41.8976 9.71268 41.9809 9.57141 42.0099L9.46141 41.9999Z" fill="#3E3126"/> <path d="M31.5271 26.1046C31.965 24.9181 31.6354 23.7036 30.7909 23.3918C29.9464 23.0801 28.9067 23.7892 28.4688 24.9757C28.0308 26.1622 28.3604 27.3767 29.2049 27.6885C30.0495 28.0002 31.0891 27.2911 31.5271 26.1046Z" fill="#FFB320"/> <path d="M31.8398 22.1499C32.3921 22.1499 32.8398 21.7022 32.8398 21.1499C32.8398 20.5976 32.3921 20.1499 31.8398 20.1499C31.2876 20.1499 30.8398 20.5976 30.8398 21.1499C30.8398 21.7022 31.2876 22.1499 31.8398 22.1499Z" fill="#FFB320"/> <path opacity="0.75" d="M29.1812 22.29C29.4022 22.29 29.5812 22.1109 29.5812 21.89C29.5812 21.6691 29.4022 21.49 29.1812 21.49C28.9603 21.49 28.7812 21.6691 28.7812 21.89C28.7812 22.1109 28.9603 22.29 29.1812 22.29Z" fill="#FFB320"/> <path d="M27.5389 27.7299C27.9034 27.7299 28.1989 27.4344 28.1989 27.0699C28.1989 26.7054 27.9034 26.4099 27.5389 26.4099C27.1744 26.4099 26.8789 26.7054 26.8789 27.0699C26.8789 27.4344 27.1744 27.7299 27.5389 27.7299Z" fill="#FFB320"/> <path opacity="0.35" d="M30.9392 18.8301C31.3479 18.8301 31.6792 18.4988 31.6792 18.0901C31.6792 17.6814 31.3479 17.3501 30.9392 17.3501C30.5305 17.3501 30.1992 17.6814 30.1992 18.0901C30.1992 18.4988 30.5305 18.8301 30.9392 18.8301Z" fill="#FFB320"/> <path opacity="0.35" d="M28.5402 20.1699C28.8881 20.1699 29.1702 19.8879 29.1702 19.5399C29.1702 19.192 28.8881 18.9099 28.5402 18.9099C28.1922 18.9099 27.9102 19.192 27.9102 19.5399C27.9102 19.8879 28.1922 20.1699 28.5402 20.1699Z" fill="#FFB320"/> <path opacity="0.35" d="M26.9909 23.9299C27.2836 23.9299 27.5209 23.6926 27.5209 23.3999C27.5209 23.1072 27.2836 22.8699 26.9909 22.8699C26.6982 22.8699 26.4609 23.1072 26.4609 23.3999C26.4609 23.6926 26.6982 23.9299 26.9909 23.9299Z" fill="#FFB320"/> <path opacity="0.75" d="M25.3219 13.1301C25.5428 13.1301 25.7219 12.951 25.7219 12.7301C25.7219 12.5092 25.5428 12.3301 25.3219 12.3301C25.101 12.3301 24.9219 12.5092 24.9219 12.7301C24.9219 12.951 25.101 13.1301 25.3219 13.1301Z" fill="#E2AB63"/> <path opacity="0.35" d="M23.5603 9.66994C23.969 9.66994 24.3003 9.33863 24.3003 8.92994C24.3003 8.52125 23.969 8.18994 23.5603 8.18994C23.1516 8.18994 22.8203 8.52125 22.8203 8.92994C22.8203 9.33863 23.1516 9.66994 23.5603 9.66994Z" fill="#E2AB63"/> <path opacity="0.35" d="M23.1105 12.3401C23.4584 12.3401 23.7405 12.058 23.7405 11.7101C23.7405 11.3621 23.4584 11.0801 23.1105 11.0801C22.7625 11.0801 22.4805 11.3621 22.4805 11.7101C22.4805 12.058 22.7625 12.3401 23.1105 12.3401Z" fill="#E2AB63"/> <path opacity="0.35" d="M25.0612 15.9101C25.354 15.9101 25.5912 15.6728 25.5912 15.3801C25.5912 15.0874 25.354 14.8501 25.0612 14.8501C24.7685 14.8501 24.5312 15.0874 24.5312 15.3801C24.5312 15.6728 24.7685 15.9101 25.0612 15.9101Z" fill="#E2AB63"/> <path d="M20.4916 53.9399C20.4356 53.9399 20.3801 53.9287 20.3285 53.907C20.2769 53.8853 20.2301 53.8534 20.191 53.8134C20.1519 53.7733 20.1211 53.7258 20.1006 53.6737C20.0801 53.6216 20.0702 53.5659 20.0716 53.5099V38.2299H17.9316V53.3399C17.9159 53.4414 17.8645 53.534 17.7865 53.6009C17.7086 53.6677 17.6093 53.7045 17.5066 53.7045C17.4038 53.7045 17.3045 53.6677 17.2266 53.6009C17.1486 53.534 17.0972 53.4414 17.0816 53.3399V38.2299H15.0016C14.2324 38.2299 13.4948 37.9244 12.951 37.3805C12.4071 36.8366 12.1016 36.099 12.1016 35.3299V34.7899C12.1016 34.0208 12.4071 33.2831 12.951 32.7393C13.4948 32.1954 14.2324 31.8899 15.0016 31.8899C15.7707 31.8899 16.5083 32.1954 17.0522 32.7393C17.596 33.2831 17.9016 34.0208 17.9016 34.7899V37.3799H20.0416V34.7899C20.0851 34.0489 20.4101 33.3525 20.9501 32.8433C21.4901 32.3341 22.2043 32.0504 22.9466 32.0504C23.6888 32.0504 24.403 32.3341 24.943 32.8433C25.4831 33.3525 25.8081 34.0489 25.8516 34.7899V35.3299C25.8491 36.0897 25.5496 36.8183 25.0171 37.3602C24.4845 37.9021 23.7612 38.2142 23.0016 38.2299H21.0016V53.5099C21.0027 53.5738 20.9895 53.6371 20.9631 53.6953C20.9367 53.7534 20.8976 53.805 20.8488 53.8462C20.8 53.8873 20.7426 53.9171 20.6808 53.9333C20.619 53.9495 20.5543 53.9518 20.4916 53.9399ZM20.9216 37.3799H22.9216C23.1929 37.3825 23.4621 37.3315 23.7137 37.2298C23.9653 37.1281 24.1943 36.9777 24.3876 36.7872C24.5809 36.5967 24.7346 36.3699 24.84 36.1198C24.9453 35.8697 25.0003 35.6013 25.0016 35.3299V34.7899C24.9652 34.2696 24.733 33.7825 24.3516 33.4268C23.9702 33.0711 23.4681 32.8733 22.9466 32.8733C22.425 32.8733 21.9229 33.0711 21.5416 33.4268C21.1602 33.7825 20.9279 34.2696 20.8916 34.7899L20.9216 37.3799ZM15.0016 32.7399C14.4751 32.7526 13.9738 32.9674 13.6014 33.3397C13.229 33.7121 13.0143 34.2135 13.0016 34.7399V35.2799C13.0014 35.815 13.2105 36.329 13.5842 36.7121C13.9579 37.0951 14.4666 37.3168 15.0016 37.3299H17.0016V34.7899C17.0017 34.2548 16.7926 33.7408 16.4189 33.3577C16.0452 32.9747 15.5365 32.7529 15.0016 32.7399Z" fill="#3E3126"/> <path d="M29.9707 14.8187C31.4617 14.4295 32.2598 12.5415 31.7534 10.6017C31.2471 8.66192 29.628 7.4049 28.137 7.79409C26.6461 8.18328 25.848 10.0713 26.3544 12.0111C26.8607 13.9509 28.4798 15.2079 29.9707 14.8187Z" fill="#FFB320"/> <path d="M15.6815 57.2801H15.5815C14.4828 57.0348 13.4059 56.7003 12.3615 56.2801C11.9586 56.1447 11.6192 55.8665 11.4074 55.4981C11.1955 55.1296 11.1258 54.6964 11.2115 54.2801C11.2266 54.1536 11.2904 54.0379 11.3893 53.9576C11.4883 53.8774 11.6146 53.8388 11.7415 53.8501C11.8042 53.8551 11.8653 53.8726 11.9211 53.9016C11.977 53.9306 12.0264 53.9706 12.0665 54.0191C12.1066 54.0676 12.1366 54.1236 12.1546 54.1839C12.1726 54.2442 12.1784 54.3075 12.1715 54.3701C12.0915 55.1701 12.6415 55.3701 12.6715 55.3701C13.6847 55.7537 14.724 56.0645 15.7815 56.3001C15.907 56.3288 16.0161 56.4057 16.0854 56.5142C16.1546 56.6228 16.1784 56.7542 16.1515 56.8801C16.1327 56.9914 16.0752 57.0925 15.9893 57.1656C15.9033 57.2388 15.7944 57.2793 15.6815 57.2801Z" fill="white"/> <path d="M16.1811 57.8399H16.1011C14.7307 57.5855 13.3902 57.19 12.1011 56.6599C11.7034 56.4976 11.3628 56.2209 11.1225 55.8649C10.8821 55.5088 10.7529 55.0895 10.7511 54.6599V52.6599C10.7417 52.5987 10.7456 52.5361 10.7626 52.4765C10.7797 52.4168 10.8094 52.3616 10.8497 52.3146C10.8901 52.2675 10.9402 52.2297 10.9965 52.2038C11.0528 52.178 11.1141 52.1646 11.1761 52.1646C11.2381 52.1646 11.2994 52.178 11.3557 52.2038C11.412 52.2297 11.4621 52.2675 11.5024 52.3146C11.5428 52.3616 11.5725 52.4168 11.5896 52.4765C11.6066 52.5361 11.6105 52.5987 11.6011 52.6599V54.6599C11.5994 54.9259 11.6764 55.1864 11.8223 55.4088C11.9682 55.6312 12.1765 55.8055 12.4211 55.9099C13.6635 56.3947 14.9493 56.7597 16.2611 56.9999C16.3157 57.0096 16.3678 57.0299 16.4145 57.0598C16.4612 57.0897 16.5016 57.1286 16.5332 57.1741C16.5648 57.2197 16.5871 57.271 16.5987 57.3252C16.6104 57.3794 16.6112 57.4354 16.6011 57.4899C16.5825 57.5879 16.5305 57.6764 16.4539 57.7403C16.3773 57.8041 16.2808 57.8394 16.1811 57.8399Z" fill="#3E3126"/> <path d="M19.0013 58.1499C18.8998 58.1343 18.8072 58.0828 18.7404 58.0049C18.6735 57.9269 18.6367 57.8276 18.6367 57.7249C18.6367 57.6222 18.6735 57.5229 18.7404 57.4449C18.8072 57.367 18.8998 57.3155 19.0013 57.2999C21.4037 57.2668 23.7784 56.7817 26.0013 55.8699C26.2478 55.767 26.4582 55.5933 26.606 55.3708C26.7537 55.1483 26.8322 54.887 26.8313 54.6199V52.6199C26.8219 52.5586 26.8258 52.496 26.8429 52.4364C26.8599 52.3768 26.8896 52.3216 26.93 52.2745C26.9703 52.2275 27.0204 52.1897 27.0767 52.1638C27.1331 52.1379 27.1943 52.1245 27.2563 52.1245C27.3183 52.1245 27.3796 52.1379 27.4359 52.1638C27.4923 52.1897 27.5423 52.2275 27.5827 52.2745C27.6231 52.3216 27.6528 52.3768 27.6698 52.4364C27.6868 52.496 27.6908 52.5586 27.6813 52.6199V54.6199C27.6787 55.0506 27.548 55.4708 27.3058 55.8269C27.0636 56.1831 26.7209 56.4591 26.3213 56.6199C24.0005 57.5895 21.5163 58.1088 19.0013 58.1499Z" fill="#3E3126"/> <path d="M19.3583 61.1501C17.423 61.1222 15.51 60.7322 13.7183 60.0001C13.3911 59.8634 13.112 59.6327 12.9161 59.3372C12.7203 59.0416 12.6166 58.6946 12.6183 58.3401V56.8001C12.6089 56.7388 12.6128 56.6762 12.6298 56.6166C12.6468 56.557 12.6766 56.5018 12.7169 56.4547C12.7573 56.4076 12.8074 56.3699 12.8637 56.344C12.92 56.3181 12.9813 56.3047 13.0433 56.3047C13.1053 56.3047 13.1665 56.3181 13.2229 56.344C13.2792 56.3699 13.3293 56.4076 13.3696 56.4547C13.41 56.5018 13.4397 56.557 13.4567 56.6166C13.4738 56.6762 13.4777 56.7388 13.4683 56.8001V58.3401C13.4658 58.5254 13.5187 58.7072 13.6203 58.8622C13.7218 59.0172 13.8674 59.1384 14.0383 59.2101C15.7273 59.9047 17.5322 60.2745 19.3583 60.3001C19.4196 60.2906 19.4821 60.2946 19.5418 60.3116C19.6014 60.3286 19.6566 60.3583 19.7037 60.3987C19.7507 60.4391 19.7885 60.4892 19.8144 60.5455C19.8403 60.6018 19.8537 60.6631 19.8537 60.7251C19.8537 60.7871 19.8403 60.8483 19.8144 60.9047C19.7885 60.961 19.7507 61.0111 19.7037 61.0514C19.6566 61.0918 19.6014 61.1215 19.5418 61.1385C19.4821 61.1556 19.4196 61.1595 19.3583 61.1501Z" fill="#3E3126"/> <path d="M19.0813 61.1501C19.02 61.1595 18.9575 61.1556 18.8978 61.1385C18.8382 61.1215 18.783 61.0918 18.736 61.0514C18.6889 61.0111 18.6511 60.961 18.6252 60.9047C18.5993 60.8483 18.5859 60.7871 18.5859 60.7251C18.5859 60.6631 18.5993 60.6018 18.6252 60.5455C18.6511 60.4892 18.6889 60.4391 18.736 60.3987C18.783 60.3583 18.8382 60.3286 18.8978 60.3116C18.9575 60.2946 19.02 60.2906 19.0813 60.3001C20.9042 60.275 22.7059 59.9051 24.3913 59.2101C24.563 59.1395 24.7093 59.0186 24.8111 58.8634C24.9128 58.7081 24.9652 58.5257 24.9613 58.3401V56.8001C24.9519 56.7388 24.9558 56.6762 24.9729 56.6166C24.9899 56.557 25.0196 56.5018 25.06 56.4547C25.1003 56.4076 25.1504 56.3699 25.2067 56.344C25.2631 56.3181 25.3243 56.3047 25.3863 56.3047C25.4483 56.3047 25.5096 56.3181 25.5659 56.344C25.6222 56.3699 25.6723 56.4076 25.7127 56.4547C25.753 56.5018 25.7828 56.557 25.7998 56.6166C25.8168 56.6762 25.8207 56.7388 25.8113 56.8001V58.3401C25.8125 58.6932 25.7098 59.0388 25.516 59.334C25.3221 59.6292 25.0458 59.8608 24.7213 60.0001C22.9296 60.7322 21.0166 61.1222 19.0813 61.1501Z" fill="#3E3126"/> <path d="M19.2212 65.4599C17.813 65.4599 16.4623 64.9005 15.4665 63.9047C14.4707 62.9088 13.9112 61.5582 13.9112 60.1499C13.9018 60.0886 13.9058 60.0261 13.9228 59.9664C13.9398 59.9068 13.9695 59.8516 14.0099 59.8046C14.0503 59.7575 14.1003 59.7197 14.1567 59.6938C14.213 59.6679 14.2743 59.6545 14.3363 59.6545C14.3982 59.6545 14.4595 59.6679 14.5158 59.6938C14.5722 59.7197 14.6222 59.7575 14.6626 59.8046C14.703 59.8516 14.7327 59.9068 14.7497 59.9664C14.7667 60.0261 14.7707 60.0886 14.7613 60.1499C14.7613 61.3328 15.2311 62.4672 16.0676 63.3036C16.904 64.14 18.0384 64.6099 19.2212 64.6099C20.4041 64.6099 21.5385 64.14 22.3749 63.3036C23.2114 62.4672 23.6813 61.3328 23.6813 60.1499C23.6718 60.0886 23.6758 60.0261 23.6928 59.9664C23.7098 59.9068 23.7395 59.8516 23.7799 59.8046C23.8203 59.7575 23.8703 59.7197 23.9267 59.6938C23.983 59.6679 24.0443 59.6545 24.1062 59.6545C24.1682 59.6545 24.2295 59.6679 24.2858 59.6938C24.3422 59.7197 24.3922 59.7575 24.4326 59.8046C24.473 59.8516 24.5027 59.9068 24.5197 59.9664C24.5367 60.0261 24.5407 60.0886 24.5313 60.1499C24.5313 60.8472 24.3939 61.5377 24.1271 62.182C23.8602 62.8262 23.4691 63.4116 22.976 63.9047C22.4829 64.3977 21.8975 64.7889 21.2533 65.0557C20.6091 65.3226 19.9186 65.4599 19.2212 65.4599Z" fill="#3E3126"/> <path d="M7.15078 35.8799C7.48215 35.8799 7.75078 35.6113 7.75078 35.2799C7.75078 34.9486 7.48215 34.6799 7.15078 34.6799C6.81941 34.6799 6.55078 34.9486 6.55078 35.2799C6.55078 35.6113 6.81941 35.8799 7.15078 35.8799Z" fill="#3E3126"/> <path d="M9.77188 44.19C10.1032 44.19 10.3719 43.9214 10.3719 43.59C10.3719 43.2586 10.1032 42.99 9.77188 42.99C9.4405 42.99 9.17188 43.2586 9.17188 43.59C9.17188 43.9214 9.4405 44.19 9.77188 44.19Z" fill="#3E3126"/> <path d="M3.99844 9.35991C4.32981 9.35991 4.59844 9.09128 4.59844 8.75991C4.59844 8.42854 4.32981 8.15991 3.99844 8.15991C3.66707 8.15991 3.39844 8.42854 3.39844 8.75991C3.39844 9.09128 3.66707 9.35991 3.99844 9.35991Z" fill="#3E3126"/> <path d="M5.19171 23.74H5.08171C5.04487 23.7257 5.01123 23.7042 4.98272 23.6768C4.95422 23.6494 4.93141 23.6166 4.91562 23.5804C4.89982 23.5441 4.89134 23.5051 4.89067 23.4656C4.89 23.426 4.89715 23.3868 4.91171 23.35L6.55171 19.45C6.56746 19.4132 6.59031 19.3799 6.61894 19.352C6.64757 19.3241 6.68142 19.302 6.71857 19.2872C6.75571 19.2723 6.79542 19.2649 6.83542 19.2654C6.87542 19.2659 6.91494 19.2743 6.95171 19.29C6.98848 19.3058 7.02178 19.3286 7.04972 19.3572C7.07766 19.3859 7.09969 19.4197 7.11455 19.4569C7.12941 19.494 7.1368 19.5337 7.13631 19.5737C7.13583 19.6137 7.12746 19.6532 7.11171 19.69L5.47171 23.55C5.44957 23.6062 5.411 23.6544 5.36105 23.6883C5.31109 23.7222 5.25208 23.7402 5.19171 23.74Z" fill="#3E3126"/> <path d="M7.37921 21.86H7.26921C7.23237 21.8457 7.19873 21.8242 7.17022 21.7968C7.14172 21.7694 7.11891 21.7366 7.10312 21.7004C7.08732 21.6641 7.07884 21.6251 7.07817 21.5856C7.0775 21.5461 7.08465 21.5068 7.09921 21.47L7.99921 19.35C8.0134 19.3132 8.03495 19.2797 8.06256 19.2515C8.09016 19.2233 8.12323 19.201 8.15974 19.186C8.19625 19.171 8.23543 19.1637 8.27489 19.1644C8.31434 19.165 8.35324 19.1738 8.38921 19.19C8.42603 19.2042 8.45957 19.2258 8.48777 19.2534C8.51597 19.281 8.53825 19.314 8.55322 19.3506C8.5682 19.3871 8.57557 19.4262 8.57488 19.4657C8.57419 19.5052 8.56545 19.5441 8.54921 19.58L7.66921 21.67C7.64648 21.7278 7.60637 21.7771 7.55443 21.8112C7.50249 21.8452 7.44126 21.8623 7.37921 21.86Z" fill="#3E3126"/> <path d="M9.70969 15.5482C10.699 14.1306 10.7226 12.4383 9.76245 11.7682C8.80229 11.0981 7.22196 11.7041 6.23267 13.1217C5.24338 14.5393 5.21976 16.2317 6.17992 16.9017C7.14007 17.5718 8.7204 16.9658 9.70969 15.5482Z" fill="#FFEFAE"/> <path d="M13.8813 11.5858C14.3743 10.8793 14.3849 10.035 13.9048 9.69992C13.4247 9.36489 12.6358 9.66605 12.1428 10.3726C11.6497 11.0791 11.6392 11.9235 12.1193 12.2585C12.5993 12.5935 13.3882 12.2924 13.8813 11.5858Z" fill="#FFEFAE"/> </g> <defs> <clipPath id="clip0"> <rect width="38.44" height="65.46" fill="white"/> </clipPath> </defs> </svg> 