<svg width="1603" height="860" viewBox="0 0 1603 860" fill="none" xmlns="http://www.w3.org/2000/svg"> <g clip-path="url(#clip0)"> <g opacity="0.3"> <path opacity="0.3" d="M359.872 297.317V779.487C359.872 784.293 358.922 789.052 357.075 793.49C355.229 797.927 352.524 801.955 349.115 805.341C345.706 808.727 341.661 811.405 337.213 813.22C332.765 815.035 328.002 815.952 323.199 815.917H260.34C272.585 815.917 284.329 811.05 292.988 802.386C301.647 793.723 306.511 781.972 306.511 769.72C306.511 757.467 301.647 745.717 292.988 737.053C284.329 728.389 272.585 723.522 260.34 723.522H46.1713C33.9259 723.522 22.182 718.655 13.5232 709.991C4.86446 701.327 0 689.577 0 677.325C0 665.072 4.86446 653.322 13.5232 644.658C22.182 635.994 33.9259 631.127 46.1713 631.127H163.182C175.428 631.127 187.172 626.26 195.83 617.596C204.489 608.932 209.354 597.182 209.354 584.93C209.354 572.677 204.489 560.927 195.83 552.263C187.172 543.599 175.428 538.732 163.182 538.732H46.1713C33.9259 538.732 22.182 533.865 13.5232 525.201C4.86446 516.537 0 504.787 0 492.535C0 480.282 4.86446 468.532 13.5232 459.868C22.182 451.204 33.9259 446.337 46.1713 446.337H196.887C209.133 446.337 220.877 441.47 229.535 432.806C238.194 424.142 243.059 412.392 243.059 400.14C243.059 387.887 238.194 376.137 229.535 367.473C220.877 358.809 209.133 353.942 196.887 353.942H109.69C97.4443 353.942 85.7005 349.075 77.0417 340.411C68.3829 331.747 63.5185 319.997 63.5185 307.744C63.5185 295.492 68.3829 283.742 77.0417 275.078C85.7005 266.414 97.4443 261.547 109.69 261.547H323.199C332.788 261.476 342.017 265.192 348.884 271.89C355.75 278.587 359.699 287.724 359.872 297.317Z" fill="#BDDFE9"/> <path opacity="0.3" d="M1243.13 98.9967V581.365C1243.13 586.155 1244.07 590.897 1245.91 595.321C1247.74 599.746 1250.43 603.765 1253.82 607.148C1257.2 610.532 1261.23 613.214 1265.65 615.041C1270.08 616.868 1274.82 617.804 1279.6 617.795H1342.66C1330.42 617.795 1318.67 612.928 1310.01 604.264C1301.35 595.6 1296.49 583.85 1296.49 571.598C1296.49 559.345 1301.35 547.595 1310.01 538.931C1318.67 530.267 1330.42 525.4 1342.66 525.4H1556.63C1568.88 525.4 1580.62 520.533 1589.28 511.869C1597.94 503.205 1602.8 491.455 1602.8 479.202C1602.8 466.95 1597.94 455.2 1589.28 446.536C1580.62 437.872 1568.88 433.005 1556.63 433.005H1439.82C1427.57 433.005 1415.83 428.138 1407.17 419.474C1398.51 410.81 1393.65 399.06 1393.65 386.807C1393.65 374.555 1398.51 362.804 1407.17 354.141C1415.83 345.477 1427.57 340.61 1439.82 340.61H1556.63C1568.88 340.61 1580.62 335.743 1589.28 327.079C1597.94 318.415 1602.8 306.665 1602.8 294.412C1602.8 282.16 1597.94 270.409 1589.28 261.746C1580.62 253.082 1568.88 248.215 1556.63 248.215H1406.05C1393.8 248.215 1382.06 243.348 1373.4 234.684C1364.74 226.02 1359.88 214.27 1359.88 202.017C1359.88 189.765 1364.74 178.014 1373.4 169.351C1382.06 160.687 1393.8 155.82 1406.05 155.82H1493.31C1505.56 155.82 1517.3 150.952 1525.96 142.289C1534.62 133.625 1539.48 121.875 1539.48 109.622C1539.48 97.3698 1534.62 85.6193 1525.96 76.9556C1517.3 68.2919 1505.56 63.4246 1493.31 63.4246H1279.6C1270.08 63.4047 1260.93 67.1173 1254.12 73.7666C1247.3 80.4159 1243.35 89.4729 1243.13 98.9967Z" fill="#BDDFE9"/> </g> <path d="M1263.84 789.384C1263.85 798.38 1262.08 807.29 1258.65 815.604C1255.22 823.919 1250.18 831.476 1243.83 837.843C1237.48 844.21 1229.94 849.264 1221.63 852.714C1213.33 856.165 1204.43 857.945 1195.44 857.954H296.221C289.138 857.954 282.125 856.557 275.583 853.843C269.041 851.13 263.097 847.152 258.092 842.138C253.087 837.124 249.119 831.173 246.415 824.623C243.711 818.074 242.323 811.055 242.332 803.969V90.2172C242.332 75.917 248.01 62.2024 258.116 52.0906C268.222 41.9788 281.928 36.2981 296.221 36.2981H972.432C954.65 36.8505 937.781 44.3066 925.398 57.0871C913.016 69.8677 906.091 86.9691 906.091 104.769C906.091 122.57 913.016 139.671 925.398 152.452C937.781 165.232 954.65 172.688 972.432 173.241H1101.51C1119.29 173.793 1136.16 181.249 1148.55 194.03C1160.93 206.81 1167.85 223.912 1167.85 241.712C1167.85 259.512 1160.93 276.614 1148.55 289.394C1136.16 302.175 1119.29 309.631 1101.51 310.183H878.506C869.524 310.183 860.629 311.954 852.331 315.393C844.032 318.832 836.492 323.874 830.14 330.229C823.789 336.584 818.751 344.128 815.313 352.432C811.876 360.735 810.107 369.634 810.107 378.622C810.107 387.609 811.876 396.509 815.313 404.812C818.751 413.115 823.789 420.66 830.14 427.015C836.492 433.37 844.032 438.411 852.331 441.851C860.629 445.29 869.524 447.06 878.506 447.06H1051.58C1069.36 447.613 1086.23 455.069 1098.62 467.849C1111 480.63 1117.92 497.731 1117.92 515.531C1117.92 533.332 1111 550.433 1098.62 563.214C1086.23 575.994 1069.36 583.45 1051.58 584.003H878.506C869.341 583.718 860.211 585.278 851.66 588.591C843.109 591.904 835.31 596.902 828.726 603.288C822.142 609.675 816.907 617.319 813.333 625.768C809.758 634.218 807.916 643.299 807.916 652.474C807.916 661.649 809.758 670.731 813.333 679.18C816.907 687.629 822.142 695.274 828.726 701.66C835.31 708.046 843.109 713.044 851.66 716.357C860.211 719.67 869.341 721.23 878.506 720.945H1195.44C1213.58 720.945 1230.98 728.156 1243.8 740.991C1256.63 753.825 1263.84 771.233 1263.84 789.384Z" fill="#E0F0F5"/> <path d="M523.055 279.429C523.019 313.802 515.294 347.731 500.448 378.729C485.601 409.726 464.009 437.006 437.254 458.567C410.5 480.129 379.261 495.425 345.83 503.335C312.398 511.245 277.621 511.567 244.048 504.279L242.07 503.817V465.011C195.568 462.678 150.893 446.166 114.043 417.692L112.131 416.306C109.03 413.996 105.93 411.62 102.962 409.112L102.105 407.924C78.8203 373.283 65.392 332.957 63.2581 291.265C61.1242 249.573 70.365 208.085 89.991 171.245C109.617 134.405 138.889 103.601 174.671 82.1312C210.454 60.6615 251.399 49.3352 293.122 49.3653H295.958C305.069 49.49 314.165 50.1511 323.199 51.3452C366.158 56.9892 406.638 74.7008 439.946 102.426C441.661 103.746 443.31 105.198 444.893 106.65C469.204 128 488.736 154.245 502.212 183.668C503.531 186.506 504.784 189.41 505.905 192.314C517.255 219.952 523.081 249.548 523.055 279.429Z" fill="#BDDFE9"/> <path d="M618.961 678.247L579.056 609.082L545.351 667.489L523.716 630.003L455.976 512.662L388.302 630.003L320.562 747.345H455.976H499.245L499.179 747.411H579.056H658.866L618.961 678.247Z" fill="#A8FF8C"/> <path d="M1342.73 90.2186V803.904C1342.74 810.996 1341.36 818.022 1338.66 824.579C1335.96 831.136 1332 837.096 1326.99 842.116C1321.98 847.137 1316.04 851.121 1309.49 853.839C1302.94 856.557 1295.93 857.956 1288.84 857.956H1195.44C1213.22 857.403 1230.09 849.947 1242.47 837.167C1254.86 824.386 1261.78 807.285 1261.78 789.484C1261.78 771.684 1254.86 754.583 1242.47 741.802C1230.09 729.021 1213.22 721.565 1195.44 721.013H878.508C869.343 721.298 860.214 719.737 851.662 716.424C843.111 713.112 835.312 708.114 828.728 701.727C822.144 695.341 816.91 687.696 813.335 679.247C809.76 670.798 807.918 661.717 807.918 652.542C807.918 643.367 809.76 634.285 813.335 625.836C816.91 617.387 822.144 609.742 828.728 603.356C835.312 596.969 843.111 591.972 851.662 588.659C860.214 585.346 869.343 583.785 878.508 584.07H1051.58C1069.37 583.518 1086.23 576.062 1098.62 563.281C1111 550.501 1117.92 533.399 1117.92 515.599C1117.92 497.799 1111 480.697 1098.62 467.917C1086.23 455.136 1069.37 447.68 1051.58 447.128H878.508C869.526 447.128 860.631 445.357 852.333 441.918C844.034 438.479 836.494 433.438 830.142 427.082C823.791 420.727 818.753 413.183 815.315 404.879C811.878 396.576 810.109 387.677 810.109 378.689C810.109 369.702 811.878 360.802 815.315 352.499C818.753 344.196 823.791 336.651 830.142 330.296C836.494 323.941 844.034 318.9 852.333 315.46C860.631 312.021 869.526 310.251 878.508 310.251H1101.52C1119.3 309.698 1136.17 302.242 1148.55 289.462C1160.93 276.681 1167.86 259.58 1167.86 241.779C1167.86 223.979 1160.93 206.878 1148.55 194.097C1136.17 181.317 1119.3 173.861 1101.52 173.308H972.434C954.652 172.756 937.784 165.3 925.401 152.519C913.018 139.739 906.093 122.637 906.093 104.837C906.093 87.0365 913.018 69.9351 925.401 57.1545C937.784 44.374 954.652 36.9179 972.434 36.3655H1289.04C1303.28 36.4178 1316.93 42.1126 1326.99 52.2045C1337.05 62.2963 1342.71 75.964 1342.73 90.2186Z" fill="#BDDFE9"/> <path d="M507.355 34.8477H634.92C634.92 38.6984 633.391 42.3914 630.67 45.1143C627.949 47.8372 624.258 49.3669 620.409 49.3669H521.866C518.018 49.3669 514.327 47.8372 511.606 45.1143C508.884 42.3914 507.355 38.6984 507.355 34.8477Z" fill="white"/> <path d="M507.355 125.393H634.92C634.92 129.244 633.391 132.937 630.67 135.66C627.949 138.383 624.258 139.913 620.409 139.913H521.866C518.018 139.913 514.327 138.383 511.606 135.66C508.884 132.937 507.355 129.244 507.355 125.393Z" fill="white"/> <path opacity="0.7" d="M649.102 125.393H776.6C776.6 129.244 775.071 132.937 772.35 135.66C769.629 138.383 765.938 139.913 762.089 139.913H663.613C659.764 139.913 656.073 138.383 653.352 135.66C650.63 132.937 649.102 129.244 649.102 125.393Z" fill="white"/> <path d="M359.871 34.8477H487.37C487.37 38.6984 485.841 42.3914 483.12 45.1143C480.398 47.8372 476.707 49.3669 472.859 49.3669H374.382C370.533 49.3669 366.843 47.8372 364.121 45.1143C361.4 42.3914 359.871 38.6984 359.871 34.8477Z" fill="white"/> <path d="M165.359 242.011L135.215 226.237L101.312 229.273L117.011 199.113L113.977 165.191L144.186 180.898L178.089 177.862L162.325 208.088L165.359 242.011Z" fill="#EEF0F1"/> <path d="M143.462 303.784C149.764 303.784 154.873 298.672 154.873 292.366C154.873 286.06 149.764 280.949 143.462 280.949C137.16 280.949 132.051 286.06 132.051 292.366C132.051 298.672 137.16 303.784 143.462 303.784Z" fill="#EEF0F1"/> <path d="M748.04 38.4764H692.569C690.819 38.4764 689.142 37.7811 687.905 36.5434C686.668 35.3057 685.973 33.6271 685.973 31.8767C685.973 30.1264 686.668 28.4478 687.905 27.2101C689.142 25.9724 690.819 25.2771 692.569 25.2771H747.842C749.591 25.2771 751.269 25.9724 752.506 27.2101C753.743 28.4478 754.438 30.1264 754.438 31.8767C754.438 33.6271 753.743 35.3057 752.506 36.5434C751.269 37.7811 749.591 38.4764 747.842 38.4764H748.04Z" fill="#183154"/> <path d="M702.2 860H297.74C281.738 859.931 266.414 853.526 255.118 842.186C243.821 830.846 237.47 815.493 237.453 799.482V85.7959C237.471 69.7507 243.849 54.3676 255.188 43.0219C266.527 31.6762 281.901 25.2946 297.937 25.2771H640.264C642.014 25.2771 643.691 25.9724 644.928 27.2101C646.165 28.4478 646.86 30.1264 646.86 31.8767C646.86 33.6271 646.165 35.3057 644.928 36.5434C643.691 37.7811 642.014 38.4764 640.264 38.4764H297.74C285.237 38.5461 273.268 43.5602 264.446 52.4249C255.623 61.2896 250.662 73.2855 250.645 85.7959V799.482C250.662 812.026 255.651 824.052 264.516 832.922C273.381 841.793 285.4 846.784 297.937 846.801H702.398C704.147 846.801 705.825 847.496 707.062 848.734C708.299 849.972 708.994 851.65 708.994 853.401C708.994 855.151 708.299 856.83 707.062 858.067C705.825 859.305 704.147 860 702.398 860H702.2Z" fill="#183154"/> <path d="M812.022 860H739.467C737.718 860 736.04 859.305 734.803 858.067C733.566 856.83 732.871 855.151 732.871 853.401C732.871 851.65 733.566 849.972 734.803 848.734C736.04 847.496 737.718 846.801 739.467 846.801H812.022C813.771 846.801 815.449 847.496 816.686 848.734C817.923 849.972 818.618 851.65 818.618 853.401C818.618 855.151 817.923 856.83 816.686 858.067C815.449 859.305 813.771 860 812.022 860Z" fill="#183154"/> <path d="M845.262 860H839.854C838.104 860 836.427 859.305 835.19 858.067C833.953 856.83 833.258 855.151 833.258 853.401C833.258 851.65 833.953 849.972 835.19 848.734C836.427 847.496 838.104 846.801 839.854 846.801H845.262C847.012 846.801 848.689 847.496 849.926 848.734C851.163 849.972 851.858 851.65 851.858 853.401C851.858 855.151 851.163 856.83 849.926 858.067C848.689 859.305 847.012 860 845.262 860Z" fill="#183154"/> <path d="M1290.35 860H876.592C874.843 860 873.165 859.305 871.928 858.067C870.691 856.829 869.996 855.151 869.996 853.4C869.996 851.65 870.691 849.971 871.928 848.734C873.165 847.496 874.843 846.801 876.592 846.801H1290.35C1302.9 846.801 1314.92 841.815 1323.79 832.941C1332.66 824.067 1337.65 812.031 1337.65 799.481V420.86C1337.65 419.109 1338.34 417.431 1339.58 416.193C1340.81 414.955 1342.49 414.26 1344.24 414.26C1345.99 414.26 1347.67 414.955 1348.91 416.193C1350.14 417.431 1350.84 419.109 1350.84 420.86V799.481C1350.82 815.527 1344.44 830.91 1333.1 842.255C1321.76 853.601 1306.39 859.983 1290.35 860Z" fill="#183154"/> <path d="M1344.24 391.953C1342.49 391.953 1340.82 391.258 1339.58 390.02C1338.34 388.783 1337.65 387.104 1337.65 385.354V374.926C1337.65 373.176 1338.34 371.497 1339.58 370.26C1340.82 369.022 1342.49 368.327 1344.24 368.327C1345.99 368.327 1347.67 369.022 1348.91 370.26C1350.15 371.497 1350.84 373.176 1350.84 374.926V385.354C1350.84 387.104 1350.15 388.783 1348.91 390.02C1347.67 391.258 1345.99 391.953 1344.24 391.953Z" fill="#183154"/> <path d="M1344.24 346.878C1342.49 346.878 1340.82 346.183 1339.58 344.945C1338.34 343.708 1337.65 342.029 1337.65 340.279V284.71C1337.65 282.959 1338.34 281.281 1339.58 280.043C1340.82 278.805 1342.49 278.11 1344.24 278.11C1345.99 278.11 1347.67 278.805 1348.91 280.043C1350.15 281.281 1350.84 282.959 1350.84 284.71V340.279C1350.84 342.029 1350.15 343.708 1348.91 344.945C1347.67 346.183 1345.99 346.878 1344.24 346.878Z" fill="#183154"/> <path d="M1344.24 239.832C1342.49 239.832 1340.81 239.136 1339.58 237.899C1338.34 236.661 1337.65 234.982 1337.65 233.232V85.7959C1337.65 73.246 1332.66 61.2101 1323.79 52.3359C1314.92 43.4618 1302.9 38.4764 1290.35 38.4764H822.506C820.757 38.4764 819.079 37.7811 817.842 36.5434C816.605 35.3057 815.91 33.6271 815.91 31.8767C815.91 30.1264 816.605 28.4478 817.842 27.2101C819.079 25.9724 820.757 25.2771 822.506 25.2771H1290.35C1306.39 25.2946 1321.76 31.6762 1333.1 43.0219C1344.44 54.3676 1350.82 69.7507 1350.84 85.7959V233.232C1350.84 234.982 1350.14 236.661 1348.91 237.899C1347.67 239.136 1345.99 239.832 1344.24 239.832Z" fill="#183154"/> <path d="M784.913 38.4764H776.932C775.183 38.4764 773.505 37.7811 772.268 36.5434C771.031 35.3057 770.336 33.6271 770.336 31.8767C770.336 30.1264 771.031 28.4478 772.268 27.2101C773.505 25.9724 775.183 25.2771 776.932 25.2771H784.913C786.662 25.2771 788.34 25.9724 789.577 27.2101C790.814 28.4478 791.509 30.1264 791.509 31.8767C791.509 33.6271 790.814 35.3057 789.577 36.5434C788.34 37.7811 786.662 38.4764 784.913 38.4764Z" fill="#183154"/> <path d="M474.839 93.3185C482.561 93.3185 488.822 87.0544 488.822 79.3272C488.822 71.6 482.561 65.3359 474.839 65.3359C467.116 65.3359 460.855 71.6 460.855 79.3272C460.855 87.0544 467.116 93.3185 474.839 93.3185Z" fill="#8BBBC6"/> <path d="M515.073 93.3185C522.796 93.3185 529.056 87.0544 529.056 79.3272C529.056 71.6 522.796 65.3359 515.073 65.3359C507.35 65.3359 501.09 71.6 501.09 79.3272C501.09 87.0544 507.35 93.3185 515.073 93.3185Z" fill="#8BBBC6"/> <path d="M557.155 93.3185C564.878 93.3185 571.138 87.0544 571.138 79.3272C571.138 71.6 564.878 65.3359 557.155 65.3359C549.432 65.3359 543.172 71.6 543.172 79.3272C543.172 87.0544 549.432 93.3185 557.155 93.3185Z" fill="#8BBBC6"/> <path d="M475.762 96.5536C472.346 96.5536 469.008 95.5411 466.168 93.644C463.327 91.747 461.112 89.0504 459.802 85.8947C458.492 82.739 458.146 79.2657 458.808 75.9134C459.469 72.5611 461.109 69.48 463.519 67.0592C465.929 64.6384 469.002 62.9864 472.35 62.3118C475.698 61.6372 479.17 61.9702 482.329 63.2688C485.488 64.5674 488.192 66.7734 490.098 69.6082C492.005 72.443 493.03 75.7795 493.043 79.1965C493.052 81.4728 492.611 83.7283 491.746 85.8338C490.882 87.9393 489.61 89.8532 488.005 91.4658C486.399 93.0785 484.491 94.358 482.39 95.2311C480.289 96.1042 478.037 96.5536 475.762 96.5536ZM475.762 68.6371C473.643 68.6372 471.572 69.2678 469.812 70.4485C468.052 71.6292 466.682 73.3069 465.878 75.2682C465.073 77.2295 464.869 79.3859 465.292 81.4633C465.715 83.5408 466.746 85.4455 468.254 86.9353C469.761 88.4251 471.678 89.4328 473.759 89.8303C475.84 90.2278 477.993 89.9972 479.943 89.1677C481.893 88.3382 483.553 86.9474 484.711 85.1719C485.869 83.3964 486.473 81.3165 486.447 79.1965C486.395 76.3893 485.249 73.7135 483.252 71.7406C481.256 69.7676 478.568 68.6538 475.762 68.6371Z" fill="#183154"/> <path d="M515.996 96.5536C512.581 96.5536 509.242 95.5411 506.402 93.644C503.561 91.747 501.346 89.0504 500.037 85.8947C498.727 82.739 498.381 79.2657 499.042 75.9134C499.704 72.5611 501.343 69.48 503.753 67.0592C506.163 64.6384 509.236 62.9864 512.584 62.3118C515.932 61.6372 519.405 61.9702 522.564 63.2688C525.722 64.5674 528.426 66.7734 530.333 69.6082C532.24 72.443 533.264 75.7795 533.277 79.1965C533.286 81.4728 532.845 83.7283 531.981 85.8338C531.116 87.9393 529.845 89.8532 528.239 91.4658C526.633 93.0785 524.725 94.358 522.624 95.2311C520.524 96.1042 518.271 96.5536 515.996 96.5536ZM515.996 68.6371C513.877 68.6372 511.806 69.2678 510.046 70.4485C508.286 71.6292 506.917 73.3069 506.112 75.2682C505.307 77.2295 505.103 79.3859 505.527 81.4633C505.95 83.5408 506.981 85.4455 508.488 86.9353C509.996 88.4251 511.912 89.4328 513.993 89.8303C516.075 90.2278 518.227 89.9972 520.177 89.1677C522.127 88.3382 523.787 86.9474 524.945 85.1719C526.103 83.3964 526.707 81.3165 526.681 79.1965C526.63 76.3893 525.483 73.7135 523.487 71.7406C521.49 69.7676 518.802 68.6538 515.996 68.6371Z" fill="#183154"/> <path d="M558.078 96.5536C554.663 96.5536 551.324 95.5411 548.484 93.644C545.644 91.747 543.429 89.0504 542.119 85.8947C540.809 82.739 540.463 79.2657 541.124 75.9134C541.786 72.5611 543.425 69.48 545.835 67.0592C548.245 64.6384 551.318 62.9864 554.666 62.3118C558.014 61.6372 561.487 61.9702 564.646 63.2688C567.805 64.5674 570.508 66.7734 572.415 69.6082C574.322 72.443 575.346 75.7795 575.359 79.1965C575.377 81.4752 574.942 83.7347 574.081 85.8441C573.219 87.9536 571.948 89.871 570.341 91.4854C568.733 93.0998 566.822 94.379 564.717 95.249C562.612 96.119 560.355 96.5624 558.078 96.5536ZM558.078 68.6371C555.959 68.6372 553.888 69.2678 552.128 70.4485C550.368 71.6292 548.999 73.3069 548.194 75.2682C547.389 77.2295 547.186 79.3859 547.609 81.4633C548.032 83.5408 549.063 85.4455 550.57 86.9353C552.078 88.4251 553.994 89.4328 556.075 89.8304C558.157 90.2279 560.309 89.9972 562.259 89.1677C564.209 88.3382 565.869 86.9474 567.027 85.1719C568.185 83.3964 568.79 81.3165 568.763 79.1965C568.729 76.3839 567.588 73.6983 565.587 71.7217C563.587 69.7452 560.889 68.6369 558.078 68.6371Z" fill="#183154"/> <path d="M1193.86 273.16H794.079C790.58 273.16 787.224 271.77 784.75 269.294C782.277 266.819 780.887 263.462 780.887 259.961C780.887 256.46 782.277 253.103 784.75 250.628C787.224 248.152 790.58 246.762 794.079 246.762H1193.86C1197.35 246.762 1200.71 248.152 1203.18 250.628C1205.66 253.103 1207.05 256.46 1207.05 259.961C1207.05 263.462 1205.66 266.819 1203.18 269.294C1200.71 271.77 1197.35 273.16 1193.86 273.16Z" fill="#8BBBC6"/> <path d="M930.02 335.857H794.079C790.58 335.857 787.224 334.466 784.75 331.991C782.277 329.515 780.887 326.158 780.887 322.657C780.887 319.157 782.277 315.8 784.75 313.324C787.224 310.849 790.58 309.458 794.079 309.458H930.02C933.519 309.458 936.874 310.849 939.348 313.324C941.822 315.8 943.212 319.157 943.212 322.657C943.212 326.158 941.822 329.515 939.348 331.991C936.874 334.466 933.519 335.857 930.02 335.857Z" fill="#8BBBC6"/> <path d="M930.02 478.542H794.079C790.58 478.542 787.224 477.151 784.75 474.676C782.277 472.201 780.887 468.843 780.887 465.343C780.887 461.842 782.277 458.485 784.75 456.009C787.224 453.534 790.58 452.143 794.079 452.143H930.02C933.519 452.143 936.874 453.534 939.348 456.009C941.822 458.485 943.212 461.842 943.212 465.343C943.212 468.843 941.822 472.201 939.348 474.676C936.874 477.151 933.519 478.542 930.02 478.542Z" fill="#389D9C"/> <path d="M1111.67 398.553H1035.03C1031.53 398.553 1028.17 397.163 1025.7 394.687C1023.23 392.212 1021.84 388.855 1021.84 385.354C1021.84 381.853 1023.23 378.496 1025.7 376.021C1028.17 373.545 1031.53 372.155 1035.03 372.155H1111.67C1115.17 372.155 1118.53 373.545 1121 376.021C1123.47 378.496 1124.86 381.853 1124.86 385.354C1124.86 388.855 1123.47 392.212 1121 394.687C1118.53 397.163 1115.17 398.553 1111.67 398.553Z" fill="#8BBBC6"/> <path opacity="0.8" d="M1232.18 398.553H1155.54C1152.04 398.553 1148.68 397.163 1146.21 394.687C1143.73 392.212 1142.34 388.855 1142.34 385.354C1142.34 381.853 1143.73 378.496 1146.21 376.021C1148.68 373.545 1152.04 372.155 1155.54 372.155H1232.18C1235.68 372.155 1239.03 373.545 1241.51 376.021C1243.98 378.496 1245.37 381.853 1245.37 385.354C1245.37 388.855 1243.98 392.212 1241.51 394.687C1239.03 397.163 1235.68 398.553 1232.18 398.553Z" fill="#8BBBC6"/> <path d="M870.657 398.553H794.078C790.58 398.553 787.224 397.163 784.75 394.687C782.277 392.212 780.887 388.855 780.887 385.354C780.887 381.853 782.277 378.496 784.75 376.021C787.224 373.545 790.58 372.155 794.078 372.155H870.657C874.155 372.155 877.511 373.545 879.985 376.021C882.459 378.496 883.849 381.853 883.849 385.354C883.849 388.855 882.459 392.212 879.985 394.687C877.511 397.163 874.155 398.553 870.657 398.553Z" fill="#8BBBC6"/> <path opacity="0.3" d="M991.165 398.553H914.586C911.088 398.553 907.732 397.163 905.258 394.687C902.784 392.212 901.395 388.855 901.395 385.354C901.395 381.853 902.784 378.496 905.258 376.021C907.732 373.545 911.088 372.155 914.586 372.155H991.165C994.663 372.155 998.019 373.545 1000.49 376.021C1002.97 378.496 1004.36 381.853 1004.36 385.354C1004.36 388.855 1002.97 392.212 1000.49 394.687C998.019 397.163 994.663 398.553 991.165 398.553Z" fill="#8BBBC6"/> <path d="M1193.86 548.431H794.079C790.58 548.431 787.224 547.041 784.75 544.565C782.277 542.09 780.887 538.733 780.887 535.232C780.887 531.731 782.277 528.374 784.75 525.899C787.224 523.423 790.58 522.033 794.079 522.033H1193.86C1197.35 522.033 1200.71 523.423 1203.18 525.899C1205.66 528.374 1207.05 531.731 1207.05 535.232C1207.05 538.733 1205.66 542.09 1203.18 544.565C1200.71 547.041 1197.35 548.431 1193.86 548.431Z" fill="#8BBBC6"/> <path d="M930.02 611.128H794.079C790.58 611.128 787.224 609.737 784.75 607.262C782.277 604.786 780.887 601.429 780.887 597.929C780.887 594.428 782.277 591.071 784.75 588.595C787.224 586.12 790.58 584.729 794.079 584.729H930.02C933.519 584.729 936.874 586.12 939.348 588.595C941.822 591.071 943.212 594.428 943.212 597.929C943.212 601.429 941.822 604.786 939.348 607.262C936.874 609.737 933.519 611.128 930.02 611.128Z" fill="#8BBBC6"/> <path d="M930.02 753.813H794.079C790.58 753.813 787.224 752.422 784.75 749.947C782.277 747.472 780.887 744.114 780.887 740.614C780.887 737.113 782.277 733.756 784.75 731.28C787.224 728.805 790.58 727.414 794.079 727.414H930.02C933.519 727.414 936.874 728.805 939.348 731.28C941.822 733.756 943.212 737.113 943.212 740.614C943.212 744.114 941.822 747.472 939.348 749.947C936.874 752.422 933.519 753.813 930.02 753.813Z" fill="#389D9C"/> <path d="M1111.67 673.825H1035.03C1031.53 673.825 1028.17 672.434 1025.7 669.959C1023.23 667.483 1021.84 664.126 1021.84 660.625C1021.84 657.125 1023.23 653.767 1025.7 651.292C1028.17 648.817 1031.53 647.426 1035.03 647.426H1111.67C1115.17 647.426 1118.53 648.817 1121 651.292C1123.47 653.767 1124.86 657.125 1124.86 660.625C1124.86 664.126 1123.47 667.483 1121 669.959C1118.53 672.434 1115.17 673.825 1111.67 673.825Z" fill="#8BBBC6"/> <path opacity="0.8" d="M1232.18 673.825H1155.54C1152.04 673.825 1148.68 672.434 1146.21 669.959C1143.73 667.483 1142.34 664.126 1142.34 660.625C1142.34 657.125 1143.73 653.767 1146.21 651.292C1148.68 648.817 1152.04 647.426 1155.54 647.426H1232.18C1235.68 647.426 1239.03 648.817 1241.51 651.292C1243.98 653.767 1245.37 657.125 1245.37 660.625C1245.37 664.126 1243.98 667.483 1241.51 669.959C1239.03 672.434 1235.68 673.825 1232.18 673.825Z" fill="#8BBBC6"/> <path d="M870.657 673.825H794.078C790.58 673.825 787.224 672.434 784.75 669.959C782.277 667.483 780.887 664.126 780.887 660.625C780.887 657.125 782.277 653.767 784.75 651.292C787.224 648.817 790.58 647.426 794.078 647.426H870.657C874.155 647.426 877.511 648.817 879.985 651.292C882.459 653.767 883.849 657.125 883.849 660.625C883.849 664.126 882.459 667.483 879.985 669.959C877.511 672.434 874.155 673.825 870.657 673.825Z" fill="#8BBBC6"/> <path opacity="0.3" d="M991.165 673.825H914.586C911.088 673.825 907.732 672.434 905.258 669.959C902.784 667.483 901.395 664.126 901.395 660.625C901.395 657.125 902.784 653.767 905.258 651.292C907.732 648.817 911.088 647.426 914.586 647.426H991.165C994.663 647.426 998.019 648.817 1000.49 651.292C1002.97 653.767 1004.36 657.125 1004.36 660.625C1004.36 664.126 1002.97 667.483 1000.49 669.959C998.019 672.434 994.663 673.825 991.165 673.825Z" fill="#8BBBC6"/> <path d="M489.351 235.343C489.351 265.553 483.403 295.466 471.847 323.375C460.291 351.284 443.353 376.641 422.001 398C400.649 419.358 375.301 436.298 347.404 447.852C319.508 459.407 289.61 465.35 259.418 465.341C256.054 465.341 252.822 465.341 249.326 465.341H247.347C200.846 463.008 156.171 446.496 119.321 418.022L117.474 416.636C114.044 413.93 110.878 411.092 107.449 408.254C64.1805 370.36 36.6733 317.619 30.3515 260.433C24.0296 203.247 39.3519 145.767 73.2969 99.327C107.242 52.887 157.346 20.8586 213.727 9.55768C270.109 -1.74321 328.677 8.50374 377.88 38.2778C383.817 41.8416 389.555 45.6694 395.096 49.6952L395.953 50.2892C417.153 65.964 435.532 85.1347 450.303 106.98C466.115 130.362 477.454 156.477 483.744 183.998C484.404 186.836 484.997 189.74 485.525 192.644C488.125 206.727 489.406 221.022 489.351 235.343Z" fill="#A8FF8C"/> <path d="M491.657 238.645C491.622 299.639 467.382 358.123 424.265 401.239C381.148 444.356 322.684 468.577 261.725 468.577C259.812 468.577 257.833 468.577 255.92 468.577C255.261 468.577 254.601 468.577 253.941 468.577C207.771 467.116 163.13 451.675 125.915 424.293L124.068 422.907C120.968 420.597 117.868 418.221 114.9 415.714C96.0342 400.012 79.7815 381.411 66.75 360.607C67.9373 361.399 69.1905 362.124 70.4437 362.85C77.5047 367.176 84.8171 371.077 92.3421 374.532C122.433 388.416 155.177 395.599 188.312 395.585C210.441 395.602 232.456 392.423 253.678 386.147L255.656 385.553C297.299 372.83 334.478 348.544 362.874 315.518C391.269 282.491 409.715 242.081 416.069 198.981C416.53 196.077 416.86 193.24 417.19 190.336C418.064 182.093 418.504 173.81 418.509 165.521C418.515 151.127 417.168 136.765 414.486 122.623C411.551 106.962 406.975 91.6545 400.832 76.9537C397.865 69.785 394.518 62.7795 390.806 55.9669C388.696 52.0731 386.519 48.2453 384.21 44.5495L383.551 43.4935C389.724 47.3335 395.691 51.4971 401.426 55.9669L402.217 56.5608C421.359 71.4486 438.033 89.267 451.62 109.358C468.444 133.914 480.277 161.541 486.447 190.666C487.106 193.504 487.7 196.407 488.162 199.311C490.447 212.299 491.616 225.458 491.657 238.645Z" fill="#389D9C"/> <path d="M259.483 316.058C254.429 316.065 249.539 314.262 245.697 310.977L192.007 264.779C189.744 263.193 187.839 261.15 186.413 258.783C184.988 256.416 184.073 253.776 183.729 251.033C183.384 248.291 183.617 245.507 184.413 242.86C185.209 240.213 186.55 237.763 188.35 235.666C190.149 233.569 192.368 231.872 194.862 230.685C197.357 229.498 200.072 228.846 202.834 228.773C205.595 228.699 208.341 229.204 210.896 230.257C213.45 231.309 215.756 232.885 217.665 234.883L255.723 267.551L310.007 187.827C311.467 185.66 313.339 183.803 315.516 182.36C317.693 180.917 320.133 179.917 322.696 179.418C325.259 178.918 327.896 178.929 330.455 179.449C333.014 179.969 335.446 180.988 337.611 182.448C339.777 183.909 341.633 185.782 343.075 187.96C344.518 190.138 345.517 192.579 346.016 195.144C346.515 197.709 346.504 200.347 345.985 202.907C345.465 205.468 344.446 207.901 342.987 210.068L277.028 306.819C275.339 309.286 273.151 311.372 270.606 312.941C268.061 314.509 265.215 315.526 262.253 315.926C261.334 316.035 260.408 316.079 259.483 316.058Z" fill="white"/> <g opacity="0.15"> <path opacity="0.15" d="M171.161 147.701C194.329 147.701 213.111 128.909 213.111 105.727C213.111 82.5458 194.329 63.7535 171.161 63.7535C147.993 63.7535 129.211 82.5458 129.211 105.727C129.211 128.909 147.993 147.701 171.161 147.701Z" fill="white"/> <path opacity="0.15" d="M122.815 188.684C134.399 188.684 143.79 179.288 143.79 167.697C143.79 156.106 134.399 146.71 122.815 146.71C111.231 146.71 101.84 156.106 101.84 167.697C101.84 179.288 111.231 188.684 122.815 188.684Z" fill="white"/> </g> <path d="M31.7912 275.933C30.1907 275.949 28.639 275.382 27.4255 274.338C26.2119 273.293 25.4193 271.843 25.1953 270.258C23.6671 259.125 22.8958 247.902 22.8867 236.665C22.8867 234.915 23.5816 233.236 24.8186 231.999C26.0556 230.761 27.7333 230.066 29.4826 230.066C31.232 230.066 32.9096 230.761 34.1466 231.999C35.3836 233.236 36.0785 234.915 36.0785 236.665C36.0766 247.284 36.8039 257.891 38.2552 268.41C38.5071 270.094 38.0986 271.81 37.1153 273.2C36.1319 274.59 34.6497 275.545 32.9784 275.867L31.7912 275.933Z" fill="#183154"/> <path d="M44.1259 324.24C42.7894 324.231 41.4873 323.816 40.3918 323.05C39.2964 322.284 38.4594 321.203 37.9917 319.951C35.0252 312.037 32.4713 303.974 30.3404 295.796C30.1224 294.955 30.0723 294.08 30.1931 293.22C30.3139 292.359 30.6032 291.532 31.0444 290.784C31.4856 290.036 32.07 289.382 32.7641 288.861C33.4583 288.339 34.2485 287.96 35.0895 287.744C35.9297 287.526 36.8047 287.476 37.6644 287.597C38.524 287.718 39.3513 288.007 40.0989 288.449C40.8465 288.89 41.4996 289.475 42.0209 290.169C42.5421 290.864 42.9213 291.655 43.1365 292.496C45.143 300.225 47.5427 307.847 50.326 315.331C50.9268 316.959 50.8622 318.759 50.1462 320.34C49.4301 321.921 48.1203 323.157 46.5004 323.778C45.7479 324.09 44.9403 324.247 44.1259 324.24Z" fill="#183154"/> <path d="M104.741 222.277C107.366 222.277 109.882 221.234 111.738 219.378C113.593 217.521 114.635 215.003 114.635 212.378C114.635 209.752 113.593 207.234 111.738 205.378C109.882 203.521 107.366 202.478 104.741 202.478C102.117 202.478 99.601 203.521 97.7455 205.378C95.89 207.234 94.8477 209.752 94.8477 212.378C94.8477 215.003 95.89 217.521 97.7455 219.378C99.601 221.234 102.117 222.277 104.741 222.277Z" fill="#FDFEFF"/> <path d="M123.805 293.422C118.001 279.23 114.569 264.18 113.647 248.874C112.988 239.37 98.1469 239.304 98.8065 248.874C99.9726 266.786 104.096 284.381 111.009 300.945C114.703 309.723 127.499 302.133 123.805 293.422Z" fill="#FDFEFF"/> <path d="M1344.24 125.922H462.108C460.358 125.922 458.681 125.226 457.444 123.989C456.207 122.751 455.512 121.072 455.512 119.322C455.512 117.572 456.207 115.893 457.444 114.655C458.681 113.418 460.358 112.722 462.108 112.722H1344.24C1345.99 112.722 1347.67 113.418 1348.91 114.655C1350.14 115.893 1350.84 117.572 1350.84 119.322C1350.84 121.072 1350.14 122.751 1348.91 123.989C1347.67 125.226 1345.99 125.922 1344.24 125.922Z" fill="#183154"/> <path d="M669.879 757.178H487.503H308.754L455.579 502.63L544.887 657.458L578.658 598.985L669.879 757.178ZM510.061 743.979H647.057L578.658 625.185L544.887 683.658L455.579 529.029L331.576 743.847H510.127L510.061 743.979Z" fill="#183154"/> <path d="M259.416 473.261C255.92 473.261 252.358 473.261 248.928 473.261H246.686C198.941 470.855 153.082 453.856 115.295 424.556L113.646 423.368C109.821 420.398 106.457 417.494 103.093 414.591C85.6014 399.171 70.487 381.245 58.241 361.397C54.0676 354.61 50.2585 347.604 46.8301 340.411C46.3714 339.628 46.0789 338.759 45.971 337.858C45.8631 336.957 45.9421 336.043 46.203 335.174C46.4639 334.305 46.9011 333.499 47.4873 332.807C48.0735 332.114 48.7961 331.55 49.61 331.15C50.4239 330.75 51.3116 330.521 52.2176 330.48C53.1235 330.438 54.0284 330.584 54.8755 330.908C55.7226 331.232 56.4939 331.727 57.141 332.363C57.7882 332.999 58.2974 333.761 58.6367 334.603C61.9347 341.203 65.2326 347.802 69.454 354.072C81.0972 372.848 95.4814 389.776 112.129 404.295C115.295 407.001 118.725 409.773 121.825 412.479L123.672 413.799C159.419 441.558 202.814 457.682 248.005 459.996H249.654C253.216 459.996 256.25 459.996 259.746 459.996C318.882 459.857 375.554 436.276 417.351 394.418C459.149 352.559 482.666 295.834 482.753 236.664C482.759 222.667 481.434 208.701 478.795 194.954C478.267 192.117 477.74 189.279 477.08 186.573C471.055 160.008 460.164 134.79 444.958 112.195L444.562 111.601C430.336 90.5022 412.627 71.9789 392.191 56.8238L391.202 56.1638C385.397 51.7641 379.725 48.0023 374.184 44.8784C342.962 26.1681 307.643 15.3758 271.3 13.4405C234.958 11.5052 198.693 18.4856 165.663 33.7743C132.632 49.063 103.835 72.1967 81.7796 101.162C59.7238 130.128 45.0767 164.048 39.1129 199.97C38.568 201.371 37.5612 202.545 36.2591 203.295C34.957 204.046 33.4377 204.33 31.9527 204.099C30.4677 203.868 29.106 203.136 28.0931 202.025C27.0802 200.915 26.4768 199.491 26.3828 197.99C32.7258 159.99 48.2399 124.112 71.579 93.4688C94.9181 62.826 125.377 38.3438 160.314 22.1465C195.251 5.94915 233.61 -1.47419 272.063 0.5205C310.516 2.51519 347.903 13.8677 380.978 33.593C386.848 37.1568 392.851 41.1166 398.655 45.3404L399.578 46.0004C421.22 61.9441 439.999 81.4482 455.116 103.681L455.578 104.341C471.891 128.36 483.569 155.221 490.008 183.537C490.668 186.441 491.327 189.411 491.855 192.447C494.596 207.004 495.987 221.784 496.01 236.598C495.941 299.355 470.989 359.521 426.632 403.891C382.275 448.26 322.137 473.209 259.416 473.261Z" fill="#183154"/> <g opacity="0.4"> <path opacity="0.4" d="M230.258 161.297C253.427 161.297 272.208 142.504 272.208 119.323C272.208 96.1413 253.427 77.3491 230.258 77.3491C207.09 77.3491 188.309 96.1413 188.309 119.323C188.309 142.504 207.09 161.297 230.258 161.297Z" fill="white"/> <path opacity="0.4" d="M181.912 202.279C193.497 202.279 202.887 192.883 202.887 181.293C202.887 169.702 193.497 160.306 181.912 160.306C170.328 160.306 160.938 169.702 160.938 181.293C160.938 192.883 170.328 202.279 181.912 202.279Z" fill="white"/> </g> <path d="M535.191 535.231C558.141 535.231 576.745 516.616 576.745 493.654C576.745 470.691 558.141 452.076 535.191 452.076C512.241 452.076 493.637 470.691 493.637 493.654C493.637 516.616 512.241 535.231 535.191 535.231Z" fill="#A8FF8C"/> <path d="M537.498 541.831C527.975 541.831 518.665 539.006 510.747 533.712C502.829 528.418 496.657 520.894 493.013 512.09C489.369 503.287 488.415 493.6 490.273 484.255C492.131 474.909 496.717 466.325 503.45 459.587C510.184 452.849 518.764 448.261 528.104 446.402C537.444 444.543 547.126 445.497 555.924 449.143C564.722 452.79 572.242 458.965 577.533 466.888C582.824 474.81 585.648 484.125 585.648 493.654C585.63 506.426 580.552 518.67 571.526 527.701C562.5 536.732 550.263 541.814 537.498 541.831ZM537.498 458.742C530.581 458.742 523.819 460.795 518.069 464.641C512.319 468.487 507.838 473.954 505.194 480.349C502.55 486.745 501.862 493.781 503.216 500.568C504.57 507.355 507.906 513.587 512.802 518.476C517.698 523.365 523.933 526.692 530.718 528.034C537.504 529.376 544.535 528.674 550.921 526.016C557.308 523.359 562.763 518.865 566.597 513.104C570.43 507.344 572.469 500.574 572.456 493.654C572.438 484.388 568.748 475.508 562.194 468.963C555.64 462.418 546.758 458.741 537.498 458.742Z" fill="#183154"/> </g> <defs> <clipPath id="clip0"> <rect width="1603" height="860" fill="white"/> </clipPath> </defs> </svg> 