<svg width="67" height="49" viewBox="0 0 67 49" fill="none" xmlns="http://www.w3.org/2000/svg"> <g clip-path="url(#clip0)"> <path opacity="0.5" d="M16.5 4.27002V24.94C16.5 25.8258 16.8519 26.6754 17.4783 27.3018C18.1046 27.9281 18.9542 28.28 19.84 28.28L53.59 28.42C54.0295 28.4213 54.4649 28.3359 54.8712 28.1687C55.2776 28.0014 55.647 27.7556 55.9582 27.4453C56.2694 27.135 56.5163 26.7664 56.6848 26.3605C56.8533 25.9546 56.94 25.5195 56.94 25.08V4.41002L16.5 4.27002Z" fill="#9CE5E5"/> <path d="M4.99953 48.3699H2.85953C1.55953 48.3699 0.519531 46.9999 0.519531 45.2199V9.32993C0.519531 7.57993 1.51953 6.17993 2.85953 6.17993H4.99953C3.70953 6.17993 2.65953 7.57993 2.65953 9.32993V45.2199C2.60953 46.9999 3.65953 48.3699 4.99953 48.3699Z" fill="#CFB0FF"/> <path d="M55.0807 48.79H49.6507C49.588 48.7995 49.524 48.7954 49.4631 48.7779C49.4022 48.7604 49.3458 48.73 49.2977 48.6887C49.2497 48.6474 49.2111 48.5962 49.1847 48.5386C49.1582 48.481 49.1445 48.4183 49.1445 48.355C49.1445 48.2916 49.1582 48.229 49.1847 48.1714C49.2111 48.1138 49.2497 48.0626 49.2977 48.0213C49.3458 47.98 49.4022 47.9495 49.4631 47.932C49.524 47.9146 49.588 47.9104 49.6507 47.92H55.0807C55.7994 47.92 56.4887 47.6345 56.9969 47.1262C57.5052 46.618 57.7907 45.9287 57.7907 45.21V9.30997C57.7907 8.95409 57.7206 8.60169 57.5844 8.2729C57.4482 7.94411 57.2486 7.64536 56.9969 7.39371C56.7453 7.14206 56.4465 6.94245 56.1177 6.80626C55.789 6.67007 55.4366 6.59997 55.0807 6.59997C54.964 6.59997 54.8521 6.55361 54.7695 6.4711C54.687 6.38858 54.6407 6.27667 54.6407 6.15997C54.6407 6.04328 54.687 5.93136 54.7695 5.84884C54.8521 5.76633 54.964 5.71997 55.0807 5.71997C55.5521 5.71997 56.019 5.81283 56.4545 5.99324C56.8901 6.17366 57.2858 6.4381 57.6192 6.77146C57.9526 7.10482 58.217 7.50058 58.3974 7.93614C58.5778 8.3717 58.6707 8.83853 58.6707 9.30997V45.21C58.6707 45.6809 58.5777 46.1473 58.3972 46.5823C58.2167 47.0173 57.9521 47.4124 57.6186 47.745C57.2851 48.0775 56.8893 48.341 56.4538 48.5203C56.0183 48.6997 55.5517 48.7913 55.0807 48.79Z" fill="#3E3126"/> <path d="M46.6417 4.58994H14.2117C14.0924 4.58994 13.9779 4.54253 13.8935 4.45814C13.8091 4.37375 13.7617 4.25929 13.7617 4.13994C13.7617 4.02059 13.8091 3.90613 13.8935 3.82174C13.9779 3.73735 14.0924 3.68994 14.2117 3.68994H46.6417C46.7611 3.68994 46.8755 3.73735 46.9599 3.82174C47.0443 3.90613 47.0917 4.02059 47.0917 4.13994C47.0917 4.25929 47.0443 4.37375 46.9599 4.45814C46.8755 4.54253 46.7611 4.58994 46.6417 4.58994Z" fill="#3E3126"/> <path d="M13.8 6.62011H11.53C11.4133 6.62011 11.3014 6.57375 11.2188 6.49124C11.1363 6.40872 11.09 6.2968 11.09 6.18011C11.0886 6.12195 11.099 6.06412 11.1207 6.01012C11.1423 5.95612 11.1747 5.90707 11.2158 5.86593C11.2569 5.8248 11.306 5.79244 11.36 5.77081C11.414 5.74919 11.4718 5.73874 11.53 5.74011H13.8C13.9167 5.74011 14.0286 5.78647 14.1111 5.86898C14.1936 5.9515 14.24 6.06341 14.24 6.18011C14.24 6.2968 14.1936 6.40872 14.1111 6.49124C14.0286 6.57375 13.9167 6.62011 13.8 6.62011Z" fill="#3E3126"/> <path d="M53.8314 8.3501H7.21141C6.09579 8.3501 5.19141 9.25448 5.19141 10.3701V44.0801C5.19141 45.1957 6.09579 46.1001 7.21141 46.1001H53.8314C54.947 46.1001 55.8514 45.1957 55.8514 44.0801V10.3701C55.8514 9.25448 54.947 8.3501 53.8314 8.3501Z" fill="#7C6887"/> <path opacity="0.5" d="M62.5897 27.7501C62.3271 28.3433 61.8985 28.8478 61.3555 29.2027C60.8125 29.5576 60.1784 29.7477 59.5297 29.7501L25.7697 29.6001C24.8847 29.5975 24.0367 29.2447 23.4109 28.6189C22.7851 27.9931 22.4323 27.1451 22.4297 26.2601V6.34009H24.2797V25.6701C24.2823 26.2227 24.5037 26.7517 24.8954 27.1415C25.287 27.5313 25.8171 27.7501 26.3697 27.7501H62.5897Z" fill="#3D3344"/> <path d="M5.30025 23.4599C5.2615 23.4643 5.22227 23.4602 5.18524 23.448C5.14822 23.4358 5.11428 23.4156 5.08577 23.389C5.05727 23.3624 5.03486 23.33 5.0201 23.2939C5.00533 23.2578 4.99856 23.2189 5.00025 23.1799V10.3199C4.99759 10.0145 5.05577 9.71166 5.17142 9.42898C5.28707 9.1463 5.45786 8.88948 5.67382 8.67352C5.88979 8.45755 6.1466 8.28676 6.42928 8.17111C6.71196 8.05547 7.01484 7.99728 7.32025 7.99995H15.8403C15.8774 7.99855 15.9144 8.00483 15.949 8.0184C15.9836 8.03198 16.0151 8.05255 16.0414 8.07884C16.0676 8.10512 16.0882 8.13655 16.1018 8.17116C16.1154 8.20576 16.1217 8.2428 16.1203 8.27995C16.1203 8.35421 16.0908 8.42543 16.0382 8.47794C15.9857 8.53045 15.9145 8.55995 15.8403 8.55995H7.32025C6.85878 8.55995 6.4162 8.74327 6.08989 9.06958C5.76357 9.3959 5.58025 9.83847 5.58025 10.2999V23.1799C5.58025 23.2542 5.55075 23.3254 5.49824 23.3779C5.44573 23.4304 5.37451 23.4599 5.30025 23.4599Z" fill="#3E3126"/> <path d="M53.9401 46.3199H7.32009C7.01468 46.3226 6.7118 46.2644 6.42912 46.1487C6.14644 46.0331 5.88962 45.8623 5.67365 45.6463C5.45769 45.4304 5.2869 45.1736 5.17125 44.8909C5.05561 44.6082 4.99742 44.3053 5.00009 43.9999V31.2099C5.00009 31.1731 5.00733 31.1367 5.0214 31.1028C5.03547 31.0688 5.0561 31.0379 5.0821 31.0119C5.1081 30.9859 5.13897 30.9653 5.17294 30.9512C5.20691 30.9372 5.24332 30.9299 5.28009 30.9299C5.35356 30.9324 5.42334 30.9627 5.47532 31.0147C5.5273 31.0667 5.5576 31.1364 5.56009 31.2099V43.9999C5.56009 44.4614 5.74341 44.904 6.06972 45.2303C6.39604 45.5566 6.83861 45.7399 7.30009 45.7399H53.9401C54.4016 45.7399 54.8441 45.5566 55.1705 45.2303C55.4968 44.904 55.6801 44.4614 55.6801 43.9999V29.7399C55.6787 29.7028 55.685 29.6657 55.6985 29.6311C55.7121 29.5965 55.7327 29.5651 55.759 29.5388C55.7853 29.5125 55.8167 29.4919 55.8513 29.4784C55.8859 29.4648 55.9229 29.4585 55.9601 29.4599C56.0336 29.4624 56.1033 29.4927 56.1553 29.5447C56.2073 29.5967 56.2376 29.6664 56.2401 29.7399V43.9999C56.2427 44.3036 56.1852 44.6049 56.0708 44.8862C55.9564 45.1676 55.7874 45.4235 55.5735 45.6392C55.3597 45.8549 55.1053 46.0261 54.8249 46.1429C54.5445 46.2598 54.2438 46.3199 53.9401 46.3199Z" fill="#3E3126"/> <path d="M5.30025 29.7099C5.2615 29.7143 5.22227 29.7102 5.18524 29.698C5.14822 29.6857 5.11428 29.6656 5.08577 29.639C5.05727 29.6124 5.03486 29.5799 5.0201 29.5438C5.00533 29.5077 4.99856 29.4689 5.00025 29.4299V26.4999C4.99885 26.4628 5.00513 26.4257 5.01871 26.3911C5.03228 26.3565 5.05286 26.3251 5.07914 26.2988C5.10543 26.2725 5.13686 26.2519 5.17146 26.2384C5.20607 26.2248 5.24311 26.2185 5.28025 26.2199C5.35451 26.2199 5.42573 26.2494 5.47824 26.3019C5.53075 26.3544 5.56025 26.4257 5.56025 26.4999V29.4299C5.56043 29.5008 5.5337 29.5692 5.48544 29.6212C5.43718 29.6731 5.37099 29.7049 5.30025 29.7099Z" fill="#3E3126"/> <path opacity="0.35" d="M36.6619 40.93C36.9325 40.93 37.1519 40.7106 37.1519 40.4399C37.1519 40.1693 36.9325 39.95 36.6619 39.95C36.3913 39.95 36.1719 40.1693 36.1719 40.4399C36.1719 40.7106 36.3913 40.93 36.6619 40.93Z" fill="#3D3344"/> <path opacity="0.5" d="M53.8309 43.81H38.4709C38.4757 43.7735 38.4757 43.7366 38.4709 43.7C38.4709 43.4985 38.3909 43.3052 38.2483 43.1626C38.1058 43.0201 37.9125 42.94 37.7109 42.94C37.5094 42.94 37.3161 43.0201 37.1735 43.1626C37.031 43.3052 36.9509 43.4985 36.9509 43.7C36.9509 43.7 36.9509 43.77 36.9509 43.81H35.8009C35.8281 43.7326 35.8449 43.6519 35.8509 43.57C35.8509 43.334 35.7572 43.1076 35.5903 42.9407C35.4234 42.7738 35.197 42.68 34.9609 42.68C34.7249 42.68 34.4985 42.7738 34.3316 42.9407C34.1647 43.1076 34.0709 43.334 34.0709 43.57C34.0606 43.6497 34.0606 43.7304 34.0709 43.81H7.21094C6.6805 43.81 6.1718 43.5993 5.79672 43.2243C5.42165 42.8492 5.21094 42.3405 5.21094 41.81V44.09C5.21094 44.6205 5.42165 45.1292 5.79672 45.5043C6.1718 45.8793 6.6805 46.09 7.21094 46.09H53.8309C54.3614 46.09 54.8701 45.8793 55.2452 45.5043C55.6202 45.1292 55.8309 44.6205 55.8309 44.09V41.79C55.8336 42.0544 55.7838 42.3166 55.6845 42.5616C55.5851 42.8065 55.4383 43.0294 55.2523 43.2172C55.0663 43.405 54.8449 43.5541 54.601 43.6559C54.357 43.7577 54.0953 43.8101 53.8309 43.81Z" fill="#3D3344"/> <path opacity="0.35" d="M34.8581 40.2299C35.0128 40.2299 35.1381 40.1046 35.1381 39.9499C35.1381 39.7953 35.0128 39.6699 34.8581 39.6699C34.7035 39.6699 34.5781 39.7953 34.5781 39.9499C34.5781 40.1046 34.7035 40.2299 34.8581 40.2299Z" fill="#3D3344"/> <path opacity="0.35" d="M38.6705 40.7999C38.7754 40.7999 38.8605 40.7149 38.8605 40.6099C38.8605 40.505 38.7754 40.4199 38.6705 40.4199C38.5655 40.4199 38.4805 40.505 38.4805 40.6099C38.4805 40.7149 38.5655 40.7999 38.6705 40.7999Z" fill="#3D3344"/> <path opacity="0.35" d="M37.4083 39.07C37.6402 39.07 37.8283 38.8819 37.8283 38.65C37.8283 38.418 37.6402 38.23 37.4083 38.23C37.1763 38.23 36.9883 38.418 36.9883 38.65C36.9883 38.8819 37.1763 39.07 37.4083 39.07Z" fill="#3D3344"/> <path opacity="0.35" d="M33.1505 40.32C33.3824 40.32 33.5705 40.1319 33.5705 39.9C33.5705 39.668 33.3824 39.48 33.1505 39.48C32.9185 39.48 32.7305 39.668 32.7305 39.9C32.7305 40.1319 32.9185 40.32 33.1505 40.32Z" fill="#3D3344"/> <path d="M16.0209 21C16.0209 20.4311 15.5598 19.97 14.9909 19.97C14.4221 19.97 13.9609 20.4311 13.9609 21V27.17C13.9609 27.7388 14.4221 28.2 14.9909 28.2C15.5598 28.2 16.0209 27.7388 16.0209 27.17V21Z" fill="#3D3344"/> <path d="M63.3497 0.159975H18.8897C18.6698 0.158335 18.4509 0.188652 18.2397 0.249975H18.8097C18.1771 0.241498 17.5665 0.482148 17.1097 0.919975C16.6704 1.38054 16.4266 1.99347 16.4297 2.62998V33.63C16.453 34.2667 16.7225 34.8695 17.1813 35.3116C17.6401 35.7536 18.2526 36.0004 18.8897 36H63.3497C64.0004 36 64.6246 35.7422 65.0857 35.283C65.5467 34.8238 65.8071 34.2007 65.8097 33.55V2.62998C65.8097 1.97662 65.5509 1.34988 65.0898 0.886948C64.6288 0.424019 64.0031 0.16262 63.3497 0.159975Z" fill="white"/> <path opacity="0.2" d="M65.8289 3.00004V34C65.8263 34.6507 65.5659 35.2739 65.1049 35.7331C64.6438 36.1922 64.0196 36.45 63.3689 36.45H32.6289C80.3189 36.39 47.7189 8.85004 60.3189 0.520041H63.3189C63.6478 0.513343 63.9748 0.57269 64.2803 0.694572C64.5859 0.816453 64.864 0.998392 65.098 1.22962C65.332 1.46085 65.5173 1.73668 65.6428 2.04077C65.7684 2.34487 65.8316 2.67106 65.8289 3.00004Z" fill="#C9D2DF"/> <path d="M27.2306 7.58993H23.4706C23.3831 7.58993 23.2992 7.55516 23.2373 7.49328C23.1754 7.43139 23.1406 7.34745 23.1406 7.25993C23.1406 7.17241 23.1754 7.08847 23.2373 7.02659C23.2992 6.9647 23.3831 6.92993 23.4706 6.92993H27.2306C27.3181 6.92993 27.4021 6.9647 27.464 7.02659C27.5259 7.08847 27.5606 7.17241 27.5606 7.25993C27.5606 7.34745 27.5259 7.43139 27.464 7.49328C27.4021 7.55516 27.3181 7.58993 27.2306 7.58993Z" fill="white"/> <path d="M27.2293 19.83H23.4693C23.4218 19.8384 23.3731 19.8363 23.3266 19.8238C23.28 19.8113 23.2368 19.7888 23.1999 19.7578C23.163 19.7268 23.1333 19.6882 23.1129 19.6445C23.0926 19.6008 23.082 19.5532 23.082 19.505C23.082 19.4569 23.0926 19.4093 23.1129 19.3656C23.1333 19.3219 23.163 19.2833 23.1999 19.2523C23.2368 19.2213 23.28 19.1988 23.3266 19.1863C23.3731 19.1738 23.4218 19.1717 23.4693 19.18H27.2293C27.2767 19.1717 27.3254 19.1738 27.372 19.1863C27.4185 19.1988 27.4617 19.2213 27.4986 19.2523C27.5355 19.2833 27.5652 19.3219 27.5856 19.3656C27.6059 19.4093 27.6165 19.4569 27.6165 19.505C27.6165 19.5532 27.6059 19.6008 27.5856 19.6445C27.5652 19.6882 27.5355 19.7268 27.4986 19.7578C27.4617 19.7888 27.4185 19.8113 27.372 19.8238C27.3254 19.8363 27.2767 19.8384 27.2293 19.83Z" fill="white"/> <path d="M27.2293 26H23.4693C23.4218 26.0083 23.3731 26.0062 23.3266 25.9937C23.28 25.9812 23.2368 25.9587 23.1999 25.9277C23.163 25.8968 23.1333 25.8581 23.1129 25.8144C23.0926 25.7707 23.082 25.7232 23.082 25.675C23.082 25.6268 23.0926 25.5792 23.1129 25.5355C23.1333 25.4919 23.163 25.4532 23.1999 25.4222C23.2368 25.3912 23.28 25.3687 23.3266 25.3562C23.3731 25.3438 23.4218 25.3416 23.4693 25.35H27.2293C27.2767 25.3416 27.3254 25.3438 27.372 25.3562C27.4185 25.3687 27.4617 25.3912 27.4986 25.4222C27.5355 25.4532 27.5652 25.4919 27.5856 25.5355C27.6059 25.5792 27.6165 25.6268 27.6165 25.675C27.6165 25.7232 27.6059 25.7707 27.5856 25.8144C27.5652 25.8581 27.5355 25.8968 27.4986 25.9277C27.4617 25.9587 27.4185 25.9812 27.372 25.9937C27.3254 26.0062 27.2767 26.0083 27.2293 26Z" fill="white"/> <path d="M19 36.2899H16.44C15.791 36.2846 15.1705 36.0231 14.7134 35.5624C14.2564 35.1016 14 34.4789 14 33.8299V2.87992C14 2.23094 14.2564 1.60824 14.7134 1.14747C15.1705 0.686703 15.791 0.425198 16.44 0.419922H19C18.6769 0.419922 18.3571 0.483552 18.0586 0.607178C17.7601 0.730805 17.4889 0.912007 17.2605 1.14044C17.0321 1.36887 16.8509 1.64006 16.7273 1.93852C16.6036 2.23698 16.54 2.55687 16.54 2.87992V33.8799C16.5531 34.5237 16.818 35.1366 17.278 35.5872C17.7379 36.0378 18.3561 36.2901 19 36.2899Z" fill="#CFB0FF"/> <path opacity="0.6" d="M16.1498 6.39011C16.1498 5.82125 15.6887 5.36011 15.1198 5.36011C14.551 5.36011 14.0898 5.82125 14.0898 6.39011V10.5901C14.0898 11.159 14.551 11.6201 15.1198 11.6201C15.6887 11.6201 16.1498 11.159 16.1498 10.5901V6.39011Z" fill="#8647EA"/> <path d="M61.5386 4.49003H18.5386C18.4776 4.49003 18.4191 4.4658 18.376 4.42266C18.3328 4.37953 18.3086 4.32103 18.3086 4.26003C18.3086 4.19903 18.3328 4.14053 18.376 4.09739C18.4191 4.05426 18.4776 4.03003 18.5386 4.03003H61.5386C61.5996 4.03003 61.6581 4.05426 61.7012 4.09739C61.7444 4.14053 61.7686 4.19903 61.7686 4.26003C61.7686 4.32103 61.7444 4.37953 61.7012 4.42266C61.6581 4.4658 61.5996 4.49003 61.5386 4.49003Z" fill="#3E3126"/> <path d="M51.9217 15.9999H40.5417C40.4683 15.9974 40.3985 15.9671 40.3465 15.9151C40.2945 15.8631 40.2642 15.7934 40.2617 15.7199C40.2617 15.6456 40.2912 15.5744 40.3437 15.5219C40.3962 15.4694 40.4675 15.4399 40.5417 15.4399H51.9217C51.9589 15.4385 51.9959 15.4448 52.0305 15.4583C52.0651 15.4719 52.0965 15.4925 52.1228 15.5188C52.1491 15.5451 52.1697 15.5765 52.1833 15.6111C52.1968 15.6457 52.2031 15.6827 52.2017 15.7199C52.2017 15.7942 52.1722 15.8654 52.1197 15.9179C52.0672 15.9704 51.996 15.9999 51.9217 15.9999Z" fill="#3E3126"/> <path d="M51.9197 13.2701H40.5397C40.4992 13.2778 40.4575 13.2766 40.4176 13.2663C40.3776 13.2561 40.3404 13.2372 40.3086 13.2109C40.2769 13.1846 40.2513 13.1517 40.2337 13.1144C40.2161 13.077 40.207 13.0363 40.207 12.9951C40.207 12.9539 40.2161 12.9131 40.2337 12.8758C40.2513 12.8385 40.2769 12.8055 40.3086 12.7793C40.3404 12.753 40.3776 12.7341 40.4176 12.7238C40.4575 12.7136 40.4992 12.7123 40.5397 12.7201H51.9197C51.9602 12.7123 52.0019 12.7136 52.0419 12.7238C52.0818 12.7341 52.119 12.753 52.1508 12.7793C52.1826 12.8055 52.2082 12.8385 52.2257 12.8758C52.2433 12.9131 52.2524 12.9539 52.2524 12.9951C52.2524 13.0363 52.2433 13.077 52.2257 13.1144C52.2082 13.1517 52.1826 13.1846 52.1508 13.2109C52.119 13.2372 52.0818 13.2561 52.0419 13.2663C52.0019 13.2766 51.9602 13.2778 51.9197 13.2701Z" fill="#3E3126"/> <path d="M57.9997 18.73H40.5397C40.4992 18.7378 40.4575 18.7365 40.4176 18.7263C40.3776 18.7161 40.3404 18.6971 40.3086 18.6709C40.2769 18.6446 40.2513 18.6116 40.2337 18.5743C40.2161 18.537 40.207 18.4963 40.207 18.455C40.207 18.4138 40.2161 18.3731 40.2337 18.3358C40.2513 18.2985 40.2769 18.2655 40.3086 18.2392C40.3404 18.213 40.3776 18.194 40.4176 18.1838C40.4575 18.1736 40.4992 18.1723 40.5397 18.18H57.9997C58.0402 18.1723 58.0819 18.1736 58.1219 18.1838C58.1618 18.194 58.199 18.213 58.2308 18.2392C58.2626 18.2655 58.2882 18.2985 58.3057 18.3358C58.3233 18.3731 58.3324 18.4138 58.3324 18.455C58.3324 18.4963 58.3233 18.537 58.3057 18.5743C58.2882 18.6116 58.2626 18.6446 58.2308 18.6709C58.199 18.6971 58.1618 18.7161 58.1219 18.7263C58.0819 18.7365 58.0402 18.7378 57.9997 18.73Z" fill="#3E3126"/> <path d="M21.0594 3.16001C20.9209 3.16001 20.7856 3.11896 20.6705 3.04204C20.5554 2.96512 20.4656 2.8558 20.4127 2.72789C20.3597 2.59998 20.3458 2.45923 20.3728 2.32345C20.3998 2.18766 20.4665 2.06293 20.5644 1.96504C20.6623 1.86714 20.787 1.80047 20.9228 1.77346C21.0586 1.74645 21.1993 1.76031 21.3273 1.81329C21.4552 1.86628 21.5645 1.956 21.6414 2.07111C21.7183 2.18623 21.7594 2.32156 21.7594 2.46001C21.7594 2.64566 21.6856 2.82371 21.5544 2.95498C21.4231 3.08626 21.245 3.16001 21.0594 3.16001ZM21.0594 2.04001C20.9981 2.03058 20.9355 2.03452 20.8759 2.05154C20.8163 2.06857 20.7611 2.09829 20.714 2.13866C20.667 2.17902 20.6292 2.22909 20.6033 2.28542C20.5774 2.34175 20.564 2.40301 20.564 2.46501C20.564 2.52701 20.5774 2.58827 20.6033 2.6446C20.6292 2.70093 20.667 2.751 20.714 2.79137C20.7611 2.83173 20.8163 2.86145 20.8759 2.87848C20.9355 2.8955 20.9981 2.89944 21.0594 2.89001C21.1206 2.89944 21.1832 2.8955 21.2429 2.87848C21.3025 2.86145 21.3577 2.83173 21.4047 2.79137C21.4518 2.751 21.4896 2.70093 21.5155 2.6446C21.5414 2.58827 21.5548 2.52701 21.5548 2.46501C21.5548 2.40301 21.5414 2.34175 21.5155 2.28542C21.4896 2.22909 21.4518 2.17902 21.4047 2.13866C21.3577 2.09829 21.3025 2.06857 21.2429 2.05154C21.1832 2.03452 21.1206 2.03058 21.0594 2.04001Z" fill="#3E3126"/> <path d="M23.4891 3.16001C23.3971 3.16001 23.3061 3.1419 23.2212 3.10673C23.1363 3.07155 23.0591 3.01999 22.9941 2.95498C22.9291 2.88998 22.8775 2.81282 22.8423 2.72789C22.8072 2.64296 22.7891 2.55194 22.7891 2.46001C22.7891 2.36808 22.8072 2.27706 22.8423 2.19213C22.8775 2.1072 22.9291 2.03004 22.9941 1.96504C23.0591 1.90003 23.1363 1.84847 23.2212 1.81329C23.3061 1.77812 23.3971 1.76001 23.4891 1.76001C23.581 1.76001 23.672 1.77812 23.7569 1.81329C23.8419 1.84847 23.919 1.90003 23.984 1.96504C24.049 2.03004 24.1006 2.1072 24.1358 2.19213C24.171 2.27706 24.1891 2.36808 24.1891 2.46001C24.1891 2.55194 24.171 2.64296 24.1358 2.72789C24.1006 2.81282 24.049 2.88998 23.984 2.95498C23.919 3.01999 23.8419 3.07155 23.7569 3.10673C23.672 3.1419 23.581 3.16001 23.4891 3.16001ZM23.4891 2.04001C23.4032 2.03804 23.3187 2.06182 23.2465 2.1083C23.1743 2.15478 23.1176 2.22182 23.0838 2.30079C23.05 2.37975 23.0407 2.46703 23.057 2.55136C23.0732 2.63569 23.1144 2.71322 23.1751 2.77395C23.2359 2.83468 23.3134 2.87584 23.3977 2.89211C23.482 2.90838 23.5693 2.89902 23.6483 2.86525C23.7273 2.83147 23.7943 2.77482 23.8408 2.70259C23.8873 2.63036 23.911 2.54588 23.9091 2.46001C23.9147 2.40159 23.9079 2.34264 23.8893 2.28697C23.8708 2.23131 23.8407 2.18015 23.8011 2.13681C23.7616 2.09347 23.7133 2.0589 23.6596 2.03534C23.6058 2.01178 23.5477 1.99974 23.4891 2.00001V2.04001Z" fill="#3E3126"/> <path d="M25.9109 3.16001C25.7725 3.16001 25.6372 3.11896 25.522 3.04204C25.4069 2.96512 25.3172 2.8558 25.2642 2.72789C25.2112 2.59998 25.1974 2.45923 25.2244 2.32345C25.2514 2.18766 25.3181 2.06293 25.416 1.96504C25.5139 1.86714 25.6386 1.80047 25.7744 1.77346C25.9102 1.74645 26.0509 1.76031 26.1788 1.81329C26.3067 1.86628 26.4161 1.956 26.493 2.07111C26.5699 2.18623 26.6109 2.32156 26.6109 2.46001C26.6109 2.64566 26.5372 2.82371 26.4059 2.95498C26.2746 3.08626 26.0966 3.16001 25.9109 3.16001ZM25.9109 2.04001C25.8094 2.05563 25.7168 2.10707 25.65 2.18502C25.5831 2.26298 25.5463 2.3623 25.5463 2.46501C25.5463 2.56772 25.5831 2.66704 25.65 2.745C25.7168 2.82295 25.8094 2.87439 25.9109 2.89001C25.9722 2.89944 26.0348 2.8955 26.0944 2.87848C26.154 2.86145 26.2093 2.83173 26.2563 2.79137C26.3034 2.751 26.3411 2.70093 26.367 2.6446C26.3929 2.58827 26.4063 2.52701 26.4063 2.46501C26.4063 2.40301 26.3929 2.34175 26.367 2.28542C26.3411 2.22909 26.3034 2.17902 26.2563 2.13866C26.2093 2.09829 26.154 2.06857 26.0944 2.05154C26.0348 2.03452 25.9722 2.03058 25.9109 2.04001Z" fill="#3E3126"/> <path d="M9.65984 6.7899C9.97465 6.7899 10.2298 6.5347 10.2298 6.2199C10.2298 5.9051 9.97465 5.6499 9.65984 5.6499C9.34504 5.6499 9.08984 5.9051 9.08984 6.2199C9.08984 6.5347 9.34504 6.7899 9.65984 6.7899Z" fill="#3E3126"/> <path d="M5.33953 25.4701C5.65433 25.4701 5.90953 25.2149 5.90953 24.9001C5.90953 24.5853 5.65433 24.3301 5.33953 24.3301C5.02473 24.3301 4.76953 24.5853 4.76953 24.9001C4.76953 25.2149 5.02473 25.4701 5.33953 25.4701Z" fill="#3E3126"/> <path d="M8.8096 15.3399H8.7096C8.67807 15.3269 8.64952 15.3077 8.62572 15.2832C8.60191 15.2588 8.58335 15.2298 8.57117 15.198C8.559 15.1661 8.55346 15.1321 8.55491 15.0981C8.55636 15.064 8.56476 15.0306 8.5796 14.9999L9.9196 11.8299C9.94597 11.7712 9.99394 11.725 10.0535 11.7008C10.1131 11.6765 10.1798 11.6762 10.2396 11.6999C10.2705 11.7107 10.2987 11.7279 10.3224 11.7504C10.346 11.7729 10.3647 11.8002 10.377 11.8305C10.3893 11.8608 10.395 11.8933 10.3937 11.926C10.3924 11.9587 10.3842 11.9907 10.3696 12.0199L8.9996 15.1799C8.98554 15.2214 8.9604 15.2582 8.92691 15.2864C8.89342 15.3146 8.85285 15.3331 8.8096 15.3399Z" fill="#3E3126"/> <path d="M10.5913 13.8101H10.4913C10.4326 13.7837 10.3863 13.7358 10.3621 13.6762C10.3379 13.6166 10.3376 13.5499 10.3613 13.4901L11.0813 11.7901C11.1076 11.7314 11.1556 11.6852 11.2152 11.661C11.2748 11.6367 11.3415 11.6364 11.4013 11.6601C11.46 11.6865 11.5062 11.7344 11.5304 11.794C11.5546 11.8536 11.5549 11.9203 11.5313 11.9801L10.8113 13.6801C10.7897 13.7196 10.7579 13.7525 10.7191 13.7753C10.6804 13.7982 10.6363 13.8102 10.5913 13.8101Z" fill="#3E3126"/> <path opacity="0.6" d="M15.2786 14.47C15.8143 14.47 16.2486 14.0357 16.2486 13.5C16.2486 12.9643 15.8143 12.53 15.2786 12.53C14.7429 12.53 14.3086 12.9643 14.3086 13.5C14.3086 14.0357 14.7429 14.47 15.2786 14.47Z" fill="#8647EA"/> <path d="M25.8219 36.53H18.7119C17.9719 36.53 17.2623 36.2361 16.739 35.7128C16.2158 35.1896 15.9219 34.48 15.9219 33.74V2.79C15.9219 2.05005 16.2158 1.3404 16.739 0.817172C17.2623 0.293946 17.9719 0 18.7119 0L25.8219 0C25.9094 0 25.9933 0.0347678 26.0552 0.0966548C26.1171 0.158542 26.1519 0.242479 26.1519 0.33C26.1519 0.417521 26.1171 0.501458 26.0552 0.563345C25.9933 0.625232 25.9094 0.66 25.8219 0.66H18.7119C18.147 0.66 17.6052 0.88441 17.2057 1.28386C16.8063 1.68332 16.5819 2.22509 16.5819 2.79V33.79C16.5819 34.3549 16.8063 34.8967 17.2057 35.2961C17.6052 35.6956 18.147 35.92 18.7119 35.92H25.8219C25.9094 35.92 25.9933 35.9548 26.0552 36.0167C26.1171 36.0785 26.1519 36.1625 26.1519 36.25C26.1519 36.3375 26.1171 36.4215 26.0552 36.4833C25.9933 36.5452 25.9094 36.58 25.8219 36.58V36.53Z" fill="#3E3126"/> <path d="M63.5517 36.53H16.5517C15.8118 36.53 15.1021 36.2361 14.5789 35.7128C14.0557 35.1896 13.7617 34.48 13.7617 33.74V2.79C13.7617 2.05521 14.0515 1.35008 14.5683 0.827703C15.085 0.305331 15.787 0.00790092 16.5217 0L63.5217 0C64.2617 0 64.9713 0.293946 65.4945 0.817172C66.0178 1.3404 66.3117 2.05005 66.3117 2.79V33.79C66.2987 34.5161 66.0032 35.2085 65.4878 35.7201C64.9724 36.2318 64.2779 36.5223 63.5517 36.53ZM16.5217 0.66C15.9568 0.66 15.415 0.88441 15.0156 1.28386C14.6161 1.68332 14.3917 2.22509 14.3917 2.79V33.79C14.3917 34.3549 14.6161 34.8967 15.0156 35.2961C15.415 35.6956 15.9568 35.92 16.5217 35.92H63.5217C64.0866 35.92 64.6284 35.6956 65.0279 35.2961C65.4273 34.8967 65.6517 34.3549 65.6517 33.79V2.79C65.6518 2.23025 65.4315 1.69297 65.0385 1.29437C64.6455 0.89577 64.1114 0.667884 63.5517 0.66H16.5217Z" fill="#3E3126"/> <path opacity="0.6" d="M1.46875 29.25H1.45875C0.911988 29.25 0.46875 29.6932 0.46875 30.24V36.4C0.46875 36.9468 0.911988 37.39 1.45875 37.39H1.46875C2.01551 37.39 2.45875 36.9468 2.45875 36.4V30.24C2.45875 29.6932 2.01551 29.25 1.46875 29.25Z" fill="#8647EA"/> <path d="M44.65 48.81H3.59C2.63787 48.81 1.72474 48.4318 1.05149 47.7585C0.378231 47.0853 0 46.1721 0 45.22V9.32999C0 8.37786 0.378231 7.46473 1.05149 6.79148C1.72474 6.11822 2.63787 5.73999 3.59 5.73999H7.9C7.95778 5.73999 8.015 5.75137 8.06838 5.77348C8.12176 5.7956 8.17027 5.82801 8.21113 5.86886C8.25198 5.90972 8.2844 5.95823 8.30651 6.01161C8.32862 6.06499 8.34 6.12221 8.34 6.17999C8.34 6.29669 8.29364 6.4086 8.21113 6.49112C8.12861 6.57363 8.0167 6.61999 7.9 6.61999H3.59C2.87126 6.61999 2.18196 6.90551 1.67374 7.41373C1.16552 7.92195 0.88 8.61125 0.88 9.32999V45.22C0.88 45.9387 1.16552 46.628 1.67374 47.1363C2.18196 47.6445 2.87126 47.93 3.59 47.93H44.65C44.7667 47.93 44.8786 47.9763 44.9611 48.0589C45.0436 48.1414 45.09 48.2533 45.09 48.37C45.09 48.4867 45.0436 48.5986 44.9611 48.6811C44.8786 48.7636 44.7667 48.81 44.65 48.81Z" fill="#3E3126"/> <path d="M5.66048 48.6499C4.75079 48.6499 3.87836 48.2885 3.23511 47.6453C2.59186 47.002 2.23048 46.1296 2.23048 45.2199V9.32992C2.22916 8.87911 2.31698 8.4325 2.48889 8.01575C2.66079 7.59901 2.9134 7.22037 3.23216 6.9016C3.55093 6.58283 3.92958 6.33023 4.34632 6.15832C4.76306 5.98642 5.20968 5.8986 5.66048 5.89992C5.69725 5.89992 5.73366 5.90716 5.76763 5.92123C5.80161 5.9353 5.83247 5.95593 5.85847 5.98193C5.88447 6.00793 5.9051 6.03879 5.91917 6.07277C5.93324 6.10674 5.94048 6.14315 5.94048 6.17992C5.93799 6.25338 5.90769 6.32317 5.85571 6.37514C5.80373 6.42712 5.73395 6.45742 5.66048 6.45992C5.28322 6.4586 4.90942 6.53193 4.56062 6.67569C4.21182 6.81945 3.89491 7.03081 3.62814 7.29757C3.36137 7.56434 3.15002 7.88125 3.00626 8.23005C2.86249 8.57886 2.78916 8.95265 2.79048 9.32992V45.2199C2.79048 45.9811 3.09286 46.7111 3.63109 47.2493C4.16932 47.7875 4.89931 48.0899 5.66048 48.0899C5.69725 48.0899 5.73366 48.0972 5.76763 48.1112C5.80161 48.1253 5.83247 48.1459 5.85847 48.1719C5.88447 48.1979 5.9051 48.2288 5.91917 48.2628C5.93324 48.2967 5.94048 48.3331 5.94048 48.3699C5.93799 48.4434 5.90769 48.5132 5.85571 48.5651C5.80373 48.6171 5.73395 48.6474 5.66048 48.6499Z" fill="#3E3126"/> <path d="M36.0308 8.62012H21.4508C20.9537 8.62012 20.5508 9.02306 20.5508 9.52012V21.7201C20.5508 22.2172 20.9537 22.6201 21.4508 22.6201H36.0308C36.5278 22.6201 36.9308 22.2172 36.9308 21.7201V9.52012C36.9308 9.02306 36.5278 8.62012 36.0308 8.62012Z" fill="#B29FBF"/> <path d="M36.7214 9.4699V21.6599C36.7214 21.9012 36.6255 22.1327 36.4549 22.3034C36.2842 22.474 36.0528 22.5699 35.8114 22.5699H26.9414C31.6985 19.3417 35.1014 14.4759 36.5014 8.8999C36.6429 9.05607 36.7213 9.2592 36.7214 9.4699Z" fill="#7C6887"/> <path d="M35.9995 23.0001H21.4495C21.1366 23.0001 20.8364 22.8758 20.6151 22.6545C20.3939 22.4332 20.2695 22.133 20.2695 21.8201V9.60009C20.2695 9.28714 20.3939 8.987 20.6151 8.7657C20.8364 8.54441 21.1366 8.42009 21.4495 8.42009H35.9995C36.1566 8.41744 36.3127 8.44594 36.4588 8.50393C36.6048 8.56192 36.7379 8.64826 36.8504 8.75797C36.9629 8.86768 37.0525 8.99857 37.1142 9.14311C37.1758 9.28765 37.2082 9.44296 37.2095 9.60009V21.7901C37.2122 21.9497 37.1828 22.1083 37.1229 22.2563C37.0631 22.4043 36.9741 22.5388 36.8612 22.6517C36.7483 22.7646 36.6138 22.8536 36.4658 22.9135C36.3177 22.9733 36.1592 23.0028 35.9995 23.0001ZM21.4495 9.00009C21.3681 9.00009 21.2875 9.01613 21.2123 9.04729C21.137 9.07844 21.0687 9.12411 21.0111 9.18168C20.9536 9.23926 20.9079 9.3076 20.8767 9.38283C20.8456 9.45805 20.8295 9.53867 20.8295 9.62009V21.7901C20.8295 21.8715 20.8456 21.9521 20.8767 22.0274C20.9079 22.1026 20.9536 22.1709 21.0111 22.2285C21.0687 22.2861 21.137 22.3317 21.2123 22.3629C21.2875 22.3941 21.3681 22.4101 21.4495 22.4101H35.9995C36.1649 22.4101 36.3236 22.3451 36.4415 22.2291C36.5594 22.1131 36.6269 21.9554 36.6295 21.7901V9.60009C36.6218 9.43826 36.552 9.28562 36.4347 9.17388C36.3174 9.06215 36.1615 8.99991 35.9995 9.00009H21.4495Z" fill="#3E3126"/> </g> <defs> <clipPath id="clip0"> <rect width="66.34" height="48.81" fill="white"/> </clipPath> </defs> </svg> 