<svg width="249" height="165" viewBox="0 0 249 165" fill="none" xmlns="http://www.w3.org/2000/svg"> <g clip-path="url(#clip0)"> <path d="M61.8208 57.14C63.7648 57.14 65.3408 55.564 65.3408 53.62C65.3408 51.6759 63.7648 50.1 61.8208 50.1C59.8767 50.1 58.3008 51.6759 58.3008 53.62C58.3008 55.564 59.8767 57.14 61.8208 57.14Z" fill="#FFCCB3"/> <path d="M61.5103 58C60.767 58.0005 60.031 57.8541 59.3446 57.5692C58.6581 57.2843 58.0347 56.8666 57.5103 56.34C56.631 55.2468 56.1865 53.8674 56.2622 52.4665C56.3379 51.0657 56.9285 49.7422 57.9205 48.7502C58.9125 47.7582 60.236 47.1676 61.6368 47.0919C63.0377 47.0162 64.4171 47.4607 65.5103 48.34C66.3035 49.1345 66.8439 50.1459 67.0635 51.2469C67.2831 52.3479 67.1722 53.4893 66.7445 54.5273C66.3169 55.5654 65.5918 56.4537 64.6604 57.0806C63.729 57.7074 62.6329 58.0447 61.5103 58.05V58ZM61.5103 48.62C60.6566 48.6203 59.8294 48.9167 59.1698 49.4585C58.5101 50.0004 58.0587 50.7542 57.8924 51.5915C57.7262 52.4288 57.8555 53.2979 58.2582 54.0506C58.6609 54.8034 59.3121 55.3932 60.1009 55.7196C60.8898 56.046 61.7673 56.0888 62.5842 55.8407C63.401 55.5926 64.1066 55.069 64.5806 54.359C65.0547 53.6491 65.2679 52.7967 65.1839 51.9471C65.1 51.0976 64.7241 50.3034 64.1203 49.7C63.7823 49.3474 63.3774 49.0659 62.9292 48.8719C62.481 48.6778 61.9986 48.5752 61.5103 48.57V48.62Z" fill="#381609"/> <path d="M127.829 67.83C129.32 67.83 130.529 66.4555 130.529 64.76C130.529 63.0645 129.32 61.69 127.829 61.69C126.338 61.69 125.129 63.0645 125.129 64.76C125.129 66.4555 126.338 67.83 127.829 67.83Z" fill="#4EF94E"/> <path d="M127.129 68.83C126.189 68.83 125.271 68.5514 124.49 68.0294C123.709 67.5075 123.1 66.7657 122.74 65.8977C122.381 65.0298 122.287 64.0747 122.47 63.1533C122.653 62.2319 123.106 61.3855 123.77 60.7212C124.434 60.0569 125.281 59.6045 126.202 59.4212C127.124 59.2379 128.079 59.332 128.947 59.6915C129.815 60.051 130.556 60.6599 131.078 61.441C131.6 62.2221 131.879 63.1405 131.879 64.08C131.879 65.3397 131.378 66.5479 130.488 67.4387C129.597 68.3295 128.389 68.83 127.129 68.83ZM127.129 61.34C126.585 61.34 126.053 61.5015 125.6 61.8041C125.148 62.1067 124.795 62.5368 124.587 63.0399C124.379 63.543 124.326 64.0964 124.433 64.6301C124.539 65.1639 124.802 65.6539 125.188 66.038C125.574 66.4222 126.064 66.6834 126.599 66.7883C127.133 66.8933 127.686 66.8374 128.188 66.6277C128.691 66.4181 129.119 66.064 129.42 65.6105C129.721 65.1569 129.881 64.6243 129.879 64.08C129.879 63.7193 129.808 63.3622 129.669 63.0291C129.531 62.696 129.328 62.3935 129.073 62.1389C128.817 61.8844 128.514 61.6828 128.181 61.5457C127.847 61.4085 127.49 61.3386 127.129 61.34Z" fill="#381609"/> <path d="M247.25 109.89H238.34V127.73H247.25V109.89Z" fill="#C0C4C4"/> <path d="M9.91 110.39H1V127.73H9.91V110.39Z" fill="#C0C4C4"/> <path d="M229.07 62.74H216.59V155.89H229.07V62.74Z" fill="#F9A870"/> <path opacity="0.49" d="M140.259 129.53H133.559V95L137.499 93.47L133.559 89.77V30.14H140.259V129.53Z" fill="#B3E2FF"/> <path opacity="0.49" d="M204.509 129.53H197.809V88.96L203.779 89.96L197.809 83.99V38.98H204.509V129.53Z" fill="#B3E2FF"/> <path opacity="0.49" d="M76.8797 129.53H70.1797V79.83L75.1097 80.38L70.1797 75.22V38.59H76.8797V129.53Z" fill="#B3E2FF"/> <path d="M30.1597 62.74H17.6797V155.89H30.1597V62.74Z" fill="#F9A870"/> <path d="M30.1597 62.74H17.6797V68.66H30.1597V62.74Z" fill="#E28444"/> <path d="M229.07 62.74H216.59V68.66H229.07V62.74Z" fill="#E28444"/> <path d="M30.1697 157.4H17.6797C17.4145 157.4 17.1601 157.295 16.9726 157.107C16.785 156.92 16.6797 156.665 16.6797 156.4V63.25C16.6797 62.9848 16.785 62.7304 16.9726 62.5429C17.1601 62.3554 17.4145 62.25 17.6797 62.25H30.1697C30.4349 62.25 30.6893 62.3554 30.8768 62.5429C31.0643 62.7304 31.1697 62.9848 31.1697 63.25V156.4C31.1697 156.665 31.0643 156.92 30.8768 157.107C30.6893 157.295 30.4349 157.4 30.1697 157.4ZM18.6797 155.4H29.1697V64.25H18.6797V155.4Z" fill="#381609"/> <path d="M22.6797 91.84C22.5471 91.84 22.4199 91.7873 22.3261 91.6935C22.2324 91.5998 22.1797 91.4726 22.1797 91.34V68.09C22.1797 67.9574 22.2324 67.8302 22.3261 67.7364C22.4199 67.6427 22.5471 67.59 22.6797 67.59C22.8123 67.59 22.9395 67.6427 23.0332 67.7364C23.127 67.8302 23.1797 67.9574 23.1797 68.09V91.34C23.1797 91.4726 23.127 91.5998 23.0332 91.6935C22.9395 91.7873 22.8123 91.84 22.6797 91.84Z" fill="#E58A4C"/> <path d="M25.1719 79.5C25.0393 79.5 24.9121 79.4473 24.8183 79.3536C24.7246 79.2598 24.6719 79.1326 24.6719 79V65.75C24.6719 65.6174 24.7246 65.4902 24.8183 65.3964C24.9121 65.3027 25.0393 65.25 25.1719 65.25C25.3037 65.2526 25.4294 65.3061 25.5226 65.3993C25.6158 65.4925 25.6693 65.6182 25.6719 65.75V79C25.6719 79.1326 25.6192 79.2598 25.5254 79.3536C25.4317 79.4473 25.3045 79.5 25.1719 79.5Z" fill="#E58A4C"/> <path d="M25.9102 111C25.7775 111 25.6504 110.947 25.5566 110.854C25.4628 110.76 25.4102 110.633 25.4102 110.5V97.22C25.4102 97.0874 25.4628 96.9602 25.5566 96.8664C25.6504 96.7726 25.7775 96.72 25.9102 96.72C26.0428 96.72 26.1699 96.7726 26.2637 96.8664C26.3575 96.9602 26.4102 97.0874 26.4102 97.22V110.48C26.4129 110.547 26.4019 110.614 26.378 110.677C26.3541 110.74 26.3177 110.798 26.271 110.847C26.2243 110.895 26.1682 110.934 26.1062 110.96C26.0442 110.986 25.9775 111 25.9102 111Z" fill="#E58A4C"/> <path d="M224.578 112.37C224.446 112.37 224.318 112.317 224.225 112.224C224.131 112.13 224.078 112.003 224.078 111.87V98.61C224.078 98.4774 224.131 98.3502 224.225 98.2564C224.318 98.1627 224.446 98.11 224.578 98.11C224.711 98.11 224.838 98.1627 224.932 98.2564C225.025 98.3502 225.078 98.4774 225.078 98.61V111.87C225.078 112.003 225.025 112.13 224.932 112.224C224.838 112.317 224.711 112.37 224.578 112.37Z" fill="#E58A4C"/> <path d="M23.9219 155.83C23.7893 155.83 23.6621 155.777 23.5683 155.684C23.4746 155.59 23.4219 155.463 23.4219 155.33V132.08C23.4244 131.948 23.4779 131.822 23.5712 131.729C23.6644 131.636 23.7901 131.583 23.9219 131.58C24.0545 131.58 24.1817 131.633 24.2754 131.726C24.3692 131.82 24.4219 131.947 24.4219 132.08V155.33C24.4219 155.463 24.3692 155.59 24.2754 155.684C24.1817 155.777 24.0545 155.83 23.9219 155.83Z" fill="#E58A4C"/> <path d="M26.4102 143.5C26.2775 143.5 26.1504 143.447 26.0566 143.354C25.9628 143.26 25.9102 143.133 25.9102 143V129.75C25.9102 129.617 25.9628 129.49 26.0566 129.396C26.1504 129.303 26.2775 129.25 26.4102 129.25C26.5428 129.25 26.6699 129.303 26.7637 129.396C26.8575 129.49 26.9102 129.617 26.9102 129.75V143C26.9102 143.133 26.8575 143.26 26.7637 143.354C26.6699 143.447 26.5428 143.5 26.4102 143.5Z" fill="#E58A4C"/> <path d="M229.08 157.4H216.59C216.325 157.4 216.07 157.295 215.883 157.107C215.695 156.92 215.59 156.665 215.59 156.4V63.25C215.59 62.9848 215.695 62.7304 215.883 62.5429C216.07 62.3554 216.325 62.25 216.59 62.25H229.08C229.345 62.25 229.599 62.3554 229.787 62.5429C229.974 62.7304 230.08 62.9848 230.08 63.25V156.4C230.08 156.665 229.974 156.92 229.787 157.107C229.599 157.295 229.345 157.4 229.08 157.4ZM217.59 155.4H228.08V64.25H217.59V155.4Z" fill="#381609"/> <path d="M221.59 91.84C221.457 91.84 221.33 91.7873 221.236 91.6935C221.143 91.5998 221.09 91.4726 221.09 91.34V68.09C221.09 67.9574 221.143 67.8302 221.236 67.7364C221.33 67.6427 221.457 67.59 221.59 67.59C221.722 67.59 221.85 67.6427 221.943 67.7364C222.037 67.8302 222.09 67.9574 222.09 68.09V91.34C222.09 91.4726 222.037 91.5998 221.943 91.6935C221.85 91.7873 221.722 91.84 221.59 91.84Z" fill="#E58A4C"/> <path d="M224.078 79.5C223.946 79.5 223.818 79.4473 223.725 79.3536C223.631 79.2598 223.578 79.1326 223.578 79V65.75C223.578 65.6174 223.631 65.4902 223.725 65.3964C223.818 65.3027 223.946 65.25 224.078 65.25C224.211 65.25 224.338 65.3027 224.432 65.3964C224.525 65.4902 224.578 65.6174 224.578 65.75V79C224.578 79.1326 224.525 79.2598 224.432 79.3536C224.338 79.4473 224.211 79.5 224.078 79.5Z" fill="#E58A4C"/> <path d="M222.828 155.83C222.696 155.83 222.568 155.777 222.475 155.684C222.381 155.59 222.328 155.463 222.328 155.33V132.08C222.331 131.948 222.384 131.822 222.477 131.729C222.571 131.636 222.696 131.583 222.828 131.58C222.961 131.58 223.088 131.633 223.182 131.726C223.275 131.82 223.328 131.947 223.328 132.08V155.33C223.328 155.463 223.275 155.59 223.182 155.684C223.088 155.777 222.961 155.83 222.828 155.83Z" fill="#E58A4C"/> <path d="M225.32 143.5C225.189 143.497 225.063 143.444 224.97 143.351C224.876 143.258 224.823 143.132 224.82 143V129.75C224.82 129.617 224.873 129.49 224.967 129.396C225.061 129.303 225.188 129.25 225.32 129.25C225.453 129.25 225.58 129.303 225.674 129.396C225.768 129.49 225.82 129.617 225.82 129.75V143C225.82 143.133 225.768 143.26 225.674 143.354C225.58 143.447 225.453 143.5 225.32 143.5Z" fill="#E58A4C"/> <path d="M233.371 147.73V163.73H14.8906V147.73H43.2906C44.0521 148.911 44.9371 150.007 45.9306 151C48.0473 153.119 50.6109 154.737 53.4339 155.738C56.2568 156.738 59.2677 157.094 62.2461 156.781C65.2246 156.467 68.0952 155.492 70.6481 153.926C73.201 152.36 75.3714 150.243 77.0006 147.73H107.301C108.069 148.909 108.957 150.004 109.951 151C112.066 153.108 114.625 154.717 117.441 155.71C120.257 156.704 123.259 157.057 126.229 156.744C129.199 156.43 132.061 155.459 134.608 153.9C137.155 152.34 139.321 150.233 140.951 147.73H171.261C172.022 148.911 172.907 150.007 173.901 151C176.016 153.108 178.575 154.717 181.391 155.71C184.207 156.704 187.209 157.057 190.179 156.744C193.149 156.43 196.011 155.459 198.558 153.9C201.105 152.34 203.271 150.233 204.901 147.73H233.371Z" fill="#FFCDAB"/> <path d="M232.71 147.23V150.73H204.3C202.671 153.233 200.504 155.34 197.958 156.9C195.411 158.459 192.549 159.43 189.579 159.744C186.609 160.057 183.607 159.704 180.791 158.71C177.975 157.717 175.416 156.108 173.3 154C172.307 153.007 171.422 151.911 170.66 150.73H140.31C138.681 153.233 136.514 155.34 133.968 156.9C131.421 158.459 128.558 159.43 125.589 159.744C122.619 160.057 119.617 159.704 116.801 158.71C113.985 157.717 111.426 156.108 109.31 154C108.317 153.004 107.429 151.909 106.66 150.73H76.3205C74.69 153.231 72.5227 155.337 69.976 156.896C67.4293 158.454 64.5673 159.425 61.5982 159.738C58.6291 160.051 55.6275 159.699 52.8118 158.706C49.996 157.713 47.4369 156.106 45.3205 154C44.3269 153.007 43.4419 151.911 42.6805 150.73H14.2305V147.23H42.6305C43.3919 148.411 44.2769 149.507 45.2705 150.5C47.3869 152.606 49.946 154.213 52.7617 155.206C55.5775 156.199 58.5791 156.551 61.5482 156.238C64.5173 155.925 67.3793 154.954 69.926 153.396C72.4727 151.837 74.64 149.731 76.2705 147.23H106.57C107.339 148.409 108.227 149.504 109.22 150.5C111.336 152.608 113.895 154.217 116.711 155.21C119.527 156.204 122.529 156.557 125.499 156.244C128.468 155.93 131.331 154.959 133.878 153.4C136.424 151.84 138.591 149.733 140.22 147.23H170.53C171.292 148.411 172.177 149.507 173.17 150.5C175.286 152.608 177.845 154.217 180.661 155.21C183.477 156.204 186.479 156.557 189.449 156.244C192.419 155.93 195.281 154.959 197.828 153.4C200.374 151.84 202.541 149.733 204.17 147.23H232.71Z" fill="white"/> <path d="M42.7695 77.2C55.3395 77.98 60.2495 72.81 66.3395 74.33C69.7684 75.0813 72.8296 77.0008 74.9995 79.76L60.5195 85L45.4195 82.15L42.7695 77.2Z" fill="#EF9170"/> <path d="M60.5217 88.21H60.3017L45.2217 84.88C45.0685 84.8465 44.9254 84.7775 44.8038 84.6785C44.6822 84.5795 44.5856 84.4532 44.5217 84.31L41.9217 78.39C41.8487 78.2293 41.8194 78.0522 41.837 77.8765C41.8546 77.7009 41.9183 77.533 42.0217 77.39C42.1238 77.2562 42.2579 77.1503 42.4117 77.0822C42.5656 77.014 42.7341 76.9857 42.9017 77C47.1564 77.2493 51.4189 76.6685 55.4517 75.29L56.3617 74.99C60.9617 73.45 65.3617 71.99 70.3017 74.86C72.6459 76.1377 74.6119 78.0106 76.0017 80.29C76.0681 80.4113 76.1085 80.545 76.1206 80.6827C76.1326 80.8204 76.116 80.9591 76.0717 81.09C76.0284 81.222 75.9579 81.3436 75.865 81.4469C75.772 81.5502 75.6585 81.633 75.5317 81.69L60.9217 88.13C60.7946 88.1814 60.6589 88.2085 60.5217 88.21ZM46.1517 83L60.4117 86.12L73.6317 80.29C72.4633 78.7513 70.9891 77.4711 69.3017 76.53C65.0917 74.11 61.5217 75.31 56.9917 76.82L56.0817 77.13C52.3218 78.4227 48.3674 79.0587 44.3917 79.01L46.1517 83Z" fill="#381609"/> <path d="M76.751 80.38V121.51C76.751 136.58 69.061 148.81 59.571 148.85H59.321H59.001C58.5685 148.837 58.1374 148.794 57.711 148.72C53.711 148.06 50.051 145.18 47.331 140.86C44.211 135.86 42.331 129.08 42.331 121.53V82.85C42.331 79.66 41.761 78.58 45.571 78.18C50.1948 77.7091 54.8564 78.5769 59.001 80.68C63.681 83.06 67.411 83.56 72.621 81.96C74.0283 81.5171 75.4075 80.9895 76.751 80.38Z" fill="#FFCCB3"/> <path d="M60.4686 148.81H60.2086C60.0186 148.81 59.8386 148.81 59.6486 148.81H59.5186H58.9986C58.7377 148.805 58.4772 148.785 58.2186 148.75C57.9986 148.75 57.7786 148.75 57.5586 148.7H57.7086C66.1686 147.6 70.3186 140.37 70.3186 131.61L70.4486 82.52C71.8786 82.08 75.4486 80.98 76.7486 80.38V76.77L76.8786 131.61C76.8759 136.036 75.1702 140.291 72.115 143.493C69.0598 146.696 64.8895 148.599 60.4686 148.81Z" fill="#EFAB89"/> <path d="M65.6419 148.19C63.5019 149.19 61.8119 148.84 59.3119 148.86H59.1619C56.8979 148.86 54.6561 148.414 52.5644 147.548C50.4728 146.681 48.5722 145.411 46.9714 143.811C45.3705 142.21 44.1006 140.309 43.2342 138.217C42.3678 136.126 41.9219 133.884 41.9219 131.62V78.62C42.6419 78.53 43.2619 78.43 43.8119 78.32C44.8719 78.22 45.9719 78.08 47.1119 78.05C48.5896 77.9655 50.072 78.046 51.5319 78.29L52.2719 81.88C55.8219 98.98 62.6719 117.14 58.0719 133.99C54.8419 145.86 61.3119 146.21 62.0719 147.99C63.5019 151.62 63.7619 147.33 65.6419 148.19Z" fill="#FFDACC"/> <path d="M62.9417 148.09C61.7917 148.19 60.6217 148.09 59.1717 148.09H59.0017C54.4294 148.09 50.0443 146.274 46.8112 143.041C43.5781 139.807 41.7617 135.422 41.7617 130.85V77.85C42.4817 77.76 43.1017 77.66 43.6517 77.55V77.69C44.7117 77.59 45.8217 77.51 46.9617 77.48C48.1017 77.45 49.3417 77.48 50.5517 77.48C49.6617 77.48 48.7817 77.58 47.9417 77.66V77.52C47.3917 77.63 46.7717 77.73 46.0517 77.82V130.82C46.0507 135.328 47.8165 139.657 50.9703 142.878C54.1241 146.099 58.4147 147.956 62.9217 148.05L62.9417 148.09Z" fill="white"/> <path d="M42.2812 98.82C41.8834 98.82 41.5019 98.6619 41.2206 98.3806C40.9393 98.0993 40.7812 97.7178 40.7812 97.32V38.59C40.7812 38.1921 40.9393 37.8106 41.2206 37.5293C41.5019 37.248 41.8834 37.09 42.2812 37.09H76.7513C77.1491 37.09 77.5306 37.248 77.8119 37.5293C78.0932 37.8106 78.2513 38.1921 78.2513 38.59V82.77C78.2513 83.1678 78.0932 83.5493 77.8119 83.8306C77.5306 84.1119 77.1491 84.27 76.7513 84.27C76.3534 84.27 75.9719 84.1119 75.6906 83.8306C75.4093 83.5493 75.2513 83.1678 75.2513 82.77V40.09H43.7812V97.32C43.7812 97.7178 43.6232 98.0993 43.3419 98.3806C43.0606 98.6619 42.6791 98.82 42.2812 98.82Z" fill="#381609"/> <path d="M59.5095 150.27C54.5427 150.265 49.7807 148.29 46.2677 144.779C42.7547 141.268 40.7775 136.507 40.7695 131.54V105.54C40.7695 105.142 40.9276 104.761 41.2089 104.479C41.4902 104.198 41.8717 104.04 42.2695 104.04C42.6674 104.04 43.0489 104.198 43.3302 104.479C43.6115 104.761 43.7695 105.142 43.7695 105.54V131.54C43.873 135.644 45.5762 139.546 48.5158 142.413C51.4554 145.279 55.3987 146.883 59.5045 146.883C63.6103 146.883 67.5536 145.279 70.4932 142.413C73.4328 139.546 75.136 135.644 75.2395 131.54V119.14C75.2395 118.742 75.3976 118.361 75.6789 118.079C75.9602 117.798 76.3417 117.64 76.7395 117.64C77.1374 117.64 77.5189 117.798 77.8002 118.079C78.0815 118.361 78.2395 118.742 78.2395 119.14V131.54C78.2342 136.506 76.2592 141.267 72.7478 144.778C69.2364 148.29 64.4754 150.265 59.5095 150.27Z" fill="#381609"/> <path d="M76.7383 110.24C76.3405 110.24 75.9589 110.082 75.6776 109.801C75.3963 109.519 75.2383 109.138 75.2383 108.74V93.19C75.2383 92.7922 75.3963 92.4106 75.6776 92.1293C75.9589 91.848 76.3405 91.69 76.7383 91.69C77.1361 91.69 77.5176 91.848 77.7989 92.1293C78.0802 92.4106 78.2383 92.7922 78.2383 93.19V108.74C78.2383 109.138 78.0802 109.519 77.7989 109.801C77.5176 110.082 77.1361 110.24 76.7383 110.24Z" fill="#381609"/> <path d="M46.0499 70.4C45.9696 70.4013 45.8902 70.3828 45.8187 70.3462C45.7472 70.3096 45.6858 70.2559 45.6399 70.19C45.6016 70.1363 45.5742 70.0754 45.5595 70.0111C45.5448 69.9467 45.5429 69.8801 45.5541 69.815C45.5652 69.7499 45.5892 69.6877 45.6245 69.6319C45.6598 69.5761 45.7059 69.5279 45.7599 69.49L50.8999 65.84C51.0093 65.7651 51.1436 65.7357 51.2743 65.7581C51.4049 65.7805 51.5217 65.8529 51.5999 65.96C51.6383 66.0137 51.6657 66.0745 51.6804 66.1389C51.6951 66.2033 51.697 66.2699 51.6858 66.335C51.6747 66.4001 51.6507 66.4623 51.6154 66.5181C51.5801 66.5739 51.534 66.6221 51.4799 66.66L46.3399 70.31C46.2544 70.3682 46.1534 70.3995 46.0499 70.4Z" fill="#381609"/> <path d="M48.6919 70.94C48.5757 70.9538 48.4584 70.9265 48.3603 70.8627C48.2622 70.7989 48.1895 70.7027 48.155 70.5909C48.1205 70.4791 48.1264 70.3587 48.1715 70.2507C48.2166 70.1428 48.2981 70.054 48.4019 70L50.9019 68.23C51.0101 68.154 51.1436 68.1231 51.2742 68.1436C51.4048 68.1641 51.5223 68.2345 51.6019 68.34C51.6403 68.3937 51.6677 68.4545 51.6824 68.5189C51.6971 68.5833 51.699 68.6499 51.6878 68.715C51.6767 68.7801 51.6527 68.8423 51.6174 68.8981C51.5821 68.9539 51.536 69.0021 51.4819 69.04L49.0019 70.85C48.9114 70.9134 48.8024 70.9451 48.6919 70.94Z" fill="#381609"/> <path d="M48.0609 58.48C47.9809 58.4796 47.9021 58.4604 47.8308 58.4239C47.7596 58.3874 47.698 58.3347 47.6509 58.27C47.5765 58.1621 47.5475 58.0295 47.5699 57.9004C47.5923 57.7714 47.6645 57.6563 47.7709 57.58L50.2709 55.8C50.3796 55.723 50.5145 55.6925 50.6457 55.715C50.777 55.7375 50.894 55.8112 50.9709 55.92C51.0478 56.0287 51.0784 56.1635 51.0559 56.2948C51.0334 56.4261 50.9596 56.543 50.8509 56.62L48.3509 58.39C48.2653 58.4481 48.1644 58.4795 48.0609 58.48Z" fill="#381609"/> <path d="M51.8119 116.99C52.5796 116.99 53.2019 115.584 53.2019 113.85C53.2019 112.116 52.5796 110.71 51.8119 110.71C51.0442 110.71 50.4219 112.116 50.4219 113.85C50.4219 115.584 51.0442 116.99 51.8119 116.99Z" fill="white"/> <path d="M52.3587 121.89C53.1264 121.89 53.7487 121.268 53.7487 120.5C53.7487 119.732 53.1264 119.11 52.3587 119.11C51.5911 119.11 50.9688 119.732 50.9688 120.5C50.9688 121.268 51.5911 121.89 52.3587 121.89Z" fill="white"/> <path d="M54.2883 110.71C54.592 110.71 54.8383 110.464 54.8383 110.16C54.8383 109.856 54.592 109.61 54.2883 109.61C53.9845 109.61 53.7383 109.856 53.7383 110.16C53.7383 110.464 53.9845 110.71 54.2883 110.71Z" fill="white"/> <path d="M68.2678 136.374C68.5566 135.405 68.3187 134.479 67.7365 134.306C67.1543 134.132 66.4483 134.777 66.1595 135.745C65.8708 136.714 66.1087 137.64 66.6909 137.813C67.2731 137.987 67.9791 137.342 68.2678 136.374Z" fill="#EFAB89"/> <path d="M66.8597 139.35C67.0972 139.35 67.2897 139.157 67.2897 138.92C67.2897 138.683 67.0972 138.49 66.8597 138.49C66.6222 138.49 66.4297 138.683 66.4297 138.92C66.4297 139.157 66.6222 139.35 66.8597 139.35Z" fill="#EFAB89"/> <path d="M67.8412 92.63C68.4267 92.63 68.9013 91.5331 68.9013 90.18C68.9013 88.8269 68.4267 87.73 67.8412 87.73C67.2558 87.73 66.7812 88.8269 66.7812 90.18C66.7812 91.5331 67.2558 92.63 67.8412 92.63Z" fill="#EFAB89"/> <path d="M50.4219 105.05C50.0241 105.05 49.6425 104.892 49.3612 104.611C49.0799 104.329 48.9219 103.948 48.9219 103.55V87C48.9219 86.6022 49.0799 86.2206 49.3612 85.9393C49.6425 85.658 50.0241 85.5 50.4219 85.5C50.8197 85.5 51.2012 85.658 51.4825 85.9393C51.7638 86.2206 51.9219 86.6022 51.9219 87V103.6C51.9089 103.989 51.7452 104.358 51.4652 104.628C51.1853 104.899 50.8112 105.05 50.4219 105.05Z" fill="white"/> <path d="M65.4211 83.88C62.4246 83.8154 59.4893 83.0189 56.8711 81.56C52.8969 79.552 48.4313 78.7227 44.0011 79.17C43.7359 79.1979 43.4705 79.1192 43.2633 78.9514C43.056 78.7835 42.924 78.5402 42.8961 78.275C42.8683 78.0098 42.9469 77.7444 43.1148 77.5372C43.2826 77.3299 43.5259 77.1979 43.7911 77.17C48.6104 76.6796 53.4693 77.582 57.7911 79.77C62.4011 82.12 65.8911 82.45 70.6611 80.99C72.0443 80.5591 73.4001 80.0448 74.7211 79.45C74.8413 79.3968 74.9707 79.3678 75.1021 79.3647C75.2335 79.3615 75.3642 79.3843 75.4868 79.4316C75.6093 79.479 75.7214 79.55 75.8165 79.6407C75.9116 79.7313 75.9879 79.8399 76.0411 79.96C76.0943 80.0802 76.1233 80.2096 76.1265 80.341C76.1296 80.4724 76.1069 80.6031 76.0595 80.7256C76.0121 80.8482 75.9411 80.9603 75.8505 81.0554C75.7598 81.1505 75.6513 81.2268 75.5311 81.28C74.1398 81.9091 72.7103 82.4502 71.2511 82.9C69.368 83.5176 67.4026 83.848 65.4211 83.88Z" fill="#381609"/> <path d="M108 92.7C120.57 93.48 125.49 88.31 131.57 89.82C135.014 90.5685 138.089 92.4918 140.27 95.26L125.75 100.46L110.65 97.61L108 92.7Z" fill="#0DCC0D"/> <path d="M125.74 101.35H125.55L110.45 98.5C110.305 98.4715 110.167 98.411 110.048 98.3228C109.929 98.2346 109.83 98.1209 109.76 97.99L107.11 93.08C107.027 92.9233 106.986 92.7471 106.993 92.5695C107 92.3919 107.054 92.2193 107.15 92.0696C107.245 91.9198 107.379 91.7983 107.538 91.7176C107.696 91.6368 107.873 91.5997 108.05 91.61C112.492 91.8524 116.943 91.3522 121.22 90.13C125.92 88.84 130.36 87.62 135.39 90.05C137.65 91.0568 139.612 92.6269 141.09 94.61C141.174 94.7359 141.227 94.879 141.247 95.0285C141.267 95.1781 141.253 95.3302 141.206 95.4736C141.159 95.6169 141.08 95.7477 140.975 95.8562C140.87 95.9647 140.742 96.048 140.6 96.1L126.08 101.31C125.969 101.338 125.855 101.351 125.74 101.35ZM111.29 96.61L125.66 99.32L138.66 94.68C137.474 93.5011 136.09 92.5398 134.57 91.84C130.22 89.74 126.32 90.84 121.8 92.05C117.896 93.1497 113.857 93.695 109.8 93.67L111.29 96.61Z" fill="#381609"/> <path d="M173.238 87.46C185.808 88.24 188.938 82.13 195.028 83.64C198.471 84.3917 201.545 86.3143 203.728 89.08L189.198 94.28L174.098 91.43L173.238 87.46Z" fill="#BF0DAF"/> <path d="M189.199 97.42H188.989L173.909 94.1C173.771 94.0697 173.641 94.0104 173.527 93.9259C173.413 93.8415 173.318 93.7338 173.249 93.61C169.719 87.2 170.059 86.91 170.679 86.37C170.832 86.2397 171.017 86.1547 171.215 86.1246C171.413 86.0946 171.616 86.1207 171.799 86.2C176.201 86.4047 180.601 85.7456 184.749 84.26C194.169 81.07 201.049 82.88 204.659 89.5C204.726 89.6213 204.766 89.755 204.778 89.8927C204.79 90.0304 204.774 90.1691 204.729 90.3C204.686 90.432 204.616 90.5536 204.523 90.6569C204.43 90.7602 204.316 90.843 204.189 90.9L189.609 97.35C189.479 97.4018 189.34 97.4257 189.199 97.42ZM174.779 92.23L189.099 95.37L202.349 89.5C199.099 84.5 193.409 83.42 185.349 86.14C181.291 87.5846 177.007 88.2891 172.699 88.22C173.219 89.26 173.999 90.81 174.779 92.23Z" fill="#381609"/> <path d="M140.251 93.83V127.35C140.251 139.63 132.561 149.59 123.071 149.63H122.821H122.501C122.069 149.619 121.638 149.582 121.211 149.52C119.145 149.188 117.165 148.452 115.384 147.354C113.602 146.256 112.055 144.817 110.831 143.12C107.486 138.558 105.73 133.026 105.831 127.37V95.84C105.831 93.24 105.261 92.36 109.071 92.04C113.646 91.6329 118.253 92.3184 122.511 94.04C126.778 96.0146 131.612 96.3873 136.131 95.09C137.525 94.7405 138.9 94.32 140.251 93.83Z" fill="#4EF94E"/> <path d="M123.999 149.59H123.749H123.179H122.999H122.479C122.219 149.59 121.959 149.59 121.709 149.54H121.039H121.189C129.649 148.65 133.799 142.76 133.799 135.63L133.929 95.63C135.359 95.27 138.929 94.38 140.229 93.9V91L140.359 135.64C140.379 143.11 133.099 149.24 123.999 149.59Z" fill="#1BDD1B"/> <path d="M129.149 149.19C127.009 150 125.309 149.72 122.809 149.74H122.659C118.238 149.799 113.931 148.33 110.469 145.58C108.944 144.39 107.704 142.875 106.839 141.145C105.974 139.415 105.506 137.514 105.469 135.58V91.89C106.189 91.82 106.809 91.74 107.359 91.65C108.419 91.56 109.519 91.45 110.659 91.43C112.135 91.357 113.615 91.424 115.079 91.63L115.819 94.63C119.369 108.72 126.219 123.68 121.629 137.56C118.389 147.34 124.859 147.63 125.629 149.13C126.999 152 127.269 148.48 129.149 149.19Z" fill="#86FC86"/> <path d="M126.438 149.11C125.288 149.2 124.118 149.11 122.668 149.11H122.518C118.103 149.183 113.798 147.732 110.328 145C108.803 143.81 107.563 142.295 106.698 140.565C105.833 138.835 105.365 136.934 105.328 135V91.28C106.048 91.2 106.668 91.12 107.218 91.03V91.14C108.278 91.06 109.388 90.99 110.528 90.97C111.668 90.95 112.908 90.97 114.118 90.97C113.228 90.97 112.348 91.06 111.508 91.12V91C110.958 91.09 110.338 91.17 109.618 91.25V134.89C109.661 136.828 110.137 138.732 111.011 140.462C111.884 142.192 113.134 143.705 114.668 144.89C118.003 147.584 122.151 149.072 126.438 149.11Z" fill="white"/> <path d="M105.781 98.6C105.383 98.6 105.002 98.442 104.721 98.1607C104.439 97.8794 104.281 97.4978 104.281 97.1V39.37C104.281 38.9722 104.439 38.5906 104.721 38.3093C105.002 38.028 105.383 37.87 105.781 37.87H140.251C140.649 37.87 141.031 38.028 141.312 38.3093C141.593 38.5906 141.751 38.9722 141.751 39.37V70.55C141.751 70.9478 141.593 71.3293 141.312 71.6107C141.031 71.892 140.649 72.05 140.251 72.05C139.853 72.05 139.472 71.892 139.191 71.6107C138.909 71.3293 138.751 70.9478 138.751 70.55V40.87H107.281V97.1C107.281 97.4978 107.123 97.8794 106.842 98.1607C106.561 98.442 106.179 98.6 105.781 98.6Z" fill="#381609"/> <path d="M123 151.05C118.033 151.042 113.272 149.065 109.761 145.552C106.25 142.039 104.275 137.277 104.27 132.31V105.31C104.27 104.912 104.428 104.531 104.709 104.249C104.99 103.968 105.372 103.81 105.77 103.81C106.167 103.81 106.549 103.968 106.83 104.249C107.111 104.531 107.27 104.912 107.27 105.31V132.31C107.217 134.41 107.584 136.499 108.351 138.454C109.118 140.41 110.269 142.192 111.735 143.695C113.202 145.199 114.954 146.394 116.89 147.21C118.825 148.026 120.904 148.447 123.005 148.447C125.105 148.447 127.184 148.026 129.119 147.21C131.055 146.394 132.807 145.199 134.274 143.695C135.74 142.192 136.891 140.41 137.658 138.454C138.425 136.499 138.792 134.41 138.74 132.31V119.91C138.74 119.512 138.898 119.131 139.179 118.849C139.46 118.568 139.842 118.41 140.24 118.41C140.637 118.41 141.019 118.568 141.3 118.849C141.581 119.131 141.74 119.512 141.74 119.91V132.31C141.732 137.278 139.755 142.04 136.242 145.552C132.729 149.065 127.967 151.042 123 151.05Z" fill="#381609"/> <path d="M140.25 111C139.852 111 139.471 110.842 139.189 110.561C138.908 110.279 138.75 109.898 138.75 109.5V77C138.75 76.6022 138.908 76.2206 139.189 75.9393C139.471 75.658 139.852 75.5 140.25 75.5C140.648 75.5 141.029 75.658 141.311 75.9393C141.592 76.2206 141.75 76.6022 141.75 77V109.55C141.737 109.939 141.573 110.308 141.293 110.578C141.013 110.849 140.639 111 140.25 111Z" fill="#381609"/> <path d="M107.53 40.44L139.41 40.44C143.729 40.44 147.23 36.9389 147.23 32.62C147.23 28.3011 143.729 24.8 139.41 24.8L107.53 24.8C103.212 24.8 99.7105 28.3011 99.7105 32.62C99.7105 36.9389 103.212 40.44 107.53 40.44Z" fill="white"/> <path opacity="0.49" d="M131 25.21H138.66C144.61 25.21 149.45 28.71 149.45 33.03C149.403 34.137 149.092 35.2168 148.542 36.1789C147.992 37.141 147.22 37.9574 146.29 38.56C144.047 40.0987 141.38 40.8992 138.66 40.85H131C133.717 40.9018 136.382 40.1009 138.62 38.56C139.554 37.9531 140.33 37.132 140.883 36.165C141.436 35.198 141.751 34.1129 141.8 33C141.8 28.71 137 25.21 131 25.21Z" fill="#B3E2FF"/> <path d="M137.333 34.8087C137.588 33.928 137.231 33.0512 136.536 32.8503C135.841 32.6494 135.071 33.2005 134.816 34.0813C134.562 34.962 134.919 35.8389 135.614 36.0397C136.309 36.2406 137.079 35.6895 137.333 34.8087Z" fill="white"/> <path d="M140.602 42.15H106.602C104.215 42.15 101.925 41.2018 100.238 39.514C98.5498 37.8261 97.6016 35.537 97.6016 33.15V32.5C97.6016 30.1131 98.5498 27.8239 100.238 26.136C101.925 24.4482 104.215 23.5 106.602 23.5H110.242C110.639 23.5 111.021 23.658 111.302 23.9393C111.584 24.2206 111.742 24.6022 111.742 25C111.742 25.3978 111.584 25.7794 111.302 26.0607C111.021 26.342 110.639 26.5 110.242 26.5H106.602C105.01 26.5 103.484 27.1321 102.359 28.2574C101.234 29.3826 100.602 30.9087 100.602 32.5V33.15C100.602 34.7413 101.234 36.2674 102.359 37.3926C103.484 38.5179 105.01 39.15 106.602 39.15H140.602C142.193 39.15 143.719 38.5179 144.844 37.3926C145.969 36.2674 146.602 34.7413 146.602 33.15V32.5C146.602 30.9087 145.969 29.3826 144.844 28.2574C143.719 27.1321 142.193 26.5 140.602 26.5H127.002C126.604 26.5 126.222 26.342 125.941 26.0607C125.66 25.7794 125.502 25.3978 125.502 25C125.502 24.6022 125.66 24.2206 125.941 23.9393C126.222 23.658 126.604 23.5 127.002 23.5H140.602C142.989 23.5 145.278 24.4482 146.966 26.136C148.653 27.8239 149.602 30.1131 149.602 32.5V33.15C149.602 35.537 148.653 37.8261 146.966 39.514C145.278 41.2018 142.989 42.15 140.602 42.15Z" fill="#381609"/> <path d="M121.051 26.51H116.051C115.653 26.51 115.271 26.352 114.99 26.0707C114.709 25.7894 114.551 25.4078 114.551 25.01C114.551 24.6122 114.709 24.2307 114.99 23.9493C115.271 23.668 115.653 23.51 116.051 23.51H121.051C121.449 23.51 121.83 23.668 122.111 23.9493C122.393 24.2307 122.551 24.6122 122.551 25.01C122.551 25.4078 122.393 25.7894 122.111 26.0707C121.83 26.352 121.449 26.51 121.051 26.51Z" fill="#381609"/> <path d="M113.671 119.21C114.439 119.21 115.061 117.804 115.061 116.07C115.061 114.336 114.439 112.93 113.671 112.93C112.904 112.93 112.281 114.336 112.281 116.07C112.281 117.804 112.904 119.21 113.671 119.21Z" fill="white"/> <path d="M117.788 111.49C118.092 111.49 118.338 111.244 118.338 110.94C118.338 110.636 118.092 110.39 117.788 110.39C117.485 110.39 117.238 110.636 117.238 110.94C117.238 111.244 117.485 111.49 117.788 111.49Z" fill="white"/> <path d="M131.908 138.041C132.456 136.228 132.019 134.491 130.932 134.163C129.845 133.835 128.52 135.039 127.972 136.852C127.425 138.665 127.862 140.401 128.948 140.73C130.035 141.058 131.361 139.854 131.908 138.041Z" fill="#1BDD1B"/> <path d="M128.48 143.23C128.922 143.23 129.28 142.872 129.28 142.43C129.28 141.988 128.922 141.63 128.48 141.63C128.038 141.63 127.68 141.988 127.68 142.43C127.68 142.872 128.038 143.23 128.48 143.23Z" fill="#1BDD1B"/> <path d="M129.151 108.1C130.261 108.1 131.161 106.399 131.161 104.3C131.161 102.201 130.261 100.5 129.151 100.5C128.041 100.5 127.141 102.201 127.141 104.3C127.141 106.399 128.041 108.1 129.151 108.1Z" fill="#1BDD1B"/> <path d="M113.672 109.65C113.274 109.65 112.893 109.492 112.611 109.211C112.33 108.929 112.172 108.548 112.172 108.15V99.55C112.172 99.1522 112.33 98.7706 112.611 98.4893C112.893 98.208 113.274 98.05 113.672 98.05C114.07 98.05 114.451 98.208 114.733 98.4893C115.014 98.7706 115.172 99.1522 115.172 99.55V108.15C115.172 108.548 115.014 108.929 114.733 109.211C114.451 109.492 114.07 109.65 113.672 109.65Z" fill="white"/> <path d="M128.92 96.86C125.996 96.8208 123.111 96.188 120.44 95C116.325 93.3154 111.87 92.63 107.44 93C107.176 93.0222 106.914 92.9388 106.712 92.7682C106.509 92.5976 106.383 92.3537 106.36 92.09C106.347 91.9562 106.362 91.8213 106.403 91.6934C106.444 91.5655 106.51 91.4471 106.598 91.3454C106.686 91.2436 106.793 91.1606 106.914 91.1013C107.034 91.0419 107.166 91.0075 107.3 91C112.038 90.6015 116.803 91.3243 121.21 93.11C125.279 95.0072 129.898 95.3626 134.21 94.11C135.588 93.7657 136.946 93.3484 138.28 92.86C138.528 92.7694 138.801 92.7806 139.041 92.8912C139.281 93.0017 139.467 93.2026 139.56 93.45C139.606 93.5734 139.628 93.7048 139.623 93.8365C139.618 93.9683 139.588 94.0978 139.533 94.2177C139.478 94.3376 139.4 94.4455 139.303 94.5351C139.207 94.6247 139.093 94.6944 138.97 94.74C137.53 95.26 136.09 95.74 134.7 96.05C132.814 96.5591 130.873 96.8312 128.92 96.86Z" fill="#381609"/> <path d="M111.43 79.05C111.297 79.05 111.17 78.9973 111.076 78.9035C110.982 78.8098 110.93 78.6826 110.93 78.55V67.29C110.93 67.1574 110.982 67.0302 111.076 66.9364C111.17 66.8427 111.297 66.79 111.43 66.79C111.562 66.79 111.689 66.8427 111.783 66.9364C111.877 67.0302 111.93 67.1574 111.93 67.29V78.55C111.93 78.6826 111.877 78.8098 111.783 78.9035C111.689 78.9973 111.562 79.05 111.43 79.05Z" fill="#381609"/> <path d="M113.922 72.71C113.789 72.71 113.662 72.6573 113.568 72.5636C113.475 72.4698 113.422 72.3426 113.422 72.21V56C113.422 55.8674 113.475 55.7402 113.568 55.6464C113.662 55.5527 113.789 55.5 113.922 55.5C114.054 55.5 114.182 55.5527 114.275 55.6464C114.369 55.7402 114.422 55.8674 114.422 56V72.21C114.422 72.3426 114.369 72.4698 114.275 72.5636C114.182 72.6573 114.054 72.71 113.922 72.71Z" fill="#381609"/> <path d="M194.36 142.54C194.597 142.54 194.79 142.347 194.79 142.11C194.79 141.873 194.597 141.68 194.36 141.68C194.122 141.68 193.93 141.873 193.93 142.11C193.93 142.347 194.122 142.54 194.36 142.54Z" fill="#EFAB89"/> <path d="M204.24 93.45V127C204.24 139.28 196.55 149.25 187.06 149.28H186.81H186.49C186.059 149.272 185.628 149.239 185.2 149.18C181.03 148.498 177.298 146.194 174.82 142.77C171.473 138.21 169.717 132.676 169.82 127.02V95.46C169.82 92.85 166.64 87.96 170.44 87.63C175.04 87.24 181.33 90.92 188.85 89.94C193.85 89.28 209.2 90.4 204.29 93.45C203 94.22 202.9 93.93 204.24 93.45Z" fill="#F759D9"/> <path d="M187.999 149.21H187.739H187.169H186.999H186.479C186.219 149.21 185.969 149.21 185.709 149.21C185.449 149.21 185.259 149.21 185.039 149.16H185.189C193.649 148.26 197.809 142.38 197.809 135.24L198.049 91C199.479 90.64 203.549 92.2 204.889 91.71L204.239 90.54L204.369 135.18C204.369 142.73 197.089 148.85 187.999 149.21Z" fill="#D81EBE"/> <path d="M193.142 148.78C191.002 149.6 189.312 149.32 186.812 149.34H186.662C182.225 149.393 177.91 147.886 174.472 145.08C172.925 143.842 171.671 142.278 170.798 140.499C169.925 138.72 169.455 136.771 169.422 134.79V90.08C170.142 90 169.842 87.73 170.422 87.63L171.342 89.82C172.402 89.74 171.072 87.53 172.212 87.5C173.652 87.5 177.602 89.56 179.052 89.8L179.802 92.8C183.352 107.23 190.202 122.56 185.602 136.8C182.362 146.8 188.832 147.11 189.602 148.65C191.002 151.67 191.262 148.05 193.142 148.78Z" fill="#FC90ED"/> <path d="M190.441 148.73C189.291 148.81 188.121 148.73 186.671 148.73H186.521C182.1 148.789 177.794 147.32 174.331 144.57C172.797 143.385 171.548 141.872 170.674 140.142C169.8 138.412 169.324 136.508 169.281 134.57V90.89C170.001 90.81 169.381 87.61 169.931 87.52V87.64C170.991 87.55 172.101 87.49 173.241 87.46C174.381 87.43 172.341 87.55 173.551 87.6C172.661 87.6 175.061 87.6 174.221 87.6L174.531 88.6C173.981 88.69 173.971 88.6 173.251 88.6L173.571 134.44C173.614 136.378 174.09 138.282 174.964 140.012C175.838 141.742 177.087 143.255 178.621 144.44C181.964 147.163 186.13 148.675 190.441 148.73Z" fill="white"/> <path d="M169.77 94.21C169.372 94.21 168.99 94.052 168.709 93.7707C168.428 93.4894 168.27 93.1078 168.27 92.71V39C168.27 38.6022 168.428 38.2206 168.709 37.9393C168.99 37.658 169.372 37.5 169.77 37.5H204.24C204.637 37.5 205.019 37.658 205.3 37.9393C205.581 38.2206 205.74 38.6022 205.74 39V75.16C205.74 75.5578 205.581 75.9394 205.3 76.2207C205.019 76.502 204.637 76.66 204.24 76.66C203.842 76.66 203.46 76.502 203.179 76.2207C202.898 75.9394 202.74 75.5578 202.74 75.16V40.48H171.27V92.71C171.27 93.1078 171.111 93.4894 170.83 93.7707C170.549 94.052 170.167 94.21 169.77 94.21Z" fill="#381609"/> <path d="M187.002 150.66C182.034 150.652 177.272 148.675 173.759 145.162C170.247 141.65 168.27 136.888 168.262 131.92V100.92C168.262 100.522 168.42 100.141 168.701 99.8593C168.982 99.578 169.364 99.42 169.762 99.42C170.16 99.42 170.541 99.578 170.822 99.8593C171.104 100.141 171.262 100.522 171.262 100.92V131.92C171.209 134.02 171.577 136.109 172.344 138.064C173.111 140.02 174.261 141.802 175.727 143.305C177.194 144.809 178.946 146.004 180.882 146.82C182.817 147.636 184.896 148.057 186.997 148.057C189.097 148.057 191.176 147.636 193.112 146.82C195.047 146.004 196.8 144.809 198.266 143.305C199.732 141.802 200.883 140.02 201.65 138.064C202.417 136.109 202.785 134.02 202.732 131.92V119.52C202.732 119.122 202.89 118.741 203.171 118.459C203.452 118.178 203.834 118.02 204.232 118.02C204.63 118.02 205.011 118.178 205.292 118.459C205.574 118.741 205.732 119.122 205.732 119.52V131.92C205.726 136.887 203.752 141.649 200.241 145.162C196.729 148.675 191.969 150.652 187.002 150.66Z" fill="#381609"/> <path d="M204.238 110.63C203.84 110.63 203.459 110.472 203.178 110.191C202.896 109.909 202.738 109.528 202.738 109.13V86.58C202.738 86.1822 202.896 85.8007 203.178 85.5194C203.459 85.2381 203.84 85.08 204.238 85.08C204.636 85.08 205.018 85.2381 205.299 85.5194C205.58 85.8007 205.738 86.1822 205.738 86.58V109.13C205.738 109.528 205.58 109.909 205.299 110.191C205.018 110.472 204.636 110.63 204.238 110.63Z" fill="#381609"/> <path d="M195.776 136.769C196.064 135.8 195.827 134.874 195.244 134.701C194.662 134.527 193.956 135.172 193.667 136.14C193.379 137.109 193.616 138.034 194.199 138.208C194.781 138.382 195.487 137.737 195.776 136.769Z" fill="#D81EBE"/> <path d="M195.341 103.46C195.927 103.46 196.401 102.569 196.401 101.47C196.401 100.371 195.927 99.48 195.341 99.48C194.756 99.48 194.281 100.371 194.281 101.47C194.281 102.569 194.756 103.46 195.341 103.46Z" fill="#D81EBE"/> <path d="M176.719 119.42C176.321 119.42 175.939 119.262 175.658 118.981C175.377 118.699 175.219 118.318 175.219 117.92V109.31C175.219 108.912 175.377 108.531 175.658 108.249C175.939 107.968 176.321 107.81 176.719 107.81C177.117 107.81 177.498 107.968 177.779 108.249C178.061 108.531 178.219 108.912 178.219 109.31V117.92C178.219 118.318 178.061 118.699 177.779 118.981C177.498 119.262 177.117 119.42 176.719 119.42Z" fill="white"/> <path d="M175.43 78.66C175.297 78.66 175.17 78.6073 175.076 78.5135C174.982 78.4198 174.93 78.2926 174.93 78.16V65.91C174.93 65.7774 174.982 65.6502 175.076 65.5564C175.17 65.4627 175.297 65.41 175.43 65.41C175.562 65.41 175.689 65.4627 175.783 65.5564C175.877 65.6502 175.93 65.7774 175.93 65.91V78.16C175.93 78.2926 175.877 78.4198 175.783 78.5135C175.689 78.6073 175.562 78.66 175.43 78.66Z" fill="#381609"/> <path d="M177.91 70.32C177.778 70.32 177.65 70.2673 177.557 70.1736C177.463 70.0798 177.41 69.9526 177.41 69.82V46.57C177.413 46.4382 177.466 46.3125 177.559 46.2193C177.653 46.1261 177.778 46.0726 177.91 46.07C178.043 46.07 178.17 46.1227 178.264 46.2165C178.357 46.3102 178.41 46.4374 178.41 46.57V69.82C178.41 69.9526 178.357 70.0798 178.264 70.1736C178.17 70.2673 178.043 70.32 177.91 70.32Z" fill="#381609"/> <path d="M185.659 91.57C174.989 91.57 169.949 87.26 169.729 87.07C169.531 86.8948 169.41 86.648 169.393 86.3836C169.376 86.1193 169.464 85.859 169.639 85.66C169.814 85.4613 170.061 85.3403 170.326 85.3234C170.59 85.3065 170.85 85.3952 171.049 85.57C171.049 85.57 176.049 89.73 186.339 89.57C193.579 89.44 203.219 89.57 203.339 89.57C203.604 89.57 203.859 89.6754 204.046 89.8629C204.234 90.0504 204.339 90.3048 204.339 90.57C204.339 90.8352 204.234 91.0896 204.046 91.2771C203.859 91.4647 203.604 91.57 203.339 91.57C203.249 91.57 193.639 91.44 186.429 91.57H185.659Z" fill="#381609"/> <path d="M177.66 125.14C178.427 125.14 179.05 124.518 179.05 123.75C179.05 122.982 178.427 122.36 177.66 122.36C176.892 122.36 176.27 122.982 176.27 123.75C176.27 124.518 176.892 125.14 177.66 125.14Z" fill="white"/> <path d="M93.6314 151.73H81.6914C81.5588 151.73 81.4316 151.677 81.3379 151.584C81.2441 151.49 81.1914 151.363 81.1914 151.23C81.194 151.098 81.2475 150.972 81.3407 150.879C81.4339 150.786 81.5596 150.733 81.6914 150.73H93.6314C93.764 150.73 93.8912 150.783 93.985 150.876C94.0787 150.97 94.1314 151.097 94.1314 151.23C94.1314 151.363 94.0787 151.49 93.985 151.584C93.8912 151.677 93.764 151.73 93.6314 151.73Z" fill="#381609"/> <path d="M100.569 151.73H97.6289C97.4963 151.73 97.3691 151.677 97.2754 151.584C97.1816 151.49 97.1289 151.363 97.1289 151.23C97.1289 151.097 97.1816 150.97 97.2754 150.876C97.3691 150.783 97.4963 150.73 97.6289 150.73H100.569C100.701 150.733 100.826 150.786 100.92 150.879C101.013 150.972 101.066 151.098 101.069 151.23C101.069 151.363 101.016 151.49 100.922 151.584C100.829 151.677 100.702 151.73 100.569 151.73Z" fill="#381609"/> <path d="M26.1705 159.18H14.2305C14.0979 159.18 13.9707 159.127 13.8769 159.034C13.7831 158.94 13.7305 158.813 13.7305 158.68C13.7305 158.547 13.7831 158.42 13.8769 158.326C13.9707 158.233 14.0979 158.18 14.2305 158.18H26.1705C26.3031 158.18 26.4303 158.233 26.524 158.326C26.6178 158.42 26.6705 158.547 26.6705 158.68C26.6705 158.813 26.6178 158.94 26.524 159.034C26.4303 159.127 26.3031 159.18 26.1705 159.18Z" fill="#381609"/> <path d="M33.1019 159.18H30.1719C30.0393 159.18 29.9121 159.127 29.8183 159.034C29.7246 158.94 29.6719 158.813 29.6719 158.68C29.6719 158.547 29.7246 158.42 29.8183 158.326C29.9121 158.233 30.0393 158.18 30.1719 158.18H33.1019C33.2345 158.18 33.3617 158.233 33.4554 158.326C33.5492 158.42 33.6019 158.547 33.6019 158.68C33.6019 158.813 33.5492 158.94 33.4554 159.034C33.3617 159.127 33.2345 159.18 33.1019 159.18Z" fill="#381609"/> <path d="M232.709 160.38H13.1992V163.69H232.709V160.38Z" fill="#F9AB75"/> <path d="M232.71 164.69H14.2305C13.9653 164.69 13.7109 164.585 13.5234 164.397C13.3358 164.21 13.2305 163.955 13.2305 163.69V147.69C13.2305 147.425 13.3358 147.17 13.5234 146.983C13.7109 146.795 13.9653 146.69 14.2305 146.69H42.6305C42.7978 146.69 42.9624 146.733 43.1091 146.813C43.2559 146.893 43.3801 147.009 43.4705 147.15C44.1937 148.27 45.0352 149.31 45.9805 150.25C47.9903 152.261 50.4242 153.797 53.1042 154.747C55.7841 155.696 58.6424 156.035 61.47 155.738C64.2977 155.441 67.0231 154.515 69.4472 153.03C71.8712 151.544 73.9326 149.535 75.4805 147.15C75.5708 147.009 75.6951 146.893 75.8418 146.813C75.9886 146.733 76.1531 146.69 76.3205 146.69H106.62C106.788 146.69 106.952 146.733 107.099 146.813C107.246 146.893 107.37 147.009 107.46 147.15C109.193 149.816 111.563 152.007 114.358 153.524C117.152 155.041 120.281 155.835 123.46 155.835C126.64 155.835 129.769 155.041 132.563 153.524C135.357 152.007 137.728 149.816 139.46 147.15C139.551 147.009 139.675 146.893 139.822 146.813C139.969 146.733 140.133 146.69 140.3 146.69H170.61C170.778 146.69 170.942 146.733 171.089 146.813C171.236 146.893 171.36 147.009 171.45 147.15C172.174 148.27 173.015 149.31 173.96 150.25C175.969 152.261 178.402 153.797 181.082 154.747C183.761 155.696 186.618 156.035 189.445 155.738C192.272 155.44 194.997 154.515 197.42 153.029C199.843 151.543 201.904 149.535 203.45 147.15C203.541 147.009 203.665 146.893 203.812 146.813C203.959 146.733 204.123 146.69 204.29 146.69H232.7C232.966 146.69 233.22 146.795 233.408 146.983C233.595 147.17 233.7 147.425 233.7 147.69V163.69C233.7 163.953 233.596 164.206 233.411 164.394C233.226 164.581 232.974 164.687 232.71 164.69ZM15.2305 162.69H231.71V148.69H204.83C203.081 151.242 200.791 153.378 198.123 154.946C195.455 156.513 192.475 157.475 189.394 157.761C186.313 158.047 183.207 157.652 180.296 156.603C177.385 155.553 174.74 153.876 172.55 151.69C171.64 150.765 170.814 149.761 170.08 148.69H140.84C139.091 151.242 136.801 153.378 134.133 154.946C131.465 156.513 128.485 157.475 125.404 157.761C122.323 158.047 119.217 157.652 116.306 156.603C113.395 155.553 110.75 153.876 108.56 151.69C107.645 150.767 106.815 149.763 106.08 148.69H76.8505C75.0999 151.242 72.809 153.378 70.1404 154.946C67.4717 156.514 64.4907 157.475 61.4089 157.761C58.3271 158.048 55.22 157.652 52.3083 156.603C49.3965 155.554 46.7513 153.876 44.5605 151.69C43.6472 150.768 42.8204 149.763 42.0905 148.69H15.2305V162.69Z" fill="#381609"/> <g opacity="0.45"> <path opacity="0.45" d="M82.2419 156.69C81.9055 156.678 81.5796 156.57 81.3019 156.38C80.7648 156.2 80.195 156.139 79.6319 156.2C79.5667 156.219 79.498 156.224 79.4307 156.215C79.3633 156.205 79.2989 156.181 79.2418 156.144C79.1848 156.106 79.1365 156.057 79.1002 156C79.064 155.942 79.0406 155.877 79.0319 155.81C78.961 155.471 78.9959 155.119 79.1318 154.8C79.2678 154.482 79.4982 154.213 79.7919 154.03C80.0924 153.859 80.4436 153.799 80.7838 153.861C81.124 153.923 81.4314 154.104 81.6519 154.37C81.7719 154.52 81.8519 154.69 81.9819 154.83C82.0982 154.954 82.2465 155.044 82.4105 155.09C82.5745 155.136 82.7479 155.136 82.9119 155.09C83.0779 155.013 83.2587 154.972 83.4419 154.97C83.5591 154.999 83.6685 155.053 83.7619 155.13C83.9693 155.253 84.1469 155.42 84.2819 155.62C84.3529 155.721 84.391 155.841 84.391 155.965C84.391 156.088 84.3529 156.209 84.2819 156.31C84.2047 156.39 84.1131 156.454 84.0119 156.5C83.4656 156.749 82.8589 156.836 82.2646 156.749C81.6704 156.662 81.1139 156.405 80.6619 156.01" fill="#FFEDE1"/> <path opacity="0.45" d="M88.3983 155.778C88.7339 155.332 88.3515 154.478 87.5443 153.87C86.737 153.262 85.8105 153.13 85.4749 153.576C85.1393 154.021 85.5216 154.875 86.3289 155.483C87.1362 156.091 88.0627 156.223 88.3983 155.778Z" fill="#FFEDE1"/> <path opacity="0.45" d="M87.5814 159.37C87.9349 159.37 88.2214 159.083 88.2214 158.73C88.2214 158.377 87.9349 158.09 87.5814 158.09C87.2279 158.09 86.9414 158.377 86.9414 158.73C86.9414 159.083 87.2279 159.37 87.5814 159.37Z" fill="#FFEDE1"/> <path opacity="0.45" d="M90.4906 158.34C91.2362 158.34 91.8406 157.906 91.8406 157.37C91.8406 156.834 91.2362 156.4 90.4906 156.4C89.745 156.4 89.1406 156.834 89.1406 157.37C89.1406 157.906 89.745 158.34 90.4906 158.34Z" fill="#FFEDE1"/> <path opacity="0.45" d="M90.8808 154.85C91.3392 154.85 91.7108 154.478 91.7108 154.02C91.7108 153.562 91.3392 153.19 90.8808 153.19C90.4224 153.19 90.0508 153.562 90.0508 154.02C90.0508 154.478 90.4224 154.85 90.8808 154.85Z" fill="#FFEDE1"/> <path opacity="0.45" d="M81.1325 159.22C81.4473 159.22 81.7025 158.965 81.7025 158.65C81.7025 158.335 81.4473 158.08 81.1325 158.08C80.8177 158.08 80.5625 158.335 80.5625 158.65C80.5625 158.965 80.8177 159.22 81.1325 159.22Z" fill="#FFEDE1"/> </g> <g opacity="0.45"> <path opacity="0.45" d="M36.7797 157.05C36.5597 157.05 36.3597 156.94 36.1497 156.85C35.7929 156.729 35.414 156.688 35.0397 156.73C34.986 156.74 34.9309 156.738 34.8776 156.726C34.8244 156.714 34.7741 156.692 34.7297 156.66C34.6841 156.605 34.6531 156.54 34.6397 156.47C34.594 156.243 34.6183 156.008 34.7094 155.796C34.8005 155.583 34.954 155.403 35.1497 155.28C35.3514 155.17 35.5847 155.133 35.8105 155.175C36.0363 155.217 36.2408 155.335 36.3897 155.51C36.4697 155.61 36.5197 155.72 36.6097 155.82C36.6888 155.9 36.7879 155.959 36.8968 155.988C37.0057 156.018 37.1205 156.019 37.2297 155.99C37.3397 155.94 37.4588 155.913 37.5797 155.91C37.6565 155.927 37.7283 155.961 37.7897 156.01C37.9248 156.099 38.0432 156.21 38.1397 156.34C38.1884 156.407 38.2147 156.487 38.2147 156.57C38.2147 156.653 38.1884 156.733 38.1397 156.8C38.0912 156.857 38.0294 156.902 37.9597 156.93C37.5962 157.095 37.1931 157.153 36.7979 157.096C36.4027 157.039 36.032 156.871 35.7297 156.61" fill="#FFEDE1"/> <path opacity="0.45" d="M40.8794 156.443C41.102 156.148 40.8462 155.579 40.3081 155.174C39.7699 154.769 39.1531 154.68 38.9305 154.975C38.7078 155.271 38.9636 155.839 39.5018 156.244C40.04 156.65 40.6567 156.739 40.8794 156.443Z" fill="#FFEDE1"/> <path opacity="0.45" d="M40.3402 158.84C40.5776 158.84 40.7702 158.647 40.7702 158.41C40.7702 158.173 40.5776 157.98 40.3402 157.98C40.1027 157.98 39.9102 158.173 39.9102 158.41C39.9102 158.647 40.1027 158.84 40.3402 158.84Z" fill="#FFEDE1"/> <path opacity="0.45" d="M42.2789 158.15C42.776 158.15 43.1789 157.863 43.1789 157.51C43.1789 157.157 42.776 156.87 42.2789 156.87C41.7818 156.87 41.3789 157.157 41.3789 157.51C41.3789 157.863 41.7818 158.15 42.2789 158.15Z" fill="#FFEDE1"/> <path opacity="0.45" d="M42.5383 155.83C42.842 155.83 43.0883 155.584 43.0883 155.28C43.0883 154.976 42.842 154.73 42.5383 154.73C42.2345 154.73 41.9883 154.976 41.9883 155.28C41.9883 155.584 42.2345 155.83 42.5383 155.83Z" fill="#FFEDE1"/> <path opacity="0.45" d="M36.0402 158.74C36.25 158.74 36.4202 158.57 36.4202 158.36C36.4202 158.15 36.25 157.98 36.0402 157.98C35.8303 157.98 35.6602 158.15 35.6602 158.36C35.6602 158.57 35.8303 158.74 36.0402 158.74Z" fill="#FFEDE1"/> </g> <g opacity="0.45"> <path opacity="0.45" d="M221.398 156.1C221.178 156.1 220.978 155.99 220.778 155.9C220.418 155.78 220.036 155.739 219.658 155.78C219.553 155.794 219.447 155.769 219.358 155.71C219.305 155.661 219.272 155.593 219.268 155.52C219.219 155.294 219.24 155.059 219.33 154.846C219.419 154.633 219.572 154.452 219.768 154.33C219.97 154.22 220.203 154.183 220.429 154.225C220.655 154.267 220.859 154.385 221.008 154.56C221.076 154.664 221.149 154.764 221.228 154.86C221.305 154.944 221.404 155.005 221.513 155.037C221.622 155.069 221.738 155.07 221.848 155.04C221.958 154.99 222.077 154.963 222.198 154.96C222.275 154.977 222.347 155.011 222.408 155.06C222.549 155.146 222.671 155.258 222.768 155.39C222.814 155.458 222.839 155.538 222.839 155.62C222.839 155.702 222.814 155.782 222.768 155.85C222.719 155.906 222.657 155.951 222.588 155.98C222.224 156.146 221.82 156.204 221.424 156.145C221.029 156.087 220.658 155.915 220.358 155.65" fill="#FFEDE1"/> <path opacity="0.45" d="M225.331 154.954C225.553 154.658 225.296 154.09 224.757 153.686C224.218 153.282 223.601 153.194 223.379 153.49C223.157 153.786 223.414 154.354 223.953 154.758C224.492 155.162 225.109 155.25 225.331 154.954Z" fill="#FFEDE1"/> <path opacity="0.45" d="M224.957 157.89C225.195 157.89 225.387 157.697 225.387 157.46C225.387 157.222 225.195 157.03 224.957 157.03C224.72 157.03 224.527 157.222 224.527 157.46C224.527 157.697 224.72 157.89 224.957 157.89Z" fill="#FFEDE1"/> <path opacity="0.45" d="M226.9 157.2C227.397 157.2 227.8 156.913 227.8 156.56C227.8 156.207 227.397 155.92 226.9 155.92C226.403 155.92 226 156.207 226 156.56C226 156.913 226.403 157.2 226.9 157.2Z" fill="#FFEDE1"/> <path opacity="0.45" d="M227.159 154.88C227.463 154.88 227.709 154.634 227.709 154.33C227.709 154.026 227.463 153.78 227.159 153.78C226.856 153.78 226.609 154.026 226.609 154.33C226.609 154.634 226.856 154.88 227.159 154.88Z" fill="#FFEDE1"/> <path opacity="0.45" d="M220.657 157.79C220.867 157.79 221.037 157.62 221.037 157.41C221.037 157.2 220.867 157.03 220.657 157.03C220.447 157.03 220.277 157.2 220.277 157.41C220.277 157.62 220.447 157.79 220.657 157.79Z" fill="#FFEDE1"/> </g> <g opacity="0.45"> <path opacity="0.45" d="M157.239 155.72C156.905 155.706 156.58 155.603 156.299 155.42C155.763 155.236 155.193 155.171 154.629 155.23C154.55 155.245 154.468 155.243 154.389 155.226C154.31 155.209 154.236 155.176 154.169 155.13C154.096 155.05 154.051 154.948 154.039 154.84C153.965 154.502 153.997 154.149 154.131 153.831C154.265 153.512 154.495 153.242 154.789 153.06C155.092 152.888 155.444 152.828 155.786 152.89C156.128 152.952 156.437 153.133 156.659 153.4C156.757 153.56 156.864 153.713 156.979 153.86C157.097 153.985 157.247 154.076 157.413 154.121C157.579 154.167 157.754 154.167 157.919 154.12C158.082 154.041 158.259 154 158.439 154C158.557 154.029 158.666 154.083 158.759 154.16C158.966 154.288 159.146 154.454 159.289 154.65C159.358 154.752 159.394 154.872 159.394 154.995C159.394 155.118 159.358 155.238 159.289 155.34C159.212 155.42 159.121 155.484 159.019 155.53C158.474 155.782 157.866 155.87 157.272 155.783C156.677 155.696 156.12 155.438 155.669 155.04" fill="#FFEDE1"/> <path opacity="0.45" d="M163.398 154.809C163.734 154.363 163.352 153.509 162.544 152.901C161.737 152.293 160.81 152.161 160.475 152.606C160.139 153.052 160.522 153.906 161.329 154.514C162.136 155.122 163.063 155.254 163.398 154.809Z" fill="#FFEDE1"/> <path opacity="0.45" d="M162.581 158.4C162.935 158.4 163.221 158.113 163.221 157.76C163.221 157.407 162.935 157.12 162.581 157.12C162.228 157.12 161.941 157.407 161.941 157.76C161.941 158.113 162.228 158.4 162.581 158.4Z" fill="#FFEDE1"/> <path opacity="0.45" d="M165.491 157.37C166.236 157.37 166.841 156.936 166.841 156.4C166.841 155.864 166.236 155.43 165.491 155.43C164.745 155.43 164.141 155.864 164.141 156.4C164.141 156.936 164.745 157.37 165.491 157.37Z" fill="#FFEDE1"/> <path opacity="0.45" d="M165.881 153.88C166.339 153.88 166.711 153.508 166.711 153.05C166.711 152.592 166.339 152.22 165.881 152.22C165.422 152.22 165.051 152.592 165.051 153.05C165.051 153.508 165.422 153.88 165.881 153.88Z" fill="#FFEDE1"/> <path opacity="0.45" d="M156.129 158.25C156.443 158.25 156.699 157.995 156.699 157.68C156.699 157.365 156.443 157.11 156.129 157.11C155.814 157.11 155.559 157.365 155.559 157.68C155.559 157.995 155.814 158.25 156.129 158.25Z" fill="#FFEDE1"/> </g> <path opacity="0.45" d="M101.351 155.72C105.018 155.72 107.991 155.339 107.991 154.87C107.991 154.401 105.018 154.02 101.351 154.02C97.6838 154.02 94.7109 154.401 94.7109 154.87C94.7109 155.339 97.6838 155.72 101.351 155.72Z" fill="#FFEDE1"/> <path opacity="0.45" d="M28.2181 154.04C31.8853 154.04 34.8581 153.659 34.8581 153.19C34.8581 152.721 31.8853 152.34 28.2181 152.34C24.551 152.34 21.5781 152.721 21.5781 153.19C21.5781 153.659 24.551 154.04 28.2181 154.04Z" fill="#FFEDE1"/> <path opacity="0.45" d="M146.312 158.53C149.979 158.53 152.952 158.149 152.952 157.68C152.952 157.211 149.979 156.83 146.312 156.83C142.645 156.83 139.672 157.211 139.672 157.68C139.672 158.149 142.645 158.53 146.312 158.53Z" fill="#FFEDE1"/> <path opacity="0.45" d="M211.839 154.73C215.506 154.73 218.479 154.349 218.479 153.88C218.479 153.411 215.506 153.03 211.839 153.03C208.172 153.03 205.199 153.411 205.199 153.88C205.199 154.349 208.172 154.73 211.839 154.73Z" fill="#FFEDE1"/> <path d="M240.17 54.09H6.76953V62.94H240.17V54.09Z" fill="#FFCDAB"/> <path d="M240.17 54.09H6.76953V57.99H240.17V54.09Z" fill="white"/> <path d="M228 63.34H206C205.602 63.34 205.221 63.1819 204.939 62.9006C204.658 62.6193 204.5 62.2378 204.5 61.84C204.5 61.4421 204.658 61.0606 204.939 60.7793C205.221 60.498 205.602 60.34 206 60.34H228C228.398 60.34 228.779 60.498 229.061 60.7793C229.342 61.0606 229.5 61.4421 229.5 61.84C229.5 62.2378 229.342 62.6193 229.061 62.9006C228.779 63.1819 228.398 63.34 228 63.34Z" fill="#F9AB75"/> <path d="M239.4 64.25H6C5.73478 64.25 5.48043 64.1446 5.29289 63.9571C5.10536 63.7695 5 63.5152 5 63.25V54.41C5 54.1448 5.10536 53.8904 5.29289 53.7029C5.48043 53.5153 5.73478 53.41 6 53.41H239.4C239.665 53.41 239.92 53.5153 240.107 53.7029C240.295 53.8904 240.4 54.1448 240.4 54.41V63.25C240.4 63.5152 240.295 63.7695 240.107 63.9571C239.92 64.1446 239.665 64.25 239.4 64.25ZM7 62.25H238.4V55.41H7V62.25Z" fill="#381609"/> <path d="M106.741 32.3C106.66 32.2977 106.581 32.2766 106.51 32.2384C106.439 32.2002 106.377 32.146 106.331 32.08C106.259 31.9714 106.231 31.8395 106.254 31.7112C106.276 31.5829 106.346 31.468 106.451 31.39L108.951 29.61C109.005 29.5719 109.065 29.5448 109.13 29.5302C109.194 29.5157 109.261 29.5139 109.326 29.525C109.391 29.5362 109.453 29.56 109.509 29.5952C109.564 29.6304 109.613 29.6762 109.651 29.73C109.689 29.7839 109.716 29.8447 109.731 29.909C109.745 29.9733 109.747 30.0399 109.736 30.1049C109.725 30.1699 109.701 30.232 109.666 30.2878C109.63 30.3436 109.585 30.3919 109.531 30.43L107.001 32.2C106.927 32.2594 106.836 32.2944 106.741 32.3Z" fill="#381609"/> <path d="M108.749 35.06C108.668 35.0593 108.588 35.0389 108.517 35.0006C108.446 34.9623 108.384 34.9071 108.339 34.84C108.301 34.7864 108.275 34.7259 108.261 34.6619C108.247 34.598 108.246 34.5319 108.258 34.4676C108.271 34.4032 108.295 34.342 108.332 34.2875C108.368 34.2329 108.415 34.1862 108.469 34.15L113.969 30.37C114.079 30.2957 114.214 30.2682 114.345 30.2936C114.475 30.3189 114.59 30.3949 114.664 30.505C114.738 30.6151 114.766 30.7501 114.741 30.8804C114.715 31.0108 114.639 31.1257 114.529 31.2L108.999 35C108.922 35.0406 108.836 35.0612 108.749 35.06Z" fill="#381609"/> <path d="M171.698 40.24L203.578 40.24C207.897 40.24 211.398 36.7389 211.398 32.42C211.398 28.1011 207.897 24.6 203.578 24.6L171.698 24.6C167.38 24.6 163.878 28.1011 163.878 32.42C163.878 36.7389 167.38 40.24 171.698 40.24Z" fill="white"/> <path opacity="0.49" d="M194.328 24.61H201.998C207.938 24.61 212.788 28.11 212.788 32.43C212.741 33.5437 212.429 34.6303 211.878 35.5991C211.327 36.5679 210.552 37.391 209.618 38C207.373 39.5226 204.71 40.3089 201.998 40.25H194.338C197.044 40.3094 199.701 39.5228 201.938 38C202.868 37.3974 203.64 36.581 204.19 35.6189C204.74 34.6568 205.051 33.5771 205.098 32.47C205.098 28.11 200.268 24.61 194.328 24.61Z" fill="#B3E2FF"/> <path d="M203.898 41.75H169.898C167.511 41.75 165.222 40.8018 163.534 39.1139C161.847 37.4261 160.898 35.1369 160.898 32.75V32.1C160.898 29.713 161.847 27.4238 163.534 25.736C165.222 24.0482 167.511 23.1 169.898 23.1H203.898C206.285 23.1 208.575 24.0482 210.262 25.736C211.95 27.4238 212.898 29.713 212.898 32.1V32.75C212.898 35.1369 211.95 37.4261 210.262 39.1139C208.575 40.8018 206.285 41.75 203.898 41.75ZM169.898 26.11C168.307 26.11 166.781 26.7421 165.656 27.8673C164.531 28.9926 163.898 30.5187 163.898 32.11V32.76C163.898 34.3513 164.531 35.8774 165.656 37.0026C166.781 38.1278 168.307 38.76 169.898 38.76H203.898C205.49 38.76 207.016 38.1278 208.141 37.0026C209.266 35.8774 209.898 34.3513 209.898 32.76V32.1C209.898 30.5087 209.266 28.9826 208.141 27.8573C207.016 26.7321 205.49 26.1 203.898 26.1L169.898 26.11Z" fill="#381609"/> <path d="M170.05 32C169.97 32.0013 169.89 31.9828 169.819 31.9462C169.747 31.9095 169.686 31.8559 169.64 31.79C169.602 31.7362 169.574 31.6754 169.559 31.6111C169.545 31.5467 169.543 31.4801 169.554 31.415C169.565 31.3499 169.589 31.2877 169.624 31.2319C169.66 31.1761 169.706 31.1279 169.76 31.09L172.26 29.32C172.313 29.2819 172.373 29.2547 172.436 29.2401C172.5 29.2255 172.566 29.2237 172.63 29.2349C172.694 29.2461 172.756 29.27 172.811 29.3052C172.866 29.3404 172.913 29.3862 172.95 29.44C172.988 29.4937 173.016 29.5545 173.03 29.6189C173.045 29.6833 173.047 29.7499 173.036 29.815C173.025 29.8801 173.001 29.9423 172.965 29.9981C172.93 30.0539 172.884 30.1021 172.83 30.14L170.34 31.91C170.254 31.9682 170.153 31.9995 170.05 32Z" fill="#381609"/> <path d="M172.058 34.73C171.977 34.7302 171.897 34.7101 171.826 34.6717C171.754 34.6333 171.693 34.5777 171.648 34.51C171.611 34.4556 171.584 34.3943 171.57 34.3295C171.556 34.2648 171.555 34.1979 171.567 34.1328C171.579 34.0677 171.604 34.0056 171.64 33.9502C171.677 33.8947 171.724 33.8471 171.778 33.81L177.268 30C177.322 29.9584 177.384 29.9282 177.449 29.9112C177.515 29.8941 177.583 29.8906 177.65 29.9009C177.717 29.9112 177.782 29.935 177.839 29.9709C177.897 30.0068 177.947 30.054 177.985 30.1098C178.024 30.1655 178.051 30.2285 178.065 30.295C178.078 30.3614 178.078 30.43 178.064 30.4964C178.051 30.5629 178.024 30.6258 177.985 30.6814C177.946 30.7371 177.896 30.7842 177.838 30.82L172.338 34.6C172.261 34.6723 172.163 34.7179 172.058 34.73Z" fill="#381609"/> <path d="M43.6086 41.04L75.4886 41.04C79.8075 41.04 83.3086 37.5388 83.3086 33.22C83.3086 28.9011 79.8075 25.4 75.4886 25.4L43.6086 25.4C39.2897 25.4 35.7886 28.9011 35.7886 33.22C35.7886 37.5388 39.2897 41.04 43.6086 41.04Z" fill="white"/> <path opacity="0.49" d="M66.25 25.41H73.91C79.91 25.41 84.7 28.91 84.7 33.23C84.6482 34.336 84.3347 35.4139 83.7854 36.3752C83.2361 37.3365 82.4665 38.1538 81.54 38.76C79.2969 40.2987 76.6297 41.0992 73.91 41.05H66.25C68.9669 41.1018 71.6318 40.301 73.87 38.76C74.791 38.1505 75.5546 37.3317 76.0986 36.3706C76.6426 35.4095 76.9515 34.3333 77 33.23C77 28.91 72.2 25.41 66.25 25.41Z" fill="#B3E2FF"/> <path d="M75.8203 42.54H41.8203C39.4334 42.54 37.1442 41.5918 35.4564 39.9039C33.7685 38.2161 32.8203 35.9269 32.8203 33.54V32.9C32.8203 30.513 33.7685 28.2238 35.4564 26.536C37.1442 24.8482 39.4334 23.9 41.8203 23.9H75.8203C78.2073 23.9 80.4964 24.8482 82.1843 26.536C83.8721 28.2238 84.8203 30.513 84.8203 32.9V33.55C84.8177 35.9352 83.8683 38.2218 82.1807 39.9075C80.4932 41.5931 78.2055 42.54 75.8203 42.54ZM41.8203 26.91C40.229 26.91 38.7029 27.5421 37.5777 28.6673C36.4525 29.7925 35.8203 31.3187 35.8203 32.91V33.56C35.8203 35.1513 36.4525 36.6774 37.5777 37.8026C38.7029 38.9278 40.229 39.56 41.8203 39.56H75.8203C77.4116 39.56 78.9377 38.9278 80.063 37.8026C81.1882 36.6774 81.8203 35.1513 81.8203 33.56V32.9C81.8203 31.3087 81.1882 29.7825 80.063 28.6573C78.9377 27.5321 77.4116 26.9 75.8203 26.9L41.8203 26.91Z" fill="#381609"/> <path d="M41.9992 32.76C41.9189 32.7613 41.8395 32.7428 41.768 32.7062C41.6965 32.6696 41.6351 32.6159 41.5892 32.55C41.5143 32.4406 41.4849 32.3064 41.5073 32.1757C41.5297 32.045 41.6021 31.9282 41.7092 31.85L44.2092 30.08C44.2629 30.0416 44.3238 30.0143 44.3881 29.9996C44.4525 29.9848 44.5191 29.983 44.5842 29.9941C44.6493 30.0053 44.7115 30.0292 44.7673 30.0646C44.8231 30.0999 44.8713 30.1459 44.9092 30.2C44.9817 30.3102 45.0096 30.4437 44.9873 30.5737C44.965 30.7036 44.8942 30.8203 44.7892 30.9L42.2892 32.67C42.2036 32.7282 42.1027 32.7595 41.9992 32.76Z" fill="#381609"/> <path d="M43.9998 35.52C43.9193 35.5222 43.8396 35.5041 43.768 35.4674C43.6963 35.4307 43.635 35.3766 43.5898 35.31C43.5519 35.2556 43.5252 35.1943 43.5112 35.1296C43.4973 35.0648 43.4963 34.9979 43.5084 34.9328C43.5205 34.8677 43.5454 34.8056 43.5817 34.7502C43.618 34.6948 43.6649 34.6471 43.7198 34.61L49.2098 30.84C49.2641 30.8021 49.3255 30.7754 49.3902 30.7614C49.455 30.7475 49.5219 30.7465 49.587 30.7586C49.6521 30.7707 49.7142 30.7956 49.7696 30.8319C49.825 30.8682 49.8727 30.9151 49.9098 30.97C49.9474 31.0235 49.9739 31.0841 49.9878 31.148C50.0016 31.212 50.0025 31.2781 49.9904 31.3424C49.9783 31.4067 49.9534 31.468 49.9172 31.5225C49.8811 31.5771 49.8343 31.6238 49.7798 31.66L44.2798 35.44C44.1976 35.4963 44.0993 35.5243 43.9998 35.52Z" fill="#381609"/> <path d="M237.96 113.31H9.51953V120.14H237.96V113.31Z" fill="#DCE0E2"/> <path d="M237.768 117.05H9.32812V120.14H237.768V117.05Z" fill="#A0A6A7"/> <path d="M15.9419 116.88C15.8812 116.88 15.8214 116.866 15.7675 116.838C15.7135 116.81 15.6671 116.769 15.6319 116.72C15.6033 116.68 15.5829 116.635 15.5719 116.587C15.5609 116.539 15.5595 116.49 15.5679 116.441C15.5763 116.393 15.5942 116.346 15.6207 116.305C15.6471 116.264 15.6815 116.228 15.7219 116.2L17.2219 115.13C17.2626 115.101 17.3086 115.08 17.3573 115.069C17.406 115.058 17.4564 115.057 17.5056 115.065C17.5548 115.074 17.6019 115.092 17.6442 115.118C17.6864 115.145 17.723 115.179 17.7519 115.22C17.7806 115.26 17.801 115.305 17.812 115.353C17.823 115.401 17.8243 115.45 17.8159 115.499C17.8076 115.547 17.7896 115.594 17.7632 115.635C17.7367 115.676 17.7023 115.712 17.6619 115.74L16.1519 116.81C16.0899 116.853 16.0171 116.877 15.9419 116.88Z" fill="#381609"/> <path d="M15.9419 118.5C15.8812 118.5 15.8214 118.486 15.7675 118.458C15.7135 118.43 15.6671 118.389 15.6319 118.34C15.6033 118.3 15.5829 118.255 15.5719 118.207C15.5609 118.159 15.5595 118.11 15.5679 118.061C15.5763 118.013 15.5942 117.966 15.6207 117.925C15.6471 117.884 15.6815 117.848 15.7219 117.82L17.2219 116.75C17.2626 116.721 17.3086 116.7 17.3573 116.689C17.406 116.678 17.4564 116.677 17.5056 116.685C17.5548 116.694 17.6019 116.712 17.6442 116.738C17.6864 116.765 17.723 116.799 17.7519 116.84C17.7806 116.88 17.801 116.925 17.812 116.973C17.823 117.021 17.8243 117.07 17.8159 117.119C17.8076 117.167 17.7896 117.214 17.7632 117.255C17.7367 117.296 17.7023 117.332 17.6619 117.36L16.1519 118.43C16.0921 118.477 16.0179 118.502 15.9419 118.5Z" fill="#381609"/> <path d="M98.4843 116.101C98.5767 115.585 97.8627 115.025 96.8895 114.851C95.9164 114.677 95.0526 114.955 94.9602 115.471C94.8679 115.987 95.5819 116.547 96.555 116.721C97.5282 116.895 98.3919 116.618 98.4843 116.101Z" fill="#A0A6A7"/> <path d="M150.341 115.6H131.871C131.606 115.6 131.352 115.495 131.164 115.307C130.976 115.12 130.871 114.865 130.871 114.6C130.871 114.335 130.976 114.08 131.164 113.893C131.352 113.705 131.606 113.6 131.871 113.6H150.341C150.606 113.6 150.861 113.705 151.048 113.893C151.236 114.08 151.341 114.335 151.341 114.6C151.341 114.865 151.236 115.12 151.048 115.307C150.861 115.495 150.606 115.6 150.341 115.6Z" fill="white"/> <path d="M9.91 128.73H1C0.734784 128.73 0.48043 128.625 0.292893 128.437C0.105357 128.25 0 127.995 0 127.73V106.26C0 105.995 0.105357 105.74 0.292893 105.553C0.48043 105.365 0.734784 105.26 1 105.26H9.91C10.1752 105.26 10.4296 105.365 10.6171 105.553C10.8046 105.74 10.91 105.995 10.91 106.26V127.73C10.91 127.995 10.8046 128.25 10.6171 128.437C10.4296 128.625 10.1752 128.73 9.91 128.73ZM2 126.73H8.91V107.26H2V126.73Z" fill="#381609"/> <path d="M247.25 128.73H238.34C238.075 128.73 237.82 128.625 237.633 128.437C237.445 128.25 237.34 127.995 237.34 127.73V106.26C237.34 105.995 237.445 105.74 237.633 105.553C237.82 105.365 238.075 105.26 238.34 105.26H247.25C247.515 105.26 247.769 105.365 247.957 105.553C248.144 105.74 248.25 105.995 248.25 106.26V127.73C248.25 127.995 248.144 128.25 247.957 128.437C247.769 128.625 247.515 128.73 247.25 128.73ZM239.34 126.73H246.25V107.26H239.34V126.73Z" fill="#381609"/> <path d="M238.34 121.19H9.91016C9.64494 121.19 9.39059 121.085 9.20305 120.897C9.01551 120.71 8.91016 120.455 8.91016 120.19V113.36C8.91016 113.095 9.01551 112.84 9.20305 112.653C9.39059 112.465 9.64494 112.36 9.91016 112.36H84.7802C85.0454 112.36 85.2997 112.465 85.4873 112.653C85.6748 112.84 85.7802 113.095 85.7802 113.36C85.7802 113.625 85.6748 113.88 85.4873 114.067C85.2997 114.255 85.0454 114.36 84.7802 114.36H10.9102V119.19H237.34V114.36H93.0002C92.7349 114.36 92.4806 114.255 92.293 114.067C92.1055 113.88 92.0002 113.625 92.0002 113.36C92.0002 113.095 92.1055 112.84 92.293 112.653C92.4806 112.465 92.7349 112.36 93.0002 112.36H238.3C238.565 112.36 238.82 112.465 239.007 112.653C239.195 112.84 239.3 113.095 239.3 113.36V120.19C239.3 120.448 239.201 120.697 239.022 120.883C238.843 121.07 238.598 121.18 238.34 121.19Z" fill="#381609"/> <path d="M125.742 17.47C127.614 17.47 129.132 15.7463 129.132 13.62C129.132 11.4937 127.614 9.77002 125.742 9.77002C123.869 9.77002 122.352 11.4937 122.352 13.62C122.352 15.7463 123.869 17.47 125.742 17.47Z" fill="#4EF94E"/> <path d="M124.87 18.47C123.744 18.47 122.644 18.1363 121.708 17.511C120.773 16.8858 120.043 15.9971 119.613 14.9574C119.182 13.9177 119.069 12.7737 119.289 11.6699C119.509 10.5662 120.05 9.55229 120.846 8.75653C121.642 7.96077 122.656 7.41885 123.76 7.1993C124.863 6.97975 126.007 7.09243 127.047 7.52309C128.087 7.95376 128.976 8.68306 129.601 9.61877C130.226 10.5545 130.56 11.6546 130.56 12.78C130.56 13.5272 130.413 14.2671 130.127 14.9574C129.841 15.6478 129.421 16.275 128.893 16.8034C128.365 17.3318 127.738 17.7509 127.047 18.0368C126.357 18.3228 125.617 18.47 124.87 18.47ZM124.87 9.08997C124.14 9.08997 123.426 9.30638 122.82 9.71185C122.213 10.1173 121.74 10.6936 121.461 11.3679C121.181 12.0421 121.108 12.7841 121.251 13.4999C121.393 14.2156 121.744 14.8731 122.26 15.3892C122.777 15.9052 123.434 16.2567 124.15 16.3991C124.866 16.5414 125.608 16.4684 126.282 16.1891C126.956 15.9098 127.532 15.4368 127.938 14.83C128.343 14.2232 128.56 13.5098 128.56 12.78C128.56 11.8013 128.171 10.8628 127.479 10.1707C126.787 9.47874 125.848 9.08997 124.87 9.08997Z" fill="#381609"/> <path d="M122.57 84.09C124.442 84.09 125.96 82.3663 125.96 80.24C125.96 78.1137 124.442 76.39 122.57 76.39C120.697 76.39 119.18 78.1137 119.18 80.24C119.18 82.3663 120.697 84.09 122.57 84.09Z" fill="#4EF94E"/> <path d="M121.702 85.09C120.576 85.09 119.476 84.7563 118.541 84.131C117.605 83.5058 116.876 82.6171 116.445 81.5774C116.014 80.5377 115.902 79.3937 116.121 78.2899C116.341 77.1862 116.883 76.1723 117.678 75.3765C118.474 74.5808 119.488 74.0388 120.592 73.8193C121.695 73.5997 122.839 73.7124 123.879 74.1431C124.919 74.5738 125.808 75.3031 126.433 76.2388C127.058 77.1745 127.392 78.2746 127.392 79.4C127.389 80.9082 126.789 82.354 125.722 83.4205C124.656 84.487 123.21 85.0873 121.702 85.09ZM121.702 75.71C120.972 75.71 120.258 75.9264 119.652 76.3318C119.045 76.7373 118.572 77.3136 118.293 77.9879C118.013 78.6621 117.94 79.4041 118.083 80.1198C118.225 80.8356 118.576 81.4931 119.092 82.0092C119.609 82.5252 120.266 82.8767 120.982 83.0191C121.698 83.1614 122.44 83.0884 123.114 82.8091C123.788 82.5298 124.364 82.0568 124.77 81.45C125.175 80.8432 125.392 80.1298 125.392 79.4C125.389 78.4221 124.999 77.4851 124.308 76.7937C123.617 76.1022 122.68 75.7126 121.702 75.71Z" fill="#381609"/> <path d="M188.79 19.62C190.734 19.62 192.31 18.0441 192.31 16.1C192.31 14.156 190.734 12.58 188.79 12.58C186.845 12.58 185.27 14.156 185.27 16.1C185.27 18.0441 186.845 19.62 188.79 19.62Z" fill="#F759D9"/> <path d="M188.479 20.44C187.541 20.4444 186.618 20.2173 185.79 19.7789C184.961 19.3405 184.254 18.7044 183.731 17.927C183.208 17.1496 182.885 16.255 182.791 15.3227C182.696 14.3904 182.834 13.4492 183.191 12.5828C183.548 11.7163 184.113 10.9515 184.837 10.3561C185.56 9.76075 186.42 9.35332 187.339 9.17C188.258 8.98669 189.208 9.03316 190.104 9.30531C191.001 9.57745 191.816 10.0668 192.479 10.73C193.272 11.5245 193.812 12.5359 194.032 13.6369C194.251 14.7379 194.14 15.8793 193.713 16.9173C193.285 17.9554 192.56 18.8438 191.629 19.4706C190.697 20.0974 189.601 20.4347 188.479 20.44ZM188.479 11.06C187.625 11.0604 186.798 11.3567 186.138 11.8985C185.478 12.4404 185.027 13.1942 184.861 14.0315C184.694 14.8689 184.824 15.7379 185.226 16.4907C185.629 17.2434 186.28 17.8332 187.069 18.1596C187.858 18.486 188.736 18.5288 189.552 18.2807C190.369 18.0326 191.075 17.509 191.549 16.799C192.023 16.0891 192.236 15.2367 192.152 14.3872C192.068 13.5376 191.692 12.7435 191.089 12.14C190.746 11.7974 190.339 11.5257 189.891 11.3404C189.443 11.1551 188.963 11.0598 188.479 11.06Z" fill="#381609"/> <path d="M70.4883 15.18C73.5258 15.18 75.9883 12.7176 75.9883 9.67999C75.9883 6.64243 73.5258 4.17999 70.4883 4.17999C67.4507 4.17999 64.9883 6.64243 64.9883 9.67999C64.9883 12.7176 67.4507 15.18 70.4883 15.18Z" fill="#FFCCB3"/> <path d="M70.1813 15.89C68.3418 15.8884 66.5598 15.2489 65.139 14.0806C63.7181 12.9123 62.7464 11.2874 62.3894 9.48285C62.0325 7.67834 62.3123 5.80586 63.1812 4.18455C64.0502 2.56323 65.4544 1.29342 67.1548 0.591512C68.8551 -0.110395 70.7462 -0.200954 72.5058 0.335268C74.2654 0.87149 75.7846 2.00131 76.8045 3.53217C77.8244 5.06303 78.2818 6.9002 78.0989 8.73057C77.916 10.5609 77.104 12.2712 75.8013 13.57C75.0632 14.3074 74.1868 14.8919 73.2225 15.29C72.2581 15.6881 71.2246 15.892 70.1813 15.89ZM70.1813 1.99999C68.8044 1.99893 67.4697 2.47546 66.4048 3.34834C65.3399 4.22123 64.6107 5.43642 64.3415 6.78678C64.0723 8.13713 64.2798 9.53905 64.9286 10.7535C65.5774 11.968 66.6273 12.9199 67.8994 13.4469C69.1715 13.9739 70.587 14.0434 71.9046 13.6436C73.2221 13.2437 74.3603 12.3993 75.1249 11.2542C75.8896 10.1091 76.2334 8.73424 76.0978 7.36401C75.9622 5.99378 75.3555 4.71299 74.3813 3.73999C73.8301 3.18795 73.1754 2.7501 72.4546 2.45152C71.7339 2.15294 70.9614 1.9995 70.1813 1.99999Z" fill="#381609"/> <g opacity="0.7"> <path opacity="0.7" d="M201.473 34.61C202.362 34.61 203.083 33.5803 203.083 32.31C203.083 31.0398 202.362 30.01 201.473 30.01C200.584 30.01 199.863 31.0398 199.863 32.31C199.863 33.5803 200.584 34.61 201.473 34.61Z" fill="#B3E2FF"/> <path opacity="0.7" d="M198.273 36.52C198.776 36.52 199.183 36.1126 199.183 35.61C199.183 35.1074 198.776 34.7 198.273 34.7C197.771 34.7 197.363 35.1074 197.363 35.61C197.363 36.1126 197.771 36.52 198.273 36.52Z" fill="#B3E2FF"/> <path opacity="0.7" d="M197.382 31.07C198.138 31.07 198.752 30.4566 198.752 29.7C198.752 28.9434 198.138 28.33 197.382 28.33C196.625 28.33 196.012 28.9434 196.012 29.7C196.012 30.4566 196.625 31.07 197.382 31.07Z" fill="#B3E2FF"/> </g> <path d="M188.199 104.128C189.22 103.75 189.445 101.819 188.703 99.8148C187.961 97.8105 186.532 96.492 185.511 96.8698C184.491 97.2476 184.266 99.1787 185.008 101.183C185.75 103.187 187.179 104.506 188.199 104.128Z" fill="#FC90ED"/> </g> <defs> <clipPath id="clip0"> <rect width="248.25" height="164.69" fill="white"/> </clipPath> </defs> </svg> 