<svg width="47" height="72" viewBox="0 0 47 72" fill="none" xmlns="http://www.w3.org/2000/svg"> <g clip-path="url(#clip0)"> <path d="M20.036 7.4741L17.6328 6.82251L17.2324 8.29919L19.6357 8.95079L20.036 7.4741Z" fill="#F2563D"/> <path d="M20.2898 7.03998L17.8398 5.36998L18.5098 3.97998L20.7598 5.50998L20.2898 7.03998Z" fill="#F2563D"/> <path d="M23.009 4.86932L22.1406 2.53564L20.7067 3.06921L21.575 5.40289L23.009 4.86932Z" fill="#F2563D"/> <path d="M25.6926 3.88934L24.8242 1.55566L23.3903 2.08923L24.2586 4.42291L25.6926 3.88934Z" fill="#F2563D"/> <path d="M19.2626 10.3401L16.8594 9.68848L16.459 11.1652L18.8622 11.8168L19.2626 10.3401Z" fill="#F2563D"/> <path d="M18.7906 13.6H18.6906C18.5934 13.572 18.511 13.5073 18.4606 13.4196C18.4102 13.3319 18.3959 13.2281 18.4206 13.13L20.5206 5.38004C20.5386 5.32153 20.5696 5.26781 20.6111 5.22282C20.6526 5.17782 20.7037 5.14271 20.7606 5.12004L27.6406 2.66004L26.9406 0.870039L18.8106 4.00004L16.4706 12.62C16.4591 12.6696 16.4375 12.7163 16.4072 12.7571C16.3769 12.798 16.3385 12.8321 16.2944 12.8575C16.2503 12.8828 16.2014 12.8988 16.1509 12.9044C16.1003 12.91 16.0492 12.9051 16.0006 12.89C15.9034 12.862 15.821 12.7973 15.7706 12.7096C15.7202 12.6219 15.7059 12.5181 15.7306 12.42L18.1206 3.61004C18.1372 3.55085 18.1677 3.49644 18.2094 3.45125C18.2511 3.40607 18.3029 3.37139 18.3606 3.35004L27.0006 3.89852e-05C27.0949 -0.0330645 27.1983 -0.0286962 27.2895 0.0122423C27.3807 0.0531808 27.4526 0.127564 27.4906 0.220039L28.4906 2.71004C28.5128 2.75692 28.5243 2.80815 28.5243 2.86004C28.5243 2.91192 28.5128 2.96316 28.4906 3.01004C28.4703 3.05712 28.4401 3.09932 28.4022 3.13381C28.3642 3.1683 28.3194 3.19429 28.2706 3.21004L21.2106 5.75004L19.1606 13.31C19.1388 13.392 19.091 13.4647 19.0242 13.5171C18.9574 13.5694 18.8754 13.5985 18.7906 13.6Z" fill="#3E3126"/> <path d="M27.9999 67H8.99986C8.39255 67.0007 7.80836 66.7672 7.36881 66.3481C6.92925 65.929 6.66817 65.3567 6.63986 64.75L3.59986 18.09C3.58635 17.7836 3.63507 17.4776 3.74308 17.1906C3.8511 16.9035 4.01616 16.6413 4.22831 16.4198C4.44046 16.1983 4.6953 16.0221 4.97743 15.9018C5.25957 15.7816 5.56315 15.7197 5.86986 15.72H31.1399C31.4474 15.7183 31.7521 15.7792 32.0354 15.8989C32.3187 16.0186 32.5747 16.1946 32.788 16.4162C33.0012 16.6378 33.1671 16.9005 33.2758 17.1882C33.3844 17.476 33.4334 17.7828 33.4199 18.09L30.3699 64.75C30.3415 65.3584 30.079 65.9322 29.6373 66.3516C29.1956 66.7709 28.6089 67.0032 27.9999 67Z" fill="#FF7769"/> <path d="M33.4992 18.0901L30.4492 64.7401C30.4235 65.3467 30.1649 65.9202 29.7272 66.3411C29.2895 66.762 28.7065 66.998 28.0992 67.0001H9.09922C8.48262 67.0018 7.89002 66.7612 7.44922 66.3301C25.9992 55.6401 30.7292 27.1901 31.8792 15.8101C32.3623 15.9592 32.7828 16.2634 33.0756 16.6755C33.3684 17.0877 33.5173 17.5848 33.4992 18.0901Z" fill="#E52B17"/> <path d="M5.88911 53.51C5.77042 53.5129 5.65523 53.4697 5.56763 53.3895C5.48004 53.3094 5.42682 53.1985 5.41911 53.08L4.41911 37.49C4.40611 37.4244 4.40728 37.3567 4.42253 37.2916C4.43778 37.2264 4.46676 37.1653 4.50754 37.1122C4.54833 37.0592 4.59996 37.0155 4.659 36.984C4.71804 36.9525 4.78313 36.934 4.8499 36.9297C4.91667 36.9254 4.98359 36.9354 5.04619 36.959C5.10878 36.9826 5.16561 37.0194 5.21287 37.0667C5.26013 37.1141 5.29673 37.171 5.32023 37.2337C5.34372 37.2963 5.35357 37.3633 5.34911 37.43L6.34911 53C6.35457 53.0613 6.3477 53.123 6.32891 53.1815C6.31012 53.24 6.27978 53.2942 6.2397 53.3408C6.19961 53.3874 6.15059 53.4255 6.09552 53.4529C6.04046 53.4802 5.98048 53.4963 5.91911 53.5L5.88911 53.51Z" fill="#3E3126"/> <path d="M28.0011 67.4699H9.00106C8.27421 67.4681 7.57593 67.1868 7.05092 66.6841C6.52592 66.1814 6.21444 65.496 6.18106 64.7699L5.79106 58.6999C5.7856 58.6387 5.79246 58.577 5.81126 58.5185C5.83005 58.4599 5.86039 58.4058 5.90047 58.3591C5.94056 58.3125 5.98958 58.2744 6.04465 58.2471C6.09971 58.2197 6.15969 58.2037 6.22106 58.1999C6.28281 58.1959 6.34475 58.204 6.40333 58.224C6.46192 58.2439 6.51599 58.2752 6.56245 58.3161C6.6089 58.357 6.64683 58.4066 6.67405 58.4622C6.70127 58.5178 6.71724 58.5782 6.72106 58.6399L7.12106 64.7199C7.13918 65.2063 7.34522 65.6667 7.69585 66.0043C8.04647 66.3418 8.51435 66.5303 9.00106 66.5299H28.0011C28.4878 66.533 28.9568 66.3471 29.3093 66.0114C29.6618 65.6756 29.8704 65.2163 29.8911 64.7299L33.0011 18.0599C33.012 17.8165 32.9731 17.5735 32.8867 17.3456C32.8004 17.1178 32.6685 16.91 32.499 16.7349C32.3296 16.5598 32.1262 16.4212 31.9013 16.3275C31.6764 16.2338 31.4347 16.187 31.1911 16.1899H5.87106C5.62832 16.1881 5.38777 16.236 5.16421 16.3306C4.94065 16.4252 4.73879 16.5645 4.57106 16.7399C4.39935 16.9143 4.26613 17.1228 4.18 17.3519C4.09388 17.581 4.05676 17.8256 4.07106 18.0699L5.00106 31.9999C5.00901 32.1246 4.96713 32.2473 4.88461 32.3411C4.80209 32.4348 4.68571 32.492 4.56106 32.4999C4.43641 32.5079 4.3137 32.466 4.21993 32.3835C4.12616 32.301 4.06901 32.1846 4.06106 32.0599L3.15106 18.0599C3.13488 17.6897 3.19372 17.32 3.32403 16.973C3.45434 16.6261 3.65344 16.309 3.90937 16.041C4.16529 15.7729 4.47276 15.5593 4.81331 15.4131C5.15385 15.2668 5.52044 15.1909 5.89106 15.1899H31.1411C31.5116 15.1896 31.8785 15.2643 32.2195 15.4093C32.5605 15.5543 32.8687 15.7668 33.1255 16.0339C33.3824 16.301 33.5826 16.6173 33.7142 16.9638C33.8457 17.3102 33.9059 17.6797 33.8911 18.0499L30.8311 64.7799C30.8 65.5077 30.4875 66.1949 29.9596 66.6967C29.4316 67.1986 28.7294 67.4758 28.0011 67.4699Z" fill="#3E3126"/> <path d="M7.45076 45.4801C7.35694 45.4829 7.26575 45.4489 7.19663 45.3854C7.12751 45.3219 7.08594 45.2339 7.08076 45.1401L6.66076 38.7202C6.65523 38.6236 6.68771 38.5287 6.75126 38.4558C6.81481 38.3829 6.90437 38.3378 7.00076 38.3302C7.04886 38.3261 7.09729 38.3317 7.14316 38.3467C7.18904 38.3617 7.23143 38.3858 7.26782 38.4175C7.3042 38.4492 7.33384 38.4879 7.35496 38.5313C7.37608 38.5747 7.38825 38.6219 7.39076 38.6701L7.81076 45.0901C7.8163 45.1867 7.78381 45.2816 7.72027 45.3545C7.65672 45.4273 7.56716 45.4725 7.47076 45.4801H7.45076Z" fill="white"/> <path d="M7.66157 48.5521C8.00326 48.5298 8.25579 48.1365 8.22561 47.6736C8.19543 47.2106 7.89397 46.8534 7.55228 46.8757C7.21059 46.898 6.95806 47.2913 6.98824 47.7542C7.01842 48.2172 7.31988 48.5744 7.66157 48.5521Z" fill="white"/> <path d="M8.00171 26.6399C7.96222 26.6489 7.9212 26.6489 7.88171 26.6399C7.80911 26.609 7.75162 26.5508 7.72167 26.4778C7.69172 26.4048 7.69174 26.3229 7.72171 26.2499L9.38171 22.3199C9.4165 22.2483 9.47678 22.1921 9.55075 22.1625C9.62473 22.1329 9.70708 22.132 9.78171 22.1599C9.85503 22.1929 9.9127 22.253 9.94255 22.3276C9.9724 22.4022 9.9721 22.4855 9.94171 22.5599L8.28171 26.4399C8.2612 26.498 8.22332 26.5483 8.17324 26.5841C8.12315 26.6198 8.06326 26.6393 8.00171 26.6399Z" fill="#3E3126"/> <path d="M10.2112 24.7401H10.0912C10.0177 24.7071 9.95935 24.6475 9.92784 24.5734C9.89632 24.4992 9.89394 24.4159 9.92116 24.3401L10.8112 22.2401C10.8264 22.2029 10.849 22.1692 10.8775 22.1409C10.9061 22.1126 10.94 22.0903 10.9773 22.0754C11.0146 22.0605 11.0545 22.0532 11.0947 22.054C11.1349 22.0548 11.1745 22.0637 11.2112 22.0801C11.2845 22.113 11.3422 22.1731 11.372 22.2477C11.4019 22.3224 11.4016 22.4057 11.3712 22.4801L10.4812 24.5801C10.4537 24.6277 10.4144 24.6674 10.3671 24.6955C10.3198 24.7235 10.2661 24.7389 10.2112 24.7401Z" fill="#3E3126"/> <path d="M15.6016 61.8901C16.8442 61.8901 17.8516 60.8828 17.8516 59.6401C17.8516 58.3975 16.8442 57.3901 15.6016 57.3901C14.3589 57.3901 13.3516 58.3975 13.3516 59.6401C13.3516 60.8828 14.3589 61.8901 15.6016 61.8901Z" fill="#E52B17"/> <path d="M11.8408 60.84C12.139 60.84 12.3808 60.5982 12.3808 60.3C12.3808 60.0018 12.139 59.76 11.8408 59.76C11.5425 59.76 11.3008 60.0018 11.3008 60.3C11.3008 60.5982 11.5425 60.84 11.8408 60.84Z" fill="#E52B17"/> <path opacity="0.45" d="M12.7312 57.3001C13.1178 57.3001 13.4313 56.9867 13.4313 56.6001C13.4313 56.2135 13.1178 55.9001 12.7312 55.9001C12.3447 55.9001 12.0312 56.2135 12.0312 56.6001C12.0312 56.9867 12.3447 57.3001 12.7312 57.3001Z" fill="#E52B17"/> <path opacity="0.45" d="M12.9716 53.97C13.314 53.97 13.5916 53.6924 13.5916 53.35C13.5916 53.0076 13.314 52.73 12.9716 52.73C12.6291 52.73 12.3516 53.0076 12.3516 53.35C12.3516 53.6924 12.6291 53.97 12.9716 53.97Z" fill="#E52B17"/> <path opacity="0.1" d="M14.5113 50.6299C14.7763 50.6299 14.9913 50.415 14.9913 50.1499C14.9913 49.8848 14.7763 49.6699 14.5113 49.6699C14.2462 49.6699 14.0312 49.8848 14.0312 50.1499C14.0312 50.415 14.2462 50.6299 14.5113 50.6299Z" fill="#E52B17"/> <path d="M7.16016 18.49H32.1602V21.22H9.89016C9.16612 21.22 8.47173 20.9324 7.95975 20.4204C7.44778 19.9084 7.16016 19.214 7.16016 18.49Z" fill="#E52B17"/> <path d="M36.6289 18.97L35.2989 14.96H19.7089H17.3089H1.71891L0.378906 18.97" fill="#FFEEEB"/> <path d="M0.380556 19.3601H0.260556C0.208826 19.3455 0.160674 19.3203 0.119125 19.2862C0.0775747 19.2521 0.0435237 19.2098 0.0191091 19.1619C-0.00530541 19.114 -0.0195563 19.0616 -0.022749 19.0079C-0.0259416 18.9543 -0.0180071 18.9005 0.000556462 18.8501L1.34056 14.8501C1.36699 14.7753 1.41561 14.7103 1.47994 14.6638C1.54426 14.6174 1.62123 14.5917 1.70056 14.5901H26.7006C26.792 14.6049 26.8752 14.6517 26.9353 14.7223C26.9953 14.7928 27.0283 14.8824 27.0283 14.9751C27.0283 15.0677 26.9953 15.1574 26.9353 15.2279C26.8752 15.2984 26.792 15.3453 26.7006 15.3601H2.00056L0.750556 19.0901C0.725243 19.1684 0.675825 19.2366 0.609369 19.2851C0.542914 19.3336 0.462825 19.3599 0.380556 19.3601Z" fill="#3E3126"/> <path d="M9.17125 17.0701H2.73125C2.64482 17.0557 2.56628 17.0112 2.50962 16.9443C2.45297 16.8775 2.42188 16.7927 2.42188 16.7051C2.42188 16.6175 2.45297 16.5327 2.50962 16.4658C2.56628 16.399 2.64482 16.3544 2.73125 16.3401H9.17125C9.26673 16.3401 9.3583 16.378 9.42581 16.4455C9.49332 16.513 9.53125 16.6046 9.53125 16.7001C9.53129 16.7965 9.49368 16.8891 9.42644 16.9582C9.3592 17.0274 9.26764 17.0675 9.17125 17.0701Z" fill="white"/> <path d="M11.7697 17.3201C12.2336 17.3201 12.6097 17.0425 12.6097 16.7001C12.6097 16.3577 12.2336 16.0801 11.7697 16.0801C11.3058 16.0801 10.9297 16.3577 10.9297 16.7001C10.9297 17.0425 11.3058 17.3201 11.7697 17.3201Z" fill="white"/> <path d="M6.00875 55.6701C6.30698 55.6701 6.54875 55.4283 6.54875 55.1301C6.54875 54.8319 6.30698 54.5901 6.00875 54.5901C5.71052 54.5901 5.46875 54.8319 5.46875 55.1301C5.46875 55.4283 5.71052 55.6701 6.00875 55.6701Z" fill="#3E3126"/> <path d="M4.64156 34.6401C4.9398 34.6401 5.18156 34.3983 5.18156 34.1001C5.18156 33.8018 4.9398 33.5601 4.64156 33.5601C4.34333 33.5601 4.10156 33.8018 4.10156 34.1001C4.10156 34.3983 4.34333 34.6401 4.64156 34.6401Z" fill="#3E3126"/> <path d="M35.0808 19.4599H1.94078C1.83906 19.46 1.74134 19.4203 1.66849 19.3493C1.59563 19.2783 1.55339 19.1816 1.55078 19.0799C1.55332 18.9773 1.59522 18.8796 1.66782 18.807C1.74041 18.7344 1.83815 18.6925 1.94078 18.6899H35.0808C35.1825 18.6925 35.2791 18.7348 35.3501 18.8076C35.4211 18.8805 35.4608 18.9782 35.4608 19.0799C35.4608 19.1807 35.4207 19.2774 35.3495 19.3486C35.2782 19.4199 35.1816 19.4599 35.0808 19.4599Z" fill="#3E3126"/> <path d="M36.639 19.3601C36.5567 19.3598 36.4766 19.3336 36.4102 19.2851C36.3437 19.2366 36.2943 19.1683 36.269 19.0901L34.999 15.3401H29.859C29.7675 15.3253 29.6843 15.2784 29.6243 15.2079C29.5642 15.1373 29.5312 15.0477 29.5312 14.9551C29.5312 14.8624 29.5642 14.7728 29.6243 14.7023C29.6843 14.6317 29.7675 14.5849 29.859 14.5701H35.299C35.3783 14.5716 35.4553 14.5974 35.5196 14.6438C35.5839 14.6903 35.6326 14.7553 35.659 14.8301L36.999 18.8301C37.031 18.9269 37.0238 19.0324 36.979 19.124C36.9341 19.2156 36.8551 19.286 36.759 19.3201L36.639 19.3601Z" fill="#3E3126"/> <path d="M19.6716 56.36C20.4006 56.36 20.9916 55.769 20.9916 55.04C20.9916 54.311 20.4006 53.72 19.6716 53.72C18.9425 53.72 18.3516 54.311 18.3516 55.04C18.3516 55.769 18.9425 56.36 19.6716 56.36Z" fill="#E52B17"/> <path d="M16.9191 56.74C17.267 56.74 17.5491 56.4579 17.5491 56.11C17.5491 55.762 17.267 55.48 16.9191 55.48C16.5711 55.48 16.2891 55.762 16.2891 56.11C16.2891 56.4579 16.5711 56.74 16.9191 56.74Z" fill="#E52B17"/> <path opacity="0.45" d="M15.7605 53.2101C16.0532 53.2101 16.2905 52.9729 16.2905 52.6801C16.2905 52.3874 16.0532 52.1501 15.7605 52.1501C15.4678 52.1501 15.2305 52.3874 15.2305 52.6801C15.2305 52.9729 15.4678 53.2101 15.7605 53.2101Z" fill="#E52B17"/> <path opacity="0.6" d="M15.6003 54.8901C15.893 54.8901 16.1303 54.6528 16.1303 54.3601C16.1303 54.0674 15.893 53.8301 15.6003 53.8301C15.3076 53.8301 15.0703 54.0674 15.0703 54.3601C15.0703 54.6528 15.3076 54.8901 15.6003 54.8901Z" fill="#E52B17"/> <path d="M29.4922 31.3101L30.0522 29.4801L36.6622 27.0801C36.6622 27.0801 40.8922 30.7501 40.5622 30.8101C40.2322 30.8701 29.4922 31.3101 29.4922 31.3101Z" fill="white"/> <path opacity="0.45" d="M16.2523 54.0701C16.5837 54.0701 16.8523 53.8015 16.8523 53.4701C16.8523 53.1387 16.5837 52.8701 16.2523 52.8701C15.921 52.8701 15.6523 53.1387 15.6523 53.4701C15.6523 53.8015 15.921 54.0701 16.2523 54.0701Z" fill="#E52B17"/> <path d="M44.5219 36.4102L40.2319 69.0702C40.1302 69.5874 39.8524 70.0533 39.4458 70.3888C39.0392 70.7243 38.529 70.9085 38.0019 70.9102H22.4519C21.9218 70.9112 21.4078 70.7284 20.9975 70.3929C20.5872 70.0573 20.306 69.5899 20.2019 69.0702L15.9219 36.4102" fill="white"/> <path d="M39.5106 36.52L39.3106 37.72H16.1406V38.86H36.9106C37.1778 38.8613 37.4416 38.9201 37.684 39.0324C37.9264 39.1448 38.1418 39.3081 38.3154 39.5111C38.4891 39.7142 38.617 39.9523 38.6903 40.2092C38.7637 40.4661 38.7809 40.7359 38.7406 41L35.4706 60H19.2806L19.8706 62.1H32.5006C33.8606 62.1 34.9006 65.97 34.6706 67.32L34.3506 69.19C34.2421 69.705 33.9588 70.1667 33.5487 70.4966C33.1386 70.8265 32.6269 71.0044 32.1006 71H37.8306C38.3589 70.9988 38.8706 70.8149 39.2788 70.4795C39.6871 70.1442 39.9668 69.678 40.0706 69.16L44.3606 36.5L39.5106 36.52Z" fill="#FFEDE1"/> <path d="M38 71.4001H22.45C21.8078 71.3993 21.1855 71.1771 20.6882 70.7708C20.1909 70.3646 19.8489 69.7992 19.72 69.1701L15.43 36.4701C15.4128 36.3375 15.4489 36.2035 15.5305 36.0975C15.6121 35.9915 15.7324 35.9223 15.865 35.9051C15.9976 35.8878 16.1316 35.924 16.2376 36.0056C16.3435 36.0872 16.4128 36.2075 16.43 36.3401L20.69 69.0001C20.7788 69.4004 21.0018 69.7585 21.3218 70.0149C21.6419 70.2713 22.0399 70.4107 22.45 70.4101H38C38.4084 70.4084 38.8041 70.268 39.1221 70.0118C39.4401 69.7555 39.6615 69.3988 39.75 69.0001L44 36.3401C44.0174 36.2115 44.0851 36.0951 44.1882 36.0164C44.2913 35.9377 44.4214 35.903 44.55 35.9201C44.6792 35.9376 44.7965 36.0049 44.8769 36.1076C44.9572 36.2104 44.9942 36.3404 44.98 36.4701L40.72 69.1301C40.5996 69.7649 40.2626 70.3382 39.7665 70.7522C39.2705 71.1662 38.6461 71.3952 38 71.4001Z" fill="#3E3126"/> <path d="M45.812 43.8899L43.302 58.4399C43.2285 58.877 43.0022 59.2738 42.6634 59.5595C42.3245 59.8453 41.8952 60.0013 41.452 59.9999H19.002C18.5605 59.999 18.1336 59.8418 17.7968 59.5563C17.4601 59.2708 17.2352 58.8753 17.162 58.4399L14.592 43.8899C14.5472 43.6204 14.5613 43.3444 14.6335 43.0809C14.7056 42.8173 14.834 42.5726 15.0099 42.3635C15.1857 42.1544 15.4048 41.9859 15.652 41.8696C15.8993 41.7533 16.1688 41.692 16.442 41.6899H44.002C44.2724 41.6961 44.5382 41.7604 44.7815 41.8787C45.0247 41.9969 45.2395 42.1662 45.4113 42.375C45.5831 42.5839 45.7079 42.8273 45.777 43.0887C45.8462 43.3502 45.8581 43.6235 45.812 43.8899Z" fill="#FFA878"/> <path d="M35.4688 60C37.8688 54.71 38.6187 41.71 38.6187 41.71H43.9987C44.271 41.7091 44.5402 41.7677 44.7875 41.8817C45.0348 41.9957 45.2542 42.1624 45.4304 42.37C45.6066 42.5776 45.7353 42.8212 45.8076 43.0837C45.8798 43.3463 45.8939 43.6214 45.8487 43.89L43.2987 58.43C43.2274 58.8689 43.002 59.268 42.663 59.5558C42.3239 59.8435 41.8934 60.001 41.4487 60" fill="#EA5706"/> <path opacity="0.25" d="M43.56 59.17C43.382 59.3777 43.1611 59.5442 42.9125 59.6582C42.6639 59.7721 42.3935 59.8308 42.12 59.83H29C34.8 53.06 36.81 46.7 37.13 41.53H39.26L36.14 59.82H42.14C42.4091 59.8178 42.6748 59.7588 42.9195 59.6468C43.1642 59.5348 43.3825 59.3723 43.56 59.17Z" fill="#EA5706"/> <path d="M45.1789 47.9301H45.1089C45.0609 47.9216 45.0151 47.9038 44.974 47.8776C44.933 47.8514 44.8975 47.8173 44.8696 47.7774C44.8417 47.7374 44.822 47.6924 44.8116 47.6448C44.8012 47.5972 44.8003 47.548 44.8089 47.5001L45.4489 43.8301C45.4842 43.6134 45.473 43.3917 45.4161 43.1796C45.3592 42.9676 45.2579 42.77 45.1189 42.6001C44.9818 42.4344 44.811 42.2997 44.6179 42.2049C44.4249 42.1101 44.2139 42.0573 43.9989 42.0501H33.8289C33.7425 42.0357 33.6639 41.9912 33.6073 41.9243C33.5506 41.8575 33.5195 41.7727 33.5195 41.6851C33.5195 41.5975 33.5506 41.5127 33.6073 41.4458C33.6639 41.379 33.7425 41.3344 33.8289 41.3201H43.9989C44.3268 41.3188 44.6509 41.3898 44.9482 41.5281C45.2455 41.6664 45.5087 41.8685 45.7189 42.1201C45.9316 42.3675 46.086 42.6594 46.1708 42.9744C46.2556 43.2894 46.2686 43.6194 46.2089 43.9401L45.5789 47.6201C45.5641 47.7129 45.5145 47.7966 45.4402 47.8542C45.3659 47.9117 45.2725 47.9389 45.1789 47.9301Z" fill="#3E3126"/> <path d="M15.9099 51.8601C15.8218 51.8593 15.7368 51.8279 15.6693 51.7714C15.6018 51.7148 15.5561 51.6366 15.5399 51.5501L14.2299 43.9401C14.1762 43.6185 14.1931 43.2892 14.2794 42.9748C14.3656 42.6604 14.5192 42.3685 14.7294 42.1193C14.9396 41.8701 15.2014 41.6696 15.4967 41.5316C15.7921 41.3936 16.1139 41.3214 16.4399 41.3201H27.9999C28.0863 41.3344 28.1648 41.379 28.2215 41.4458C28.2781 41.5127 28.3092 41.5974 28.3092 41.6851C28.3092 41.7727 28.2781 41.8575 28.2215 41.9243C28.1648 41.9911 28.0863 42.0357 27.9999 42.0501H16.4399C16.2206 42.0518 16.0042 42.1009 15.8057 42.1942C15.6072 42.2874 15.4312 42.4224 15.2899 42.5901C15.1537 42.761 15.0571 42.9599 15.007 43.1726C14.9568 43.3852 14.9544 43.6064 14.9999 43.8201L16.3099 51.4301C16.3184 51.4774 16.3174 51.526 16.3069 51.573C16.2964 51.6199 16.2765 51.6643 16.2486 51.7034C16.2206 51.7426 16.1851 51.7757 16.1441 51.8009C16.1031 51.8261 16.0574 51.8428 16.0099 51.8501L15.9099 51.8601Z" fill="#3E3126"/> <path d="M41.4495 60.3601H18.9995C18.4715 60.3588 17.9607 60.1717 17.5567 59.8316C17.1526 59.4916 16.8811 59.0202 16.7895 58.5001L16.3395 55.8901C16.3261 55.7945 16.3506 55.6973 16.4079 55.6195C16.4651 55.5416 16.5506 55.4893 16.6459 55.4736C16.7413 55.4579 16.839 55.4802 16.9181 55.5356C16.9973 55.591 17.0516 55.6752 17.0695 55.7701L17.5195 58.3701C17.5786 58.7198 17.7597 59.0373 18.0307 59.2661C18.3016 59.4949 18.6449 59.6204 18.9995 59.6201H41.4995C41.8554 59.6207 42.2 59.4957 42.4726 59.267C42.7452 59.0383 42.9283 58.7207 42.9895 58.3701L43.9995 52.2001C44.008 52.1522 44.0258 52.1063 44.052 52.0653C44.0782 52.0242 44.1123 51.9887 44.1522 51.9608C44.1922 51.933 44.2372 51.9133 44.2848 51.9028C44.3324 51.8924 44.3816 51.8915 44.4295 51.9001C44.5252 51.9196 44.6097 51.9751 44.6656 52.0551C44.7214 52.1352 44.7443 52.2337 44.7295 52.3301L43.6595 58.5001C43.5699 59.0211 43.2988 59.4936 42.8944 59.834C42.4899 60.1743 41.9782 60.3607 41.4495 60.3601Z" fill="#3E3126"/> <path d="M39.4324 46.8H39.3524C39.3008 46.7799 39.2593 46.7402 39.2369 46.6897C39.2144 46.6391 39.2128 46.5817 39.2324 46.53L40.3724 43.82C40.3832 43.7942 40.3992 43.7708 40.4192 43.7512C40.4393 43.7316 40.4631 43.7162 40.4892 43.7059C40.5153 43.6957 40.5431 43.6908 40.5712 43.6915C40.5992 43.6922 40.6268 43.6985 40.6524 43.71C40.6779 43.7198 40.7011 43.7347 40.7206 43.7539C40.7401 43.773 40.7555 43.7959 40.7658 43.8212C40.7761 43.8465 40.7811 43.8737 40.7805 43.901C40.7799 43.9283 40.7737 43.9552 40.7624 43.98L39.6124 46.69C39.5956 46.7233 39.5699 46.7512 39.538 46.7707C39.5062 46.7901 39.4696 46.8003 39.4324 46.8Z" fill="#3E3126"/> <path d="M40.9988 45.49H40.9188C40.8672 45.4699 40.8257 45.4303 40.8033 45.3797C40.7808 45.3292 40.7792 45.2718 40.7988 45.22L41.4188 43.77C41.4286 43.7445 41.4435 43.7213 41.4626 43.7018C41.4818 43.6823 41.5047 43.6669 41.53 43.6566C41.5553 43.6463 41.5824 43.6413 41.6097 43.6419C41.637 43.6425 41.6639 43.6487 41.6888 43.66C41.7403 43.6802 41.7818 43.7198 41.8043 43.7704C41.8268 43.8209 41.8284 43.8783 41.8088 43.93L41.1888 45.38C41.1703 45.4141 41.1428 45.4424 41.1093 45.4618C41.0758 45.4813 41.0375 45.491 40.9988 45.49Z" fill="#3E3126"/> <path d="M36.9816 56.4704C37.1263 55.7616 36.9101 55.1189 36.4988 55.035C36.0876 54.9511 35.6369 55.4577 35.4923 56.1666C35.3477 56.8755 35.5639 57.5182 35.9751 57.6021C36.3864 57.686 36.837 57.1793 36.9816 56.4704Z" fill="#EA5706"/> <path d="M35.6222 54.6001C35.8321 54.6001 36.0022 54.43 36.0022 54.2201C36.0022 54.0102 35.8321 53.8401 35.6222 53.8401C35.4123 53.8401 35.2422 54.0102 35.2422 54.2201C35.2422 54.43 35.4123 54.6001 35.6222 54.6001Z" fill="#EA5706"/> <path d="M34.342 59.0801C34.6237 59.0801 34.852 58.8517 34.852 58.5701C34.852 58.2884 34.6237 58.0601 34.342 58.0601C34.0604 58.0601 33.832 58.2884 33.832 58.5701C33.832 58.8517 34.0604 59.0801 34.342 59.0801Z" fill="#EA5706"/> <path opacity="0.35" d="M34.1398 56.4401C34.3055 56.4401 34.4398 56.3058 34.4398 56.1401C34.4398 55.9744 34.3055 55.8401 34.1398 55.8401C33.9742 55.8401 33.8398 55.9744 33.8398 56.1401C33.8398 56.3058 33.9742 56.4401 34.1398 56.4401Z" fill="#EA5706"/> <path d="M36.5322 53.4201C37.2446 53.4201 37.8222 52.8425 37.8222 52.1301C37.8222 51.4176 37.2446 50.8401 36.5322 50.8401C35.8197 50.8401 35.2422 51.4176 35.2422 52.1301C35.2422 52.8425 35.8197 53.4201 36.5322 53.4201Z" fill="#EA5706"/> <path d="M34.902 50.0001C35.0788 50.0001 35.222 49.8568 35.222 49.6801C35.222 49.5034 35.0788 49.3601 34.902 49.3601C34.7253 49.3601 34.582 49.5034 34.582 49.6801C34.582 49.8568 34.7253 50.0001 34.902 50.0001Z" fill="#EA5706"/> <path opacity="0.35" d="M34.1925 52.75C34.5404 52.75 34.8225 52.4679 34.8225 52.12C34.8225 51.772 34.5404 51.49 34.1925 51.49C33.8446 51.49 33.5625 51.772 33.5625 52.12C33.5625 52.4679 33.8446 52.75 34.1925 52.75Z" fill="#EA5706"/> <path opacity="0.35" d="M36.0011 48.3301C36.349 48.3301 36.6311 48.048 36.6311 47.7001C36.6311 47.3521 36.349 47.0701 36.0011 47.0701C35.6532 47.0701 35.3711 47.3521 35.3711 47.7001C35.3711 48.048 35.6532 48.3301 36.0011 48.3301Z" fill="#EA5706"/> <path d="M40.461 30.75C40.3602 30.7496 40.2634 30.7102 40.191 30.64L37.421 28C37.2927 27.8715 37.1319 27.7803 36.9557 27.7362C36.7795 27.6922 36.5947 27.6969 36.421 27.75C36.3692 27.7729 36.3131 27.7845 36.2565 27.7841C36.1998 27.7837 36.1439 27.7713 36.0925 27.7476C36.041 27.724 35.9951 27.6897 35.9579 27.647C35.9207 27.6043 35.8929 27.5542 35.8765 27.5C35.8601 27.4458 35.8554 27.3887 35.8627 27.3325C35.87 27.2763 35.8892 27.2224 35.9189 27.1742C35.9486 27.1259 35.9883 27.0846 36.0352 27.0529C36.0821 27.0211 36.1352 26.9997 36.191 26.99C36.5019 26.8908 36.8336 26.8764 37.1518 26.9485C37.4701 27.0206 37.7633 27.1765 38.001 27.4L40.761 30.06C40.8349 30.1365 40.8763 30.2386 40.8763 30.345C40.8763 30.4514 40.8349 30.5535 40.761 30.63C40.7221 30.6698 40.6753 30.701 40.6237 30.7216C40.572 30.7423 40.5166 30.752 40.461 30.75Z" fill="#3E3126"/> <path d="M29.2623 30.51C29.1842 30.5094 29.1078 30.4865 29.0423 30.444C28.9767 30.4015 28.9247 30.3411 28.8923 30.27C28.8527 30.1719 28.8537 30.062 28.8949 29.9646C28.9361 29.8671 29.0143 29.79 29.1123 29.75L33.8123 27.75C33.9106 27.7094 34.0209 27.7086 34.1198 27.7478C34.2187 27.787 34.2985 27.8631 34.3423 27.96C34.3825 28.0569 34.383 28.1657 34.3437 28.263C34.3044 28.3602 34.2285 28.4382 34.1323 28.48L29.4223 30.48C29.3712 30.4997 29.317 30.5098 29.2623 30.51Z" fill="#3E3126"/> <path d="M19.3025 30.1001H41.3025C41.703 30.1001 42.0871 30.2592 42.3702 30.5424C42.6534 30.8255 42.8125 31.2096 42.8125 31.6101V35.4701H17.8125V31.6001C17.8151 31.2048 17.9726 30.8263 18.2512 30.5458C18.5298 30.2654 18.9072 30.1053 19.3025 30.1001Z" fill="white"/> <path d="M45.1012 37.7201H15.3012C15.1659 37.7194 15.0332 37.683 14.9164 37.6147C14.7996 37.5464 14.7028 37.4485 14.6359 37.3309C14.569 37.2132 14.5342 37.0801 14.5352 36.9447C14.5361 36.8094 14.5727 36.6767 14.6412 36.5601C15.1631 35.6561 15.9116 34.904 16.8131 34.3778C17.7145 33.8517 18.7376 33.5699 19.7812 33.5601H40.6212C41.6662 33.5638 42.6916 33.8432 43.5941 34.3699C44.4965 34.8966 45.2441 35.6521 45.7612 36.5601C45.8331 36.6762 45.8724 36.8095 45.875 36.9461C45.8775 37.0826 45.8432 37.2173 45.7757 37.336C45.7081 37.4547 45.6098 37.553 45.4912 37.6206C45.3725 37.6882 45.2378 37.7225 45.1012 37.7201Z" fill="white"/> <path d="M39.8402 37.5701C39.7602 37.9001 39.4102 37.4001 39.3702 37.7501H31.6802C31.7367 36.9153 31.553 36.0817 31.1508 35.348C30.7485 34.6144 30.1444 34.0113 29.4102 33.6101C28.2802 32.8401 28.8702 31.0301 27.4102 30.2301L36.0002 30.1001C36.4218 30.064 36.8446 30.1537 37.2153 30.3579C37.5859 30.5621 37.8877 30.8715 38.0825 31.2472C38.2773 31.6229 38.3563 32.0479 38.3096 32.4684C38.2629 32.889 38.0926 33.2863 37.8202 33.6101C37.4702 34.0801 40.6602 33.9301 39.8402 37.5701Z" fill="#FFEDE1"/> <path d="M17.7902 34.31C17.6894 34.31 17.5927 34.2699 17.5215 34.1987C17.4502 34.1274 17.4102 34.0308 17.4102 33.93V31.6C17.4128 31.1004 17.6131 30.6223 17.9672 30.27C18.3214 29.9177 18.8006 29.72 19.3002 29.72H41.3002C41.7997 29.72 42.2789 29.9177 42.6331 30.27C42.9872 30.6223 43.1875 31.1004 43.1902 31.6C43.1902 31.7008 43.1501 31.7974 43.0789 31.8687C43.0076 31.9399 42.9109 31.98 42.8102 31.98C42.7094 31.98 42.6127 31.9399 42.5415 31.8687C42.4702 31.7974 42.4302 31.7008 42.4302 31.6C42.4275 31.302 42.3073 31.0172 42.0957 30.8074C41.884 30.5976 41.5981 30.48 41.3002 30.48H19.3002C19.0031 30.48 18.7182 30.598 18.5082 30.808C18.2982 31.0181 18.1802 31.3029 18.1802 31.6V33.93C18.1775 34.0317 18.1353 34.1283 18.0625 34.1993C17.9896 34.2703 17.8919 34.31 17.7902 34.31Z" fill="#3E3126"/> <path d="M45.1023 38.1001H15.3023C15.0995 38.0993 14.9004 38.0453 14.7249 37.9435C14.5495 37.8418 14.4037 37.6958 14.3023 37.5201C14.2015 37.3434 14.1484 37.1435 14.1484 36.9401C14.1484 36.7367 14.2015 36.5368 14.3023 36.3601C14.8651 35.4094 15.665 34.6212 16.6239 34.0725C17.5827 33.5239 18.6676 33.2336 19.7723 33.2301H32.0023C32.0938 33.2449 32.177 33.2917 32.237 33.3623C32.2971 33.4328 32.3301 33.5225 32.3301 33.6151C32.3301 33.7077 32.2971 33.7974 32.237 33.8679C32.177 33.9384 32.0938 33.9853 32.0023 34.0001H19.7823C18.816 34.0071 17.868 34.264 17.0303 34.7459C16.1927 35.2278 15.4941 35.9183 15.0023 36.7501C14.969 36.8097 14.9516 36.8768 14.9516 36.9451C14.9516 37.0134 14.969 37.0805 15.0023 37.1401C15.0341 37.1995 15.0818 37.2487 15.1401 37.2823C15.1985 37.3159 15.265 37.3324 15.3323 37.3301H45.1023C45.1705 37.33 45.2375 37.3125 45.297 37.2793C45.3565 37.246 45.4065 37.1981 45.4423 37.1401C45.4776 37.0812 45.4962 37.0138 45.4962 36.9451C45.4962 36.8764 45.4776 36.809 45.4423 36.7501C44.9486 35.9111 44.244 35.2159 43.3984 34.7334C42.5529 34.251 41.5958 33.9982 40.6223 34.0001H36.7723C36.7166 34.0091 36.6595 34.0059 36.6051 33.9907C36.5507 33.9755 36.5003 33.9487 36.4573 33.9121C36.4143 33.8755 36.3797 33.8299 36.356 33.7787C36.3323 33.7274 36.3201 33.6716 36.3201 33.6151C36.3201 33.5586 36.3323 33.5028 36.356 33.4515C36.3797 33.4003 36.4143 33.3547 36.4573 33.3181C36.5003 33.2815 36.5507 33.2547 36.6051 33.2395C36.6595 33.2243 36.7166 33.2211 36.7723 33.2301H40.6223C41.7274 33.2316 42.8131 33.5211 43.7723 34.0699C44.7315 34.6188 45.5311 35.4081 46.0923 36.3601C46.1982 36.535 46.2542 36.7356 46.2542 36.9401C46.2542 37.1446 46.1982 37.3452 46.0923 37.5201C45.9925 37.695 45.8486 37.8406 45.6748 37.9424C45.5011 38.0442 45.3037 38.0986 45.1023 38.1001Z" fill="#3E3126"/> <path d="M18.1591 52.93C18.0854 52.929 18.0143 52.9026 17.9578 52.8553C17.9013 52.8079 17.8629 52.7425 17.8491 52.67L16.9991 48.31C16.9904 48.2687 16.9899 48.226 16.9977 48.1844C17.0056 48.1428 17.0216 48.1032 17.0449 48.0679C17.0681 48.0326 17.0981 48.0022 17.1332 47.9785C17.1683 47.9549 17.2077 47.9384 17.2491 47.93C17.3324 47.915 17.4183 47.9326 17.4891 47.9791C17.5598 48.0257 17.6099 48.0976 17.6291 48.18L18.5191 52.54C18.5279 52.5814 18.5284 52.6241 18.5205 52.6657C18.5127 52.7073 18.4966 52.7469 18.4734 52.7822C18.4501 52.8175 18.4201 52.8479 18.3851 52.8716C18.35 52.8952 18.3106 52.9117 18.2691 52.92L18.1591 52.93Z" fill="white"/> <path d="M17.0213 47.0476C17.2539 47 17.3904 46.7069 17.3261 46.3931C17.2618 46.0793 17.0211 45.8636 16.7884 45.9112C16.5558 45.9589 16.4193 46.2519 16.4836 46.5658C16.5479 46.8796 16.7886 47.0953 17.0213 47.0476Z" fill="white"/> <path d="M36.4425 56.5H43.0025C43.0927 56.5 43.1792 56.5358 43.2429 56.5996C43.3067 56.6633 43.3425 56.7498 43.3425 56.84C43.3425 56.9302 43.3067 57.0167 43.2429 57.0804C43.1792 57.1442 43.0927 57.18 43.0025 57.18H36.4025C36.3123 57.18 36.2258 57.1442 36.1621 57.0804C36.0983 57.0167 36.0625 56.9302 36.0625 56.84C36.0625 56.7498 36.0983 56.6633 36.1621 56.5996C36.2258 56.5358 36.3123 56.5 36.4025 56.5H36.4425Z" fill="#3E3126"/> <path d="M33.422 56.5H34.352C34.4422 56.5 34.5287 56.5358 34.5924 56.5996C34.6562 56.6633 34.692 56.7498 34.692 56.84C34.692 56.9302 34.6562 57.0167 34.5924 57.0804C34.5287 57.1442 34.4422 57.18 34.352 57.18H33.422C33.3319 57.18 33.2454 57.1442 33.1816 57.0804C33.1179 57.0167 33.082 56.9302 33.082 56.84C33.082 56.7498 33.1179 56.6633 33.1816 56.5996C33.2454 56.5358 33.3319 56.5 33.422 56.5Z" fill="#3E3126"/> <path d="M16.0913 53.9401C16.4005 53.9401 16.6512 53.6893 16.6512 53.3801C16.6512 53.0708 16.4005 52.8201 16.0913 52.8201C15.782 52.8201 15.5312 53.0708 15.5312 53.3801C15.5312 53.6893 15.782 53.9401 16.0913 53.9401Z" fill="#3E3126"/> <path d="M33.7787 34.1801C34.088 34.1801 34.3387 33.9293 34.3387 33.6201C34.3387 33.3108 34.088 33.0601 33.7787 33.0601C33.4695 33.0601 33.2188 33.3108 33.2188 33.6201C33.2188 33.9293 33.4695 34.1801 33.7787 34.1801Z" fill="#3E3126"/> <path d="M44.8803 50.58C45.1896 50.58 45.4403 50.3292 45.4403 50.02C45.4403 49.7107 45.1896 49.46 44.8803 49.46C44.571 49.46 44.3203 49.7107 44.3203 50.02C44.3203 50.3292 44.571 50.58 44.8803 50.58Z" fill="#3E3126"/> </g> <defs> <clipPath id="clip0"> <rect width="46.26" height="71.4" fill="white"/> </clipPath> </defs> </svg> 