<svg width="392" height="561" viewBox="0 0 392 561" fill="none" xmlns="http://www.w3.org/2000/svg"> <g clip-path="url(#clip0)"> <path d="M45.9 344.75C68.7646 344.75 87.3 326.215 87.3 303.35C87.3 280.485 68.7646 261.95 45.9 261.95C23.0354 261.95 4.5 280.485 4.5 303.35C4.5 326.215 23.0354 344.75 45.9 344.75Z" fill="#F9CDB7"/> <path d="M78.127 278.08C70.173 272.901 60.6808 270.613 51.2407 271.599C41.8006 272.585 32.9863 276.786 26.2748 283.498C19.5634 290.209 15.3625 299.023 14.3761 308.464C13.3897 317.904 15.6778 327.396 20.857 335.35C15.6851 331.991 11.3291 327.518 8.10721 322.26C4.88527 317.002 2.87882 311.09 2.23444 304.957C1.59006 298.823 2.32403 292.624 4.38274 286.81C6.44144 280.997 9.77287 275.717 14.1336 271.356C18.4943 266.996 23.7742 263.664 29.5874 261.606C35.4007 259.547 41.6004 258.813 47.7336 259.457C53.8669 260.102 59.7787 262.108 65.0371 265.33C70.2955 268.552 74.7677 272.908 78.127 278.08Z" fill="#E2A78D"/> <path d="M45.8983 347.82C36.8197 347.822 27.9444 345.132 20.3949 340.089C12.8454 335.047 6.9607 327.879 3.4851 319.492C0.00950646 311.105 -0.900894 301.876 0.869039 292.972C2.63897 284.067 7.00973 275.888 13.4286 269.467C19.8474 263.047 28.026 258.675 36.93 256.903C45.834 255.131 55.0634 256.039 63.4512 259.513C71.8389 262.987 79.0081 268.87 84.0521 276.418C89.0961 283.967 91.7883 292.841 91.7883 301.92C91.7619 314.084 86.9189 325.742 78.3189 334.344C69.7188 342.945 58.0619 347.791 45.8983 347.82ZM45.8983 265.03C38.5993 265.028 31.4637 267.191 25.394 271.245C19.3243 275.299 14.5932 281.061 11.7991 287.804C9.00495 294.547 8.27336 301.968 9.69684 309.126C11.1203 316.285 14.6349 322.861 19.7961 328.022C24.9572 333.183 31.5331 336.698 38.6919 338.122C45.8508 339.545 53.2709 338.813 60.0139 336.019C66.7569 333.225 72.5198 328.494 76.5737 322.424C80.6276 316.355 82.7903 309.219 82.7883 301.92C82.783 292.135 78.8957 282.752 71.9794 275.83C65.0632 268.908 55.6833 265.013 45.8983 265V265.03Z" fill="#213346"/> <path d="M345.408 344.75C368.272 344.75 386.808 326.215 386.808 303.35C386.808 280.485 368.272 261.95 345.408 261.95C322.543 261.95 304.008 280.485 304.008 303.35C304.008 326.215 322.543 344.75 345.408 344.75Z" fill="#F9CDB7"/> <path d="M345.418 347.82C336.339 347.822 327.464 345.132 319.914 340.089C312.365 335.047 306.48 327.879 303.005 319.492C299.529 311.105 298.619 301.876 300.389 292.972C302.159 284.067 306.529 275.888 312.948 269.467C319.367 263.047 327.546 258.675 336.45 256.903C345.354 255.131 354.583 256.039 362.971 259.513C371.358 262.987 378.528 268.87 383.572 276.418C388.616 283.967 391.308 292.841 391.308 301.92C391.281 314.084 386.438 325.742 377.838 334.344C369.238 342.945 357.581 347.791 345.418 347.82ZM345.418 265.03C338.119 265.028 330.983 267.191 324.914 271.245C318.844 275.299 314.113 281.061 311.319 287.804C308.524 294.547 307.793 301.968 309.216 309.126C310.64 316.285 314.154 322.861 319.316 328.022C324.477 333.183 331.053 336.698 338.211 338.122C345.37 339.545 352.79 338.813 359.533 336.019C366.276 333.225 372.039 328.494 376.093 322.424C380.147 316.355 382.31 309.219 382.308 301.92C382.303 292.135 378.415 282.752 371.499 275.83C364.583 268.908 355.203 265.013 345.418 265V265.03Z" fill="#213346"/> <path d="M191.57 88.78H194.36C233.108 88.78 270.269 104.173 297.668 131.572C325.067 158.971 340.46 196.132 340.46 234.88V329.88C340.467 349.251 336.658 368.433 329.25 386.332C321.843 404.231 310.983 420.495 297.29 434.196C283.597 447.898 267.339 458.768 249.445 466.186C231.551 473.604 212.371 477.425 193 477.43C153.881 477.43 116.363 461.89 88.7018 434.228C61.0401 406.567 45.5 369.049 45.5 329.93V234.93C45.5 196.182 60.8926 159.021 88.2917 131.622C115.691 104.223 152.852 88.83 191.6 88.83L191.57 88.78Z" fill="#F9CDB7"/> <path d="M211.7 474.46C204.977 475.396 198.198 475.867 191.41 475.87C110.27 475.87 43.9102 409.5 43.9102 328.37V231.37C43.9102 152.07 108.78 87.19 188.08 87.19H194.73C200.412 87.1833 206.089 87.5172 211.73 88.19C147.26 95.87 91.4202 154.6 81.1702 220.06C78.0141 240.937 73.5622 261.596 67.8402 281.92L54.4902 328.37C54.4902 402.62 140.07 464.5 211.7 474.46Z" fill="#E2A78D"/> <path d="M191.41 481.93C151.132 481.817 112.536 465.766 84.0553 437.285C55.5743 408.804 39.5236 370.208 39.4102 329.93V234.88C39.5157 194.973 55.415 156.73 83.633 128.51C111.851 100.29 150.093 84.3882 190 84.28H192.79C232.701 84.383 270.948 100.282 299.17 128.503C327.393 156.723 343.295 194.969 343.4 234.88V329.93C343.281 370.206 327.229 408.799 298.749 437.279C270.269 465.759 231.677 481.811 191.4 481.93H191.41ZM190 93.28C152.478 93.3856 116.523 108.338 89.9904 134.87C63.4581 161.403 48.5057 197.358 48.4002 234.88V329.93C48.36 358.217 56.721 385.88 72.4227 409.409C88.1245 432.938 110.46 451.275 136.597 462.094C162.733 472.913 191.494 475.727 219.232 470.179C246.97 464.63 272.436 450.97 292.4 430.93C305.73 417.708 316.306 401.973 323.516 384.636C330.725 367.3 334.424 348.706 334.4 329.93V234.88C334.295 197.358 319.342 161.403 292.81 134.87C266.278 108.338 230.322 93.3856 192.8 93.28H190Z" fill="#213346"/> <path d="M325.437 305.26V305.45C324.887 305.48 325.107 305.35 325.437 305.26Z" fill="#BFE1EE"/> <path d="M368.429 305.61C367.736 305.61 367.065 305.369 366.529 304.93C365.993 304.491 365.626 303.879 365.489 303.2C361.429 282.9 340.959 286.31 340.089 286.47C339.693 286.555 339.284 286.56 338.886 286.482C338.488 286.405 338.11 286.248 337.774 286.021C337.439 285.794 337.153 285.501 336.934 285.16C336.715 284.819 336.567 284.437 336.499 284.038C336.431 283.638 336.446 283.229 336.54 282.835C336.635 282.441 336.809 282.07 337.051 281.745C337.293 281.42 337.598 281.148 337.949 280.944C338.299 280.74 338.687 280.61 339.089 280.56C348.449 278.89 367.259 281.22 371.419 302.02C371.575 302.8 371.415 303.609 370.975 304.271C370.534 304.933 369.849 305.393 369.069 305.55C368.859 305.593 368.644 305.613 368.429 305.61Z" fill="#213346"/> <path d="M21.2676 308.26C21.1445 308.27 21.0208 308.27 20.8976 308.26C20.1089 308.162 19.3911 307.756 18.9018 307.13C18.4124 306.504 18.1916 305.709 18.2876 304.92C20.0376 290.69 26.0776 283.66 30.8376 280.27C33.9337 277.968 37.6054 276.567 41.4476 276.22C42.2433 276.188 43.019 276.474 43.6041 277.014C44.1892 277.554 44.5358 278.304 44.5676 279.1C44.5995 279.896 44.3139 280.671 43.7738 281.256C43.2337 281.842 42.4833 282.188 41.6876 282.22C41.0376 282.22 26.9876 283.3 24.2376 305.65C24.1431 306.371 23.7898 307.033 23.2434 307.513C22.6971 307.994 21.995 308.259 21.2676 308.26Z" fill="#213346"/> <path d="M184.64 551.97C283.902 551.97 364.37 528.304 364.37 499.11C364.37 469.916 283.902 446.25 184.64 446.25C85.378 446.25 4.91016 469.916 4.91016 499.11C4.91016 528.304 85.378 551.97 184.64 551.97Z" fill="#DFE7EA"/> <path d="M335.738 353.31C356.888 391.91 350.158 429.53 350.898 465.43L339.448 452.76C335.15 475.146 324.75 495.91 309.398 512.76C306.039 506.618 301.268 501.363 295.478 497.43C291.248 516.329 281.217 533.433 266.788 546.35C268.823 541.426 269.782 536.125 269.599 530.8C269.416 525.476 268.096 520.252 265.728 515.48C263.185 523.358 259.009 530.612 253.472 536.767C247.936 542.922 241.164 547.84 233.598 551.2C235.98 547.852 237.471 543.953 237.931 539.87C238.391 535.787 237.805 531.654 236.228 527.86C224.568 547.65 191.048 548.25 178.698 528.86C177.838 532.77 178.468 537.91 182.458 538.24C165.658 540.83 150.278 533.75 138.718 521.29C139.427 528.357 142.772 534.898 148.088 539.61C139.116 539.042 130.451 536.129 122.959 531.161C115.467 526.192 109.411 519.344 105.398 511.3C83.7176 512.65 62.0676 497.79 55.5276 477.09C55.9797 478.835 55.9684 480.669 55.4949 482.408C55.0214 484.148 54.1019 485.734 52.8276 487.01C15.3776 468 17.3776 382.75 41.9076 354.63C41.9076 354.63 93.5376 362.91 124.908 386.69C133.438 393.17 133.688 384.05 145.908 378.97C162.388 372.14 191.778 367.34 208.478 367.27C232.888 367.16 245.938 398.12 261.578 383.43C302.998 344.58 335.378 352.66 335.738 353.31Z" fill="#B46078"/> <path d="M352.348 461L340.897 448.3C336.608 470.679 326.227 491.441 310.897 508.3C307.536 502.157 302.766 496.9 296.978 492.96C292.748 511.859 282.717 528.963 268.288 541.88C270.314 536.951 271.264 531.646 271.073 526.32C270.881 520.994 269.553 515.77 267.177 511C264.642 518.888 260.47 526.152 254.933 532.317C249.396 538.481 242.62 543.406 235.048 546.77C237.428 543.423 238.918 539.526 239.378 535.445C239.838 531.364 239.253 527.233 237.677 523.44C226.017 543.23 192.497 543.83 180.147 524.44C179.277 528.35 180.257 542.75 184.257 543.09C167.457 545.67 151.727 529.33 140.167 516.87C140.837 523.87 142.578 536.46 147.848 541.1C129.948 540.19 114.627 522.98 106.847 506.84C85.1675 508.19 63.5175 493.34 56.9775 472.63C57.4295 474.377 57.4181 476.212 56.9447 477.953C56.4712 479.694 55.5519 481.282 54.2775 482.56C41.3375 476 32.7975 461.71 28.1875 444.67C44.7475 456.74 64.2375 465 83.5075 472.46C96.5875 477.46 109.837 482.29 123.627 484.8C137.007 487.23 150.677 487.47 164.277 487.71C202.007 488.36 241.278 488.71 275.418 472.49C285.198 467.84 295.508 459.89 295.168 449.06C294.777 436.68 281.238 429.62 269.688 425.19C294.288 421.54 314.467 402.46 325.688 380.27C329.883 371.837 333.198 362.993 335.577 353.88L338.888 356.46C348.997 391.91 351.608 425.08 352.348 461Z" fill="#96426E"/> <path d="M256.37 560.11L264.09 541.77C266.203 536.691 266.995 531.158 266.39 525.69C259.691 537.589 249.331 547.009 236.85 552.55L221.63 559.2L231.41 545.78C233.59 542.709 234.837 539.073 235 535.31C228.36 541.18 219.29 544.6 209.26 544.78C201.535 545.01 193.904 543.036 187.26 539.09C188.34 544.58 188.41 549.46 184.15 551.42L182.27 552.29L180.39 551.42C166.6 545.06 155.78 538.5 146.7 530.91C148.24 537.21 149.98 539.47 150.87 540.25L160.58 548.78L147.67 548.12C128.54 547.12 112.67 529.22 104.17 513.12H104.12C85.5398 513.12 67.6298 502.69 57.9398 486.99L57.4798 487.47L55.1698 489.72L52.2898 488.26C37.9998 481 27.6998 464.56 23.3098 441.92C16.8798 408.79 24.1898 368.67 39.9698 350.59C40.7666 349.739 41.8625 349.231 43.0266 349.172C44.1908 349.113 45.3323 349.508 46.211 350.274C47.0897 351.04 47.6368 352.117 47.7373 353.278C47.8378 354.439 47.4838 355.594 46.7498 356.5C32.5998 372.73 26.1798 409.5 32.1398 440.21C35.5898 457.95 42.8198 471.21 52.6898 478.06C52.8757 477.214 52.8552 476.336 52.6298 475.5L61.2698 473C67.1598 491.64 87.0498 505.29 106.57 504.07L109.57 503.88L110.88 506.61C118.7 522.82 129.45 532.66 138.96 536.84C137.243 531.025 136.147 525.045 135.69 519L134.42 505.76L143.47 515.51C152.47 525.2 163.36 533.04 178.3 540.51C177.95 538.87 177.52 537.13 177.21 535.89C175.91 530.72 175.21 527.67 175.75 525.2L178.08 514.56L183.94 523.74C188.79 531.34 197.94 535.83 208.43 535.83H209.09C219.89 535.63 229.09 530.83 233.8 522.83L238.31 515.17L241.81 523.33C243.794 528.005 244.485 533.127 243.81 538.16C252.805 531.409 259.479 522.03 262.91 511.32L266.24 500.76L271.24 510.65C274.118 516.417 275.617 522.774 275.62 529.22C283.879 518.792 289.673 506.633 292.57 493.65L294 487.17L299.49 490.9C304.107 494.035 308.149 497.942 311.44 502.45C324.089 487.041 332.708 468.728 336.52 449.16L338.21 440.27L348.68 451.86C350.84 414.27 345.31 383.58 331.51 355.95C331.165 355.419 330.937 354.821 330.84 354.195C330.742 353.569 330.778 352.93 330.945 352.319C331.111 351.709 331.405 351.14 331.806 350.65C332.207 350.16 332.707 349.761 333.274 349.478C333.84 349.195 334.46 349.034 335.092 349.007C335.725 348.98 336.356 349.086 336.945 349.319C337.533 349.553 338.066 349.908 338.508 350.361C338.95 350.814 339.291 351.356 339.51 351.95C355.34 383.65 360.84 418.95 356.82 463.1L355.89 473.34L343.36 459.47C338.105 479.413 328.088 497.782 314.17 513L309.91 517.66L306.91 512.12C304.963 508.553 302.477 505.308 299.54 502.5C294.365 519.62 284.578 534.984 271.25 546.91L256.37 560.11Z" fill="#213346"/> <path d="M158.077 455.14C155.39 455.135 152.814 454.065 150.913 452.164C149.013 450.264 147.943 447.688 147.938 445V406.25C147.945 403.563 149.016 400.988 150.916 399.089C152.816 397.189 155.391 396.118 158.077 396.11H228.997C231.683 396.12 234.255 397.192 236.152 399.092C238.05 400.992 239.12 403.565 239.128 406.25V445C239.122 447.686 238.054 450.26 236.155 452.161C234.257 454.061 231.683 455.132 228.997 455.14" fill="#F9CDB7"/> <path d="M240.849 410.47V422.47C240.061 420.66 238.763 419.119 237.113 418.035C235.463 416.952 233.533 416.373 231.559 416.37H160.609C157.923 416.375 155.348 417.444 153.448 419.342C151.548 421.24 150.477 423.814 150.469 426.5V453.24C149.919 451.978 149.633 450.616 149.629 449.24V410.47C149.637 407.786 150.707 405.214 152.605 403.316C154.503 401.418 157.075 400.348 159.759 400.34H230.759C233.436 400.358 235.998 401.433 237.887 403.33C239.777 405.227 240.841 407.793 240.849 410.47Z" fill="#E2A78D"/> <path d="M193.13 394.93C200.45 394.93 207.6 394.93 214.5 395.04L224.66 395.16H227.14H228.37H228.71H229.16L230.05 395.22C232.397 395.486 234.646 396.309 236.61 397.62C238.478 398.863 240.036 400.518 241.163 402.458C242.29 404.398 242.956 406.572 243.11 408.81V409.62V410.3V411.41L243.05 413.62C243.05 415.07 242.97 416.51 242.92 417.92C242.74 423.56 242.54 428.82 242.31 433.61C242.08 438.4 241.83 442.75 241.56 446.56C241.56 447.04 241.5 447.56 241.46 447.97C241.46 448.2 241.46 448.42 241.46 448.65C241.46 448.88 241.41 449.2 241.38 449.46C241.257 450.519 240.999 451.557 240.61 452.55C239.927 454.243 238.867 455.758 237.51 456.98C235.736 458.619 233.434 459.57 231.02 459.66C230.415 459.677 229.812 459.586 229.24 459.39C228.85 459.24 228.66 459.08 228.66 458.9C228.66 458.72 228.85 458.55 229.18 458.36L230.59 457.68C232.2 456.908 233.595 455.751 234.65 454.31C235.325 453.345 235.798 452.253 236.04 451.1C236.159 450.467 236.203 449.823 236.17 449.18V448.65C236.17 448.42 236.17 448.2 236.12 447.97C236.12 447.51 236.05 447.04 236.02 446.56C235.75 442.75 235.5 438.41 235.28 433.61C235.06 428.81 234.84 423.56 234.66 417.92C234.66 416.51 234.57 415.07 234.53 413.62L234.47 411.41V410.3V410.02V409.86V409.54C234.359 408.689 234.056 407.875 233.585 407.158C233.114 406.441 232.487 405.84 231.75 405.4C231.007 404.958 230.172 404.695 229.31 404.63H228.55H227.32H224.84L214.68 404.75C207.78 404.82 200.63 404.85 193.31 404.85C185.99 404.85 178.84 404.85 171.94 404.75L161.77 404.63H159.3H158.07H157.31C156.448 404.695 155.613 404.958 154.87 405.4C154.133 405.84 153.506 406.441 153.035 407.158C152.564 407.875 152.261 408.689 152.15 409.54V409.86V410.02V410.3V411.41L152.09 413.62C152.09 415.07 152 416.51 151.96 417.92C151.78 423.56 151.57 428.82 151.34 433.61C151.11 438.4 150.87 442.75 150.6 446.56C150.6 447.04 150.53 447.56 150.5 447.97C150.5 448.2 150.5 448.42 150.5 448.65V449.18C150.467 449.823 150.511 450.467 150.63 451.1C150.868 452.254 151.341 453.347 152.02 454.31C153.07 455.755 154.466 456.913 156.08 457.68L157.48 458.36C157.82 458.55 158 458.73 158 458.9C158 459.07 157.82 459.24 157.43 459.39C156.858 459.586 156.255 459.677 155.65 459.66C153.233 459.57 150.928 458.62 149.15 456.98C147.797 455.757 146.74 454.242 146.06 452.55C145.671 451.557 145.413 450.519 145.29 449.46C145.29 449.2 145.22 448.87 145.21 448.65L145.15 447.97C145.15 447.51 145.09 447.04 145.05 446.56C144.79 442.75 144.54 438.41 144.31 433.61C144.08 428.81 143.88 423.56 143.7 417.92C143.7 416.51 143.61 415.07 143.57 413.62C143.57 412.89 143.52 412.15 143.5 411.41V410.3V409.62V408.81C143.747 405.376 145.189 402.137 147.574 399.655C149.96 397.172 153.139 395.603 156.56 395.22L157.45 395.16H157.9H158.24H159.47H161.94L172.11 395.04C178.66 395 185.81 394.93 193.13 394.93Z" fill="#213346"/> <path d="M54.4788 374.11C54.2494 377.255 54.414 380.416 54.9688 383.52C55.5804 386.729 56.5881 389.849 57.9688 392.81C55.7177 390.269 53.7928 387.458 52.2388 384.44C50.6816 381.295 49.5194 377.97 48.7788 374.54C48.0283 371.021 47.6926 367.427 47.7788 363.83C47.8197 361.997 47.9599 360.168 48.1988 358.35C48.4332 356.428 48.8245 354.528 49.3688 352.67L59.7788 357.23C59.0071 358.397 58.3379 359.628 57.7788 360.91C57.1741 362.282 56.6401 363.683 56.1788 365.11C55.2672 368.034 54.6967 371.054 54.4788 374.11Z" fill="#213346"/> <path d="M69.9965 382.66C70.8065 390.06 74.0965 397.45 78.8565 403.87C72.4111 398.622 67.4617 391.769 64.5065 384C63.0044 379.85 62.2232 375.473 62.1965 371.06C62.1581 366.39 63.0523 361.76 64.8265 357.44L74.8265 362.82C70.9965 367.93 69.2065 375.33 69.9965 382.66Z" fill="#213346"/> <path d="M98.3185 388.23C99.1329 395.411 101.464 402.338 105.158 408.55C99.7525 403.182 95.5437 396.73 92.8085 389.62C89.8911 382.151 88.5924 374.148 88.9985 366.14L100.198 368.06C98.1377 374.572 97.4966 381.449 98.3185 388.23Z" fill="#213346"/> <path d="M282.659 384.17C283.037 387.094 282.932 390.06 282.349 392.95C281.849 395.18 281.089 396.48 280.349 396.43C278.919 396.28 278.349 391.04 277.529 384.78C276.709 378.52 276.169 373.27 277.529 372.78C278.189 372.57 279.239 373.66 280.249 375.7C281.51 378.372 282.325 381.234 282.659 384.17Z" fill="#213346"/> <path d="M305.189 378.25C305.115 382.412 304.305 386.529 302.799 390.41C301.589 393.41 300.309 394.95 299.659 394.72C298.289 394.2 299.909 386.99 300.079 378.11C300.249 369.23 299.129 361.95 300.529 361.51C301.179 361.32 302.379 362.96 303.439 365.98C304.735 369.936 305.327 374.089 305.189 378.25Z" fill="#213346"/> <path d="M328.907 374.58C329.341 377.633 329.509 380.718 329.407 383.8C329.326 386.314 329.031 388.816 328.527 391.28C327.637 395.47 326.407 397.87 325.757 397.73C324.287 397.42 325.667 387.36 323.847 375.31C322.027 363.26 318.147 353.89 319.487 353.2C320.087 352.89 321.897 354.88 323.897 358.66C325.051 360.888 326.025 363.206 326.807 365.59C327.752 368.524 328.454 371.531 328.907 374.58Z" fill="#213346"/> <path d="M63.248 476.89C62.8571 474.027 62.77 471.131 62.988 468.25C63.0962 466.998 63.2698 465.753 63.508 464.52C63.7099 463.446 63.9737 462.384 64.298 461.34C65.488 457.51 66.978 455.46 67.598 455.68C68.218 455.9 68.068 458.31 67.848 461.99C67.848 462.92 67.728 463.92 67.718 464.99C67.708 466.06 67.718 467.21 67.718 468.4C67.7749 470.996 67.9785 473.587 68.328 476.16C68.7233 478.725 69.2507 481.269 69.908 483.78C70.248 484.93 70.538 486.04 70.908 487.05C71.278 488.06 71.568 489.05 71.908 489.9C73.148 493.37 74.048 495.6 73.438 496.03C72.828 496.46 70.898 494.87 68.678 491.52C68.0616 490.615 67.5006 489.673 66.998 488.7C66.4211 487.581 65.9037 486.433 65.448 485.26C64.4231 482.555 63.6857 479.749 63.248 476.89Z" fill="#213346"/> <path d="M95.3181 490.74C94.6855 486.123 94.6654 481.442 95.2581 476.82C95.7281 473.31 96.4281 471.18 97.1281 471.19C97.8281 471.2 98.4081 473.38 98.8681 476.82C99.3281 480.26 99.6681 484.98 100.378 490.02C100.748 492.53 101.198 494.88 101.678 497.02C101.968 498.02 102.178 499.08 102.478 500.02C102.605 500.487 102.735 500.937 102.868 501.37L103.278 502.6C104.278 505.74 105.168 507.76 104.568 508.21C103.968 508.66 102.108 507.29 100.048 504.21L99.2681 502.98C99.0181 502.55 98.7881 502.08 98.5381 501.59C98.0237 500.556 97.5664 499.494 97.1681 498.41C96.309 495.918 95.6896 493.35 95.3181 490.74Z" fill="#213346"/> <path d="M133.568 497.43C129.348 482.43 128.778 469.78 130.138 469.61C131.498 469.44 134.368 481.46 138.488 496.06C142.608 510.66 146.418 522.42 145.088 522.99C143.758 523.56 137.738 512.42 133.568 497.43Z" fill="#213346"/> <path d="M246.457 509.58C248.347 503.27 249.677 497.34 250.857 493.06C252.037 488.78 253.027 486.12 253.737 486.23C254.447 486.34 254.677 489.14 254.417 493.64C254.058 499.547 253.028 505.395 251.347 511.07C250.381 514.233 249.153 517.31 247.677 520.27C247.009 521.56 246.275 522.815 245.477 524.03C245.107 524.6 244.747 525.16 244.377 525.67L243.247 527.1C240.247 530.71 237.787 532.24 237.317 531.79C236.847 531.34 238.257 528.92 240.237 525.11C240.487 524.64 240.737 524.11 241.007 523.62L241.787 521.97C242.347 520.85 242.787 519.58 243.407 518.3C244.447 515.67 245.497 512.73 246.457 509.58Z" fill="#213346"/> <path d="M276.25 498.2C277.59 490.52 278.25 483.3 279.25 478.1C280.25 472.9 281.06 469.73 281.76 469.79C282.46 469.85 282.83 473.14 282.84 478.41C282.91 485.338 282.391 492.26 281.29 499.1C280.627 502.943 279.595 506.714 278.21 510.36C277.064 513.361 275.581 516.223 273.79 518.89C270.65 523.43 267.79 525.35 267.28 524.89C266.77 524.43 268.55 521.69 270.65 517.09C271.863 514.396 272.902 511.627 273.76 508.8C274.804 505.32 275.636 501.781 276.25 498.2Z" fill="#213346"/> <path d="M306.386 479C307.876 472.78 308.906 467 309.866 462.77C310.826 458.54 311.696 455.96 312.406 456.04C313.116 456.12 313.486 458.82 313.406 463.19C313.322 468.916 312.615 474.617 311.296 480.19C310.548 483.304 309.545 486.351 308.296 489.3C307.666 490.65 307.106 491.93 306.426 493.07C306.096 493.65 305.796 494.21 305.426 494.73L304.426 496.2C301.836 499.89 299.556 501.59 299.046 501.2C298.536 500.81 299.656 498.33 301.266 494.48L301.996 493C302.196 492.47 302.406 491.92 302.616 491.34C303.086 490.22 303.466 488.96 303.936 487.67C304.786 485 305.626 482.1 306.386 479Z" fill="#213346"/> <path d="M316.597 469.6C318.207 465.6 319.527 461.81 320.597 458.27C321.097 456.49 321.597 454.81 322.007 453.2C322.417 451.59 322.787 450.1 323.107 448.73C324.367 443.23 325.037 439.73 325.787 439.73C326.537 439.73 327.057 443.37 326.677 449.25C326.577 450.71 326.437 452.32 326.157 454.03C325.877 455.74 325.547 457.56 325.157 459.47C323.247 467.735 319.972 475.623 315.467 482.81C314.397 484.44 313.397 486 312.337 487.37C311.277 488.74 310.287 490.01 309.337 491.11C305.447 495.53 302.447 497.66 301.967 497.2C301.487 496.74 303.437 493.74 306.437 488.96C307.187 487.76 308.007 486.46 308.827 485.02C309.647 483.58 310.517 482.02 311.427 480.44C313.157 477.18 314.997 473.53 316.597 469.6Z" fill="#213346"/> <path d="M36.3788 392.54C37.1288 388.89 39.1088 386.34 40.4488 386.76C41.7888 387.18 42.0688 390.19 41.3788 393.57C40.6888 396.95 39.2388 399.57 37.8288 399.46C36.4188 399.35 35.6288 396.18 36.3788 392.54Z" fill="white"/> <path d="M37.6369 432C36.309 427.157 35.676 422.151 35.7569 417.13C35.8869 413.28 36.5469 410.93 37.2269 410.93C38.6969 410.93 39.6469 420.01 42.5769 430.67C45.5069 441.33 49.2069 449.67 47.9469 450.39C47.3569 450.73 45.5869 449.05 43.5269 445.79C40.9023 441.505 38.918 436.859 37.6369 432Z" fill="white"/> <path d="M125.547 391.49H125.057C119.917 391.31 115.877 388.24 112.637 385.78L112.437 385.63C92.4316 370.505 69.0936 360.393 44.3772 356.14C43.2232 355.916 42.2026 355.249 41.5338 354.283C40.865 353.316 40.6009 352.126 40.7982 350.967C40.9955 349.808 41.6384 348.773 42.5894 348.082C43.5405 347.391 44.7241 347.099 45.8872 347.27C72.034 351.766 96.7231 362.461 117.887 378.46L118.077 378.61C120.547 380.48 123.077 382.41 125.387 382.5C127.697 382.59 130.247 380.89 132.967 379.1L133.737 378.6C149.087 368.55 168.997 363 189.857 363C210.687 363 230.627 368.52 245.987 378.56L246.757 379.06C249.467 380.85 252.057 382.54 254.337 382.46C256.617 382.38 259.177 380.46 261.637 378.57L261.837 378.42C283.001 362.421 307.69 351.726 333.837 347.23C334.426 347.116 335.031 347.12 335.618 347.243C336.205 347.366 336.762 347.606 337.255 347.947C337.748 348.288 338.168 348.724 338.49 349.23C338.812 349.736 339.03 350.301 339.131 350.892C339.231 351.483 339.213 352.089 339.076 352.673C338.939 353.257 338.688 353.807 338.335 354.292C337.983 354.778 337.537 355.187 337.024 355.498C336.51 355.808 335.941 356.013 335.347 356.1C310.631 360.353 287.293 370.465 267.287 385.59L267.087 385.74C263.847 388.2 259.807 391.27 254.667 391.45C249.527 391.63 245.237 388.83 241.817 386.58L241.077 386.09C212.357 367.33 167.367 367.33 138.647 386.09L137.907 386.58C134.597 388.79 130.497 391.49 125.547 391.49Z" fill="#213346"/> <path d="M190.387 345.16C189.795 345.161 189.21 345.046 188.663 344.82C188.117 344.594 187.62 344.263 187.202 343.845C186.784 343.427 186.452 342.93 186.227 342.383C186.001 341.837 185.885 341.251 185.887 340.66V294.07C185.887 292.876 186.361 291.732 187.205 290.888C188.049 290.044 189.193 289.57 190.387 289.57C191.58 289.57 192.725 290.044 193.569 290.888C194.413 291.732 194.887 292.876 194.887 294.07V340.66C194.887 341.251 194.77 341.836 194.544 342.382C194.318 342.928 193.987 343.424 193.569 343.842C193.151 344.26 192.655 344.591 192.109 344.817C191.563 345.043 190.978 345.16 190.387 345.16Z" fill="#213346"/> <path d="M178.067 222.19C179.747 229.61 179.157 239.51 173.947 245.5C167.867 252.5 158.297 251.06 150.027 250.71C139.93 250.265 129.823 251.299 120.027 253.78C112.027 255.83 104.887 260.78 96.7566 262.14C87.8566 263.69 85.7566 258.94 91.6966 252.42C98.6966 244.76 108.697 236.6 118.147 232.17C135.707 223.91 158.057 219.88 177.747 221.85" fill="#E2A78D"/> <path d="M204.25 225.47C202.57 232.89 203.17 242.79 208.38 248.78C214.45 255.78 224.03 254.34 232.3 253.99C242.396 253.545 252.503 254.579 262.3 257.06C270.3 259.11 277.44 264.01 285.57 265.42C294.48 266.97 296.57 262.23 290.63 255.7C283.69 248.04 273.63 239.89 264.19 235.45C246.62 227.19 224.28 223.16 204.58 225.14" fill="#E2A78D"/> <path d="M205.19 214.55C203.51 221.96 204.1 231.86 209.31 237.85C215.38 244.85 224.96 243.42 233.23 243.07C243.326 242.619 253.434 243.653 263.23 246.14C271.23 248.19 278.38 253.08 286.5 254.5C295.41 256.05 297.5 251.3 291.57 244.77C284.62 237.11 274.57 228.96 265.12 224.52C247.55 216.26 225.21 212.24 205.52 214.21" fill="#B46078"/> <path d="M289.599 259.29C288.308 259.281 287.019 259.161 285.749 258.93C280.749 258.06 276.239 256.09 271.889 254.18C268.74 252.693 265.476 251.462 262.129 250.5C252.755 248.117 243.081 247.13 233.419 247.57C232.539 247.57 231.639 247.65 230.739 247.7C222.739 248.14 212.739 248.7 205.909 240.81C199.299 233.21 199.029 221.38 200.799 213.55C201.076 212.571 201.626 211.691 202.387 211.014C203.147 210.337 204.084 209.892 205.089 209.73C226.335 207.878 247.698 211.572 267.089 220.45C276.289 224.78 286.969 232.94 294.959 241.75C300.829 248.22 299.719 252.8 298.539 254.95C297.529 256.7 295.169 259.29 289.599 259.29ZM237.789 238.47C246.753 238.451 255.683 239.563 264.369 241.78C268.186 242.862 271.908 244.253 275.499 245.94C279.499 247.71 283.359 249.38 287.289 250.06C288.208 250.236 289.144 250.309 290.079 250.28C289.573 249.381 288.959 248.548 288.249 247.8C281.009 239.8 271.419 232.45 263.249 228.6C246.3 220.841 227.708 217.349 209.099 218.43C208.399 224.17 209.229 230.87 212.729 234.9C216.729 239.46 223.299 239.1 230.279 238.72L233.069 238.57C234.629 238.51 236.209 238.47 237.789 238.47Z" fill="#213346"/> <path d="M173.31 210.57C174.99 217.99 174.4 227.89 169.19 233.87C163.11 240.87 153.53 239.44 145.26 239.09C135.163 238.64 125.056 239.674 115.26 242.16C107.26 244.21 100.12 249.16 91.9897 250.52C83.0797 252.07 80.9897 247.32 86.9297 240.8C93.8697 233.14 103.93 224.98 113.38 220.55C130.94 212.29 153.28 208.26 172.98 210.23" fill="#B46078"/> <path d="M88.8882 255.31C83.3282 255.31 80.9583 252.72 79.9983 250.97C78.8083 248.82 77.6983 244.25 83.5783 237.77C91.5783 228.96 102.238 220.77 111.438 216.48C130.826 207.592 152.192 203.897 173.438 205.76C174.445 205.917 175.385 206.361 176.146 207.038C176.906 207.716 177.456 208.598 177.728 209.58C179.498 217.4 179.218 229.23 172.608 236.83C165.748 244.71 155.788 244.16 147.778 243.72L145.098 243.59C135.436 243.15 125.762 244.137 116.388 246.52C113.047 247.489 109.787 248.719 106.638 250.2C102.278 252.11 97.7782 254.08 92.7682 254.95C91.4878 255.182 90.1896 255.303 88.8882 255.31ZM88.4182 246.31C89.3499 246.344 90.2824 246.274 91.1982 246.1C95.1282 245.41 98.9482 243.74 102.998 241.97C106.587 240.286 110.305 238.895 114.118 237.81C124.348 235.213 134.904 234.134 145.448 234.61C146.368 234.61 147.298 234.7 148.248 234.75C155.248 235.13 161.818 235.5 165.788 230.93C169.298 226.93 170.118 220.21 169.418 214.46C150.809 213.385 132.219 216.877 115.268 224.63C107.078 228.48 97.4882 235.84 90.2682 243.83C89.5523 244.574 88.931 245.404 88.4182 246.3V246.31Z" fill="#213346"/> <path d="M183.317 443.66C176.874 443.659 170.441 443.12 164.087 442.05C163.623 441.98 163.178 441.817 162.778 441.572C162.378 441.326 162.032 441.003 161.759 440.621C161.487 440.238 161.294 439.805 161.192 439.347C161.091 438.889 161.082 438.415 161.168 437.954C161.253 437.492 161.43 437.053 161.688 436.661C161.947 436.269 162.282 435.934 162.672 435.674C163.063 435.414 163.502 435.236 163.964 435.149C164.425 435.063 164.899 435.07 165.357 435.17C165.657 435.22 195.997 440.62 210.167 430.5C211.973 429.278 213.499 427.687 214.645 425.832C215.791 423.978 216.531 421.901 216.817 419.74C216.88 419.28 217.033 418.837 217.269 418.438C217.504 418.038 217.817 417.688 218.188 417.41C218.56 417.132 218.983 416.931 219.433 416.818C219.883 416.705 220.351 416.683 220.81 416.753C221.269 416.822 221.709 416.982 222.106 417.224C222.502 417.465 222.846 417.783 223.119 418.159C223.391 418.534 223.586 418.96 223.692 419.412C223.798 419.864 223.814 420.332 223.737 420.79C223.309 423.88 222.242 426.846 220.605 429.501C218.968 432.156 216.796 434.441 214.227 436.21C205.897 442.15 193.627 443.66 183.317 443.66Z" fill="#213346"/> <path d="M353.478 315.47C352.805 315.468 352.153 315.241 351.625 314.824C351.097 314.406 350.725 313.824 350.568 313.17C349.343 308.645 348.95 303.935 349.408 299.27C349.904 294.201 352.224 289.485 355.938 286C356.532 285.47 357.313 285.197 358.108 285.242C358.903 285.287 359.648 285.646 360.178 286.24C360.709 286.834 360.981 287.615 360.936 288.41C360.891 289.205 360.532 289.95 359.938 290.48C357.317 293.003 355.695 296.387 355.368 300.01C354.995 303.962 355.334 307.948 356.368 311.78C356.552 312.553 356.421 313.367 356.005 314.044C355.588 314.721 354.921 315.205 354.148 315.39C353.929 315.444 353.704 315.471 353.478 315.47Z" fill="#213346"/> <path d="M33.6492 315.47C33.4134 315.473 33.1782 315.446 32.9492 315.39C32.5657 315.299 32.2038 315.134 31.8842 314.904C31.5646 314.673 31.2935 314.382 31.0864 314.047C30.8793 313.712 30.7403 313.339 30.6773 312.95C30.6143 312.561 30.6285 312.163 30.7192 311.78C31.7536 307.948 32.0923 303.962 31.7192 300.01C31.3963 296.388 29.7771 293.004 27.1592 290.48C26.5651 289.95 26.2061 289.205 26.1611 288.41C26.116 287.615 26.3888 286.834 26.9192 286.24C27.4496 285.646 28.1943 285.287 28.9895 285.242C29.7846 285.197 30.5651 285.47 31.1592 286C34.873 289.485 37.1937 294.201 37.6892 299.27C38.1425 303.935 37.7495 308.644 36.5292 313.17C36.3735 313.819 36.0057 314.398 35.484 314.814C34.9624 315.231 34.3167 315.462 33.6492 315.47Z" fill="#213346"/> <path d="M257.31 169.69C259.992 170.775 262.564 172.114 264.99 173.69C266.967 174.976 268.809 176.456 270.49 178.11C273.34 180.98 274.49 183.34 273.79 184.11C273.09 184.88 270.74 184.11 267.37 182.54L261.56 179.86C259.38 178.86 257 177.86 254.47 176.86C251.94 175.86 249.47 174.98 247.23 174.18L241.16 172.18C237.67 170.98 235.39 169.98 235.43 168.9C235.47 167.82 237.91 166.9 241.95 166.82C244.297 166.776 246.642 166.97 248.95 167.4C251.804 167.894 254.603 168.661 257.31 169.69Z" fill="white"/> <path d="M37.5573 196.45C38.4476 194.222 39.8853 192.255 41.7373 190.73C43.2573 189.57 44.6573 189.26 45.5173 189.86C46.3773 190.46 46.5873 191.86 46.3673 193.54C46.0363 195.571 45.4447 197.55 44.6073 199.43C43.8441 201.342 42.8356 203.147 41.6073 204.8C40.5473 206.14 39.4273 206.95 38.3773 206.75C37.3273 206.55 36.5873 205.33 36.3773 203.44C36.1786 201.048 36.5843 198.644 37.5573 196.45Z" fill="white"/> <path d="M59.4096 173.58C62.6695 172.06 66.0396 172.37 66.9396 174.29C67.8396 176.21 65.9396 179 62.6496 180.52C59.3596 182.04 56.0195 181.72 55.1195 179.81C54.2195 177.9 56.1496 175.1 59.4096 173.58Z" fill="white"/> <path d="M74.6197 157.15C76.9897 152.1 80.0497 148.33 82.0697 149C84.0897 149.67 84.1397 154.88 81.5597 160.39C78.9797 165.9 74.9097 169.2 73.1297 168.09C71.3497 166.98 72.2597 162.2 74.6197 157.15Z" fill="white"/> <path d="M57.8867 159.15V81.9999C57.8867 66.4299 64.8167 52.3599 75.4767 46.2499L114.177 24.0799C160.507 -2.45013 212.877 -2.45013 259.177 24.0799L297.887 46.2499C308.567 52.3299 315.487 66.3999 315.487 81.9999V159.18" fill="#FEFDF5"/> <path d="M312.457 80.79V100.18C263.237 51.84 197.357 25.56 134.767 40.25C117.587 44.25 99.8967 52.09 89.4167 68.58C76.3467 89.15 78.8767 121.15 94.9467 138.58C106.577 151.12 121.997 155 137.887 158H54.8867V80.79C54.8867 65.21 61.8067 51.14 72.4767 45.03L111.177 22.86C157.497 -3.66003 209.877 -3.66003 256.177 22.86L294.877 45C305.547 51.14 312.457 65.21 312.457 80.79Z" fill="#F4EAE1"/> <path d="M315.299 163.91C314.106 163.91 312.961 163.436 312.117 162.592C311.273 161.748 310.799 160.603 310.799 159.41V82.2299C310.799 68.2299 304.799 55.7099 295.479 50.3799L256.769 28.2199C234.409 15.4099 210.769 8.90994 186.499 8.90994C162.229 8.90994 138.589 15.4099 116.229 28.2199L77.5192 50.3799C68.2192 55.7099 62.1992 68.2199 62.1992 82.2299V159.41C62.1992 160.603 61.7251 161.748 60.8812 162.592C60.0373 163.436 58.8927 163.91 57.6992 163.91C56.5057 163.91 55.3612 163.436 54.5172 162.592C53.6733 161.748 53.1992 160.603 53.1992 159.41V82.2299C53.1992 65.0499 60.9892 49.4799 73.0492 42.5699L111.749 20.4099C159.259 -6.80006 213.749 -6.80006 261.249 20.4099L299.999 42.5699C311.999 49.4799 319.799 65.0499 319.799 82.2299V159.41C319.801 160.001 319.685 160.587 319.459 161.134C319.234 161.68 318.902 162.177 318.484 162.595C318.066 163.013 317.569 163.344 317.023 163.57C316.476 163.796 315.891 163.911 315.299 163.91Z" fill="#213346"/> <path d="M358.907 168C356.874 176.543 354.248 184.933 351.047 193.11C349.397 197.5 335.277 234.91 336.987 236.52C302.987 204.59 250.687 184.15 191.987 184.15C133.287 184.15 81.1269 204.56 47.1369 236.44C34.8669 198.24 4.62687 140.15 40.5669 107.44C50.8369 98.09 63.9169 94.16 76.6669 90.94C149.357 72.58 225.287 70.13 298.237 87.06C310.237 89.85 322.237 93.21 333.107 99.8C343.977 106.39 353.567 116.58 358.107 129.8C362.427 142.3 361.727 155.35 358.907 168Z" fill="#F9637C"/> <path d="M61.8787 102.48C68.9987 96 77.4887 92.12 86.2687 89.28C83.5421 89.9467 80.8154 90.6134 78.0887 91.28C65.3387 94.5 52.2587 98.43 41.9887 107.78C6.04875 140.49 36.2887 198.58 48.5587 236.78C53.9082 231.778 59.5876 227.141 65.5587 222.9C52.1387 185 28.5387 132.83 61.8787 102.48Z" fill="#BA4264"/> <path d="M104.58 105C104.449 105.012 104.316 104.999 104.19 104.96C104.064 104.921 103.947 104.858 103.845 104.774C103.64 104.604 103.51 104.36 103.485 104.095C103.46 103.83 103.541 103.565 103.711 103.36C103.88 103.155 104.125 103.025 104.39 103C110.64 101.74 117.27 100.61 124.1 99.6399C124.365 99.6028 124.634 99.6725 124.848 99.8338C125.062 99.9951 125.203 100.235 125.24 100.5C125.277 100.765 125.207 101.034 125.046 101.248C124.885 101.462 124.645 101.603 124.38 101.64C117.59 102.64 110.99 103.73 104.78 104.98C104.715 104.996 104.647 105.003 104.58 105Z" fill="#B13A59"/> <path d="M57.1895 120.46C57.0222 120.46 56.8576 120.417 56.7108 120.337C56.5641 120.257 56.4398 120.141 56.3495 120C56.2066 119.777 56.158 119.507 56.2142 119.248C56.2705 118.989 56.427 118.763 56.6495 118.62C57.0695 118.35 67.2795 111.89 92.3495 105.7C92.4788 105.663 92.6143 105.652 92.7479 105.668C92.8815 105.684 93.0104 105.727 93.127 105.795C93.2435 105.862 93.3453 105.952 93.4262 106.059C93.5071 106.167 93.5655 106.29 93.5978 106.42C93.6301 106.551 93.6357 106.687 93.6143 106.82C93.5929 106.953 93.5449 107.08 93.4731 107.194C93.4014 107.308 93.3074 107.406 93.1968 107.482C93.0862 107.559 92.9613 107.613 92.8295 107.64C68.0795 113.75 57.8295 120.24 57.7295 120.3C57.5685 120.404 57.3811 120.459 57.1895 120.46Z" fill="#B13A59"/> <path d="M220.927 96.3199H220.837C214.007 95.7099 207.357 95.3199 201.047 95.0999C200.782 95.0999 200.527 94.9945 200.34 94.807C200.152 94.6194 200.047 94.3651 200.047 94.0999C200.047 93.8346 200.152 93.5803 200.34 93.3927C200.527 93.2052 200.782 93.0999 201.047 93.0999C207.387 93.2999 214.047 93.7199 220.947 94.3299C221.212 94.3418 221.462 94.4586 221.641 94.6546C221.82 94.8505 221.914 95.1096 221.902 95.3749C221.89 95.6401 221.773 95.8897 221.577 96.0688C221.381 96.2479 221.122 96.3418 220.857 96.3299L220.927 96.3199Z" fill="#B13A59"/> <path d="M151.997 99.3099C151.732 99.3311 151.469 99.2461 151.267 99.0736C151.064 98.9011 150.938 98.6551 150.917 98.3899C150.896 98.1247 150.981 97.8619 151.154 97.6594C151.326 97.4568 151.572 97.3311 151.837 97.3099L157.187 96.3999C167.487 94.6199 178.187 92.7799 188.897 92.9499C189.162 92.9499 189.417 93.0553 189.604 93.2428C189.792 93.4303 189.897 93.6847 189.897 93.9499C189.897 94.2151 189.792 94.4695 189.604 94.657C189.417 94.8446 189.162 94.9499 188.897 94.9499C178.317 94.7899 167.767 96.6099 157.557 98.3699L152.187 99.2799L151.997 99.3099Z" fill="#B13A59"/> <path d="M326.328 116.8C326.216 116.799 326.104 116.778 325.998 116.74C319.448 114.39 312.998 112.27 306.928 110.45C306.802 110.412 306.685 110.35 306.582 110.266C306.48 110.183 306.396 110.08 306.333 109.964C306.271 109.848 306.233 109.721 306.22 109.59C306.207 109.458 306.22 109.326 306.258 109.2C306.296 109.074 306.359 108.956 306.442 108.854C306.525 108.752 306.628 108.667 306.744 108.605C306.86 108.543 306.988 108.504 307.119 108.491C307.25 108.478 307.382 108.491 307.508 108.53C313.638 110.36 320.088 112.53 326.668 114.86C326.889 114.94 327.075 115.096 327.193 115.299C327.311 115.503 327.353 115.741 327.312 115.973C327.272 116.204 327.151 116.414 326.971 116.565C326.791 116.717 326.563 116.8 326.328 116.8Z" fill="#B13A59"/> <path d="M295.339 107.21C295.259 107.22 295.178 107.22 295.099 107.21C270.439 101 258.749 102 258.639 102C258.373 102.025 258.109 101.944 257.904 101.774C257.698 101.605 257.569 101.36 257.544 101.095C257.518 100.83 257.6 100.565 257.769 100.36C257.939 100.155 258.183 100.025 258.449 100C258.929 100 270.539 98.93 295.579 105.24C295.71 105.256 295.837 105.297 295.952 105.362C296.067 105.427 296.169 105.514 296.251 105.618C296.332 105.722 296.393 105.841 296.428 105.968C296.464 106.096 296.474 106.229 296.459 106.36C296.443 106.491 296.401 106.618 296.337 106.734C296.272 106.849 296.185 106.95 296.081 107.032C295.977 107.114 295.858 107.174 295.73 107.21C295.603 107.246 295.47 107.256 295.339 107.24V107.21Z" fill="#B13A59"/> <path d="M105.146 117.87C104.881 117.895 104.617 117.814 104.411 117.644C104.206 117.475 104.077 117.23 104.051 116.965C104.026 116.7 104.107 116.435 104.277 116.23C104.447 116.025 104.691 115.895 104.956 115.87C111.196 114.61 117.836 113.48 124.666 112.51C124.932 112.473 125.201 112.543 125.414 112.704C125.628 112.865 125.769 113.105 125.806 113.37C125.844 113.635 125.774 113.904 125.612 114.118C125.451 114.332 125.212 114.473 124.946 114.51C118.156 115.51 111.556 116.6 105.346 117.85C105.281 117.867 105.214 117.873 105.146 117.87Z" fill="#B13A59"/> <path d="M57.7591 133.34C57.5435 133.339 57.3338 133.269 57.1614 133.14C56.9889 133.01 56.8629 132.829 56.8022 132.622C56.7415 132.415 56.7492 132.194 56.8244 131.992C56.8995 131.789 57.038 131.617 57.2191 131.5C57.6391 131.23 67.8491 124.77 92.9191 118.58C93.1723 118.528 93.4359 118.575 93.6546 118.713C93.8733 118.851 94.0302 119.068 94.0923 119.319C94.1544 119.57 94.1169 119.835 93.9876 120.059C93.8584 120.283 93.6475 120.448 93.3991 120.52C68.7091 126.62 58.3991 133.12 58.2991 133.18C58.1382 133.284 57.9507 133.34 57.7591 133.34Z" fill="#B13A59"/> <path d="M221.497 109.2H221.407C214.577 108.59 207.917 108.2 201.617 107.98C201.352 107.98 201.098 107.875 200.91 107.687C200.723 107.5 200.617 107.245 200.617 106.98C200.617 106.715 200.723 106.46 200.91 106.273C201.098 106.085 201.352 105.98 201.617 105.98C207.947 106.18 214.617 106.6 221.507 107.21C221.772 107.221 222.023 107.336 222.203 107.531C222.383 107.726 222.478 107.985 222.467 108.25C222.457 108.515 222.341 108.765 222.146 108.945C221.951 109.125 221.692 109.221 221.427 109.21L221.497 109.2Z" fill="#B13A59"/> <path d="M152.568 112.24C152.332 112.242 152.102 112.161 151.921 112.01C151.739 111.86 151.616 111.65 151.574 111.417C151.533 111.185 151.574 110.946 151.692 110.741C151.81 110.537 151.996 110.38 152.218 110.3C152.678 110.13 163.798 106.14 189.428 105.84C189.693 105.84 189.947 105.945 190.135 106.133C190.322 106.32 190.428 106.575 190.428 106.84C190.428 107.105 190.322 107.359 190.135 107.547C189.947 107.734 189.693 107.84 189.428 107.84C164.198 108.14 152.988 112.14 152.878 112.18C152.778 112.216 152.673 112.236 152.568 112.24Z" fill="#B13A59"/> <path d="M326.898 129.68C326.782 129.68 326.667 129.66 326.558 129.62C320.018 127.27 313.608 125.15 307.498 123.33C307.243 123.253 307.03 123.078 306.904 122.844C306.778 122.609 306.751 122.335 306.828 122.08C306.905 121.825 307.08 121.612 307.314 121.486C307.549 121.36 307.823 121.333 308.078 121.41C314.208 123.24 320.658 125.41 327.238 127.74C327.459 127.82 327.645 127.976 327.762 128.179C327.88 128.383 327.922 128.621 327.882 128.853C327.841 129.084 327.72 129.294 327.54 129.445C327.361 129.597 327.133 129.68 326.898 129.68Z" fill="#B13A59"/> <path d="M295.907 120.09C295.827 120.1 295.746 120.1 295.667 120.09C270.947 113.86 259.317 114.89 259.207 114.9C259.075 114.913 258.943 114.9 258.816 114.862C258.69 114.824 258.572 114.761 258.47 114.678C258.368 114.594 258.283 114.491 258.221 114.375C258.159 114.259 258.12 114.131 258.107 114C258.093 113.869 258.106 113.736 258.144 113.61C258.183 113.483 258.245 113.366 258.329 113.264C258.498 113.057 258.741 112.926 259.007 112.9C259.497 112.9 271.097 111.83 296.147 118.14C296.412 118.172 296.653 118.308 296.819 118.518C296.984 118.728 297.058 118.995 297.027 119.26C296.995 119.525 296.859 119.767 296.649 119.932C296.439 120.097 296.172 120.172 295.907 120.14V120.09Z" fill="#B13A59"/> <path d="M103.997 132.4C103.763 132.405 103.535 132.327 103.352 132.181C103.169 132.035 103.044 131.829 102.997 131.6C102.971 131.471 102.97 131.339 102.995 131.21C103.02 131.081 103.07 130.958 103.142 130.848C103.215 130.739 103.308 130.644 103.417 130.571C103.526 130.497 103.648 130.446 103.777 130.42C110.027 129.17 116.657 128.03 123.487 127.06C123.618 127.04 123.751 127.046 123.879 127.079C124.008 127.111 124.128 127.168 124.234 127.247C124.34 127.326 124.43 127.425 124.497 127.539C124.564 127.653 124.608 127.779 124.627 127.91C124.664 128.172 124.595 128.439 124.436 128.651C124.276 128.863 124.039 129.003 123.777 129.04C116.977 130.04 110.377 131.13 104.167 132.38C104.111 132.394 104.054 132.401 103.997 132.4Z" fill="#B13A59"/> <path d="M56.6192 147.87C56.4518 147.87 56.2873 147.827 56.1405 147.747C55.9938 147.667 55.8695 147.551 55.7792 147.41C55.6363 147.187 55.5877 146.917 55.6439 146.658C55.7002 146.399 55.8567 146.173 56.0792 146.03C56.4992 145.76 66.7192 139.3 91.7892 133.11C92.0464 133.046 92.3183 133.088 92.5452 133.225C92.7721 133.361 92.9353 133.583 92.9992 133.84C93.0304 133.968 93.0361 134.101 93.0157 134.231C92.9954 134.361 92.9496 134.486 92.8808 134.599C92.812 134.711 92.7217 134.809 92.615 134.886C92.5083 134.964 92.3874 135.019 92.2592 135.05C67.5192 141.16 57.2592 147.65 57.1592 147.71C56.9982 147.814 56.8108 147.869 56.6192 147.87Z" fill="#B13A59"/> <path d="M220.358 123.73H220.268C213.438 123.11 206.788 122.73 200.488 122.5C200.223 122.5 199.969 122.395 199.781 122.207C199.594 122.02 199.488 121.765 199.488 121.5C199.488 121.235 199.594 120.98 199.781 120.793C199.969 120.605 200.223 120.5 200.488 120.5C206.828 120.7 213.488 121.12 220.388 121.73C220.653 121.742 220.903 121.859 221.082 122.055C221.261 122.251 221.355 122.51 221.343 122.775C221.331 123.04 221.215 123.29 221.019 123.469C220.823 123.648 220.563 123.742 220.298 123.73H220.358Z" fill="#B13A59"/> <path d="M151.427 126.77C151.191 126.772 150.962 126.691 150.78 126.54C150.598 126.39 150.476 126.18 150.434 125.947C150.392 125.715 150.434 125.476 150.551 125.271C150.669 125.067 150.855 124.91 151.077 124.83C151.547 124.66 162.657 120.67 188.297 120.37C188.562 120.37 188.816 120.475 189.004 120.663C189.192 120.85 189.297 121.105 189.297 121.37C189.297 121.635 189.192 121.889 189.004 122.077C188.816 122.265 188.562 122.37 188.297 122.37C163.007 122.67 151.867 126.67 151.757 126.71C151.651 126.747 151.539 126.767 151.427 126.77Z" fill="#B13A59"/> <path d="M325.77 144.22C325.654 144.22 325.539 144.2 325.43 144.16C318.89 141.8 312.48 139.68 306.37 137.86C306.244 137.822 306.126 137.76 306.024 137.677C305.922 137.593 305.837 137.49 305.775 137.374C305.713 137.258 305.674 137.131 305.661 137C305.648 136.868 305.661 136.736 305.7 136.61C305.776 136.357 305.949 136.145 306.182 136.019C306.414 135.894 306.687 135.865 306.94 135.94C313.08 137.78 319.53 139.94 326.1 142.27C326.327 142.345 326.52 142.498 326.644 142.703C326.768 142.908 326.814 143.151 326.774 143.387C326.734 143.623 326.611 143.837 326.426 143.99C326.242 144.143 326.009 144.224 325.77 144.22Z" fill="#B13A59"/> <path d="M294.768 134.62H294.528C269.878 128.41 258.178 129.42 258.068 129.43C257.803 129.455 257.539 129.374 257.333 129.204C257.128 129.035 256.998 128.79 256.973 128.525C256.948 128.26 257.029 127.995 257.199 127.79C257.369 127.585 257.613 127.455 257.878 127.43C258.358 127.43 269.958 126.36 295.018 132.67C295.283 132.703 295.525 132.84 295.689 133.051C295.853 133.262 295.926 133.53 295.893 133.795C295.86 134.06 295.723 134.301 295.512 134.465C295.301 134.63 295.033 134.703 294.768 134.67V134.62Z" fill="#B13A59"/> <path d="M134.28 55.9399C137.36 55.6174 140.473 55.9584 143.41 56.9399C145.68 57.7999 146.93 58.9399 146.79 59.9399C146.65 60.9399 145.19 61.7499 143.05 62.2999C140.385 62.9089 137.677 63.3101 134.95 63.4999C132.23 63.79 129.492 63.8669 126.76 63.7299C124.56 63.5699 123 63.0799 122.67 62.0699C122.34 61.0599 123.37 59.7099 125.46 58.4799C128.183 57.0089 131.192 56.1425 134.28 55.9399Z" fill="white"/> <path d="M189.157 54C203.237 54.87 214.387 57.94 214.157 60C213.927 62.06 202.547 62.48 188.717 61.63C174.887 60.78 163.627 59 163.637 56.91C163.647 54.82 175.087 53.15 189.157 54Z" fill="white"/> <path d="M44.9966 244.59L42.8166 237.82C40.9066 231.82 38.5366 225.39 36.0366 218.53C22.2166 180.73 5.03659 133.68 37.5066 104.11C48.6666 93.9999 62.4266 89.8899 75.5666 86.5699C150.917 67.5699 228.267 66.1999 299.257 82.6799C311.327 85.4799 324.067 88.9999 335.447 95.9999C348.327 103.83 357.887 115.32 362.367 128.35C366.447 140.21 366.757 153.52 363.297 169.02C361.237 177.767 358.564 186.358 355.297 194.73L355.157 195.13C345.157 221.71 341.487 233.75 341.387 235.98C341.362 235.468 341.236 234.965 341.016 234.502C340.797 234.039 340.487 233.623 340.107 233.28L333.947 239.84C299.297 207.29 247.577 188.65 191.997 188.65C136.417 188.65 84.8266 207.26 50.2066 239.73L44.9966 244.59ZM197.367 80.2399C157.032 80.3142 116.861 85.3726 77.7666 95.2999C65.7666 98.2999 53.1866 102.03 43.5966 110.77C15.5966 136.27 31.5966 180.17 44.5166 215.45C46.1666 219.97 47.7666 224.33 49.2166 228.52C85.3366 197.38 136.927 179.65 192.017 179.65C246.737 179.65 298.017 197.14 334.017 227.87C335.017 224.62 336.387 220.34 338.197 215.14C340.467 208.58 343.307 200.77 346.637 191.92L346.787 191.53C349.93 183.543 352.513 175.346 354.517 167C357.597 153.17 357.387 141.46 353.857 131.22C350.057 120.17 341.857 110.37 330.767 103.62C321.047 97.7099 310.327 94.4699 297.227 91.4299C264.474 83.9142 230.971 80.1599 197.367 80.2399Z" fill="#213346"/> <path d="M316.297 283C316.024 279.507 315.968 276 316.128 272.5C316.328 269.73 316.848 267.87 317.888 267.62C318.928 267.37 320.258 268.84 321.458 271.53C324.285 278.578 324.79 286.345 322.898 293.7C322.058 296.52 320.898 298.15 319.898 298.04C318.898 297.93 318.077 296.15 317.517 293.43C316.892 289.982 316.484 286.499 316.297 283Z" fill="white"/> <path d="M310.407 253C309.92 251.915 309.668 250.739 309.667 249.55C309.628 249.016 309.696 248.48 309.868 247.974C310.04 247.467 310.311 247 310.667 246.6C311.113 246.221 311.662 245.986 312.244 245.925C312.826 245.865 313.413 245.981 313.927 246.26C315.477 247.051 316.704 248.357 317.397 249.953C318.091 251.549 318.207 253.337 317.727 255.01C317.577 255.576 317.26 256.083 316.818 256.466C316.375 256.85 315.828 257.091 315.247 257.16C314.709 257.15 314.179 257.033 313.686 256.817C313.194 256.6 312.749 256.289 312.377 255.9C311.526 255.081 310.855 254.093 310.407 253Z" fill="white"/> <path d="M300.23 237.15C299.23 235.88 299.78 233.8 301.45 232.5C303.12 231.2 305.27 231.17 306.27 232.44C307.27 233.71 306.71 235.8 305.04 237.1C303.37 238.4 301.22 238.42 300.23 237.15Z" fill="white"/> <path d="M258.696 168C263.28 168.826 267.662 170.524 271.606 173C274.606 175 276.016 176.89 275.526 177.8C275.036 178.71 272.776 178.61 269.526 178C266.276 177.39 261.976 176.39 257.216 175.45C252.456 174.51 248.106 173.84 244.856 173.18C241.606 172.52 239.486 171.81 239.386 170.74C239.286 169.67 241.296 168.5 244.816 167.74C249.417 166.936 254.129 167.024 258.696 168Z" fill="white"/> <path d="M296.629 182.34C297.264 182.592 297.842 182.97 298.326 183.451C298.811 183.932 299.193 184.507 299.449 185.14C299.648 185.635 299.71 186.174 299.631 186.701C299.552 187.228 299.334 187.725 298.999 188.14C298.33 188.905 297.42 189.42 296.419 189.6C295.5 189.823 294.534 189.75 293.659 189.391C292.785 189.031 292.046 188.405 291.549 187.6C290.972 186.76 290.707 185.745 290.799 184.73C290.86 184.194 291.064 183.685 291.389 183.256C291.715 182.827 292.15 182.493 292.649 182.29C293.281 182.028 293.96 181.898 294.644 181.906C295.329 181.915 296.004 182.062 296.629 182.34Z" fill="white"/> <path d="M320.057 194.45C322.145 195.756 323.915 197.512 325.237 199.59C326.237 201.28 326.427 202.74 325.727 203.53C325.027 204.32 323.597 204.33 321.847 203.81C317.638 202.327 313.843 199.862 310.777 196.62C309.587 195.23 309.007 193.92 309.457 192.95C309.907 191.98 311.307 191.58 313.257 191.8C315.692 192.167 318.015 193.072 320.057 194.45Z" fill="white"/> <path d="M133.379 323.05C146.032 323.05 156.289 312.793 156.289 300.14C156.289 287.487 146.032 277.23 133.379 277.23C120.726 277.23 110.469 287.487 110.469 300.14C110.469 312.793 120.726 323.05 133.379 323.05Z" fill="#213346"/> <path d="M143.598 295.81C150.612 295.81 156.298 290.124 156.298 283.11C156.298 276.096 150.612 270.41 143.598 270.41C136.584 270.41 130.898 276.096 130.898 283.11C130.898 290.124 136.584 295.81 143.598 295.81Z" fill="#F9CDB7"/> <path d="M124.178 313.97C127.094 313.97 129.458 311.606 129.458 308.69C129.458 305.774 127.094 303.41 124.178 303.41C121.262 303.41 118.898 305.774 118.898 308.69C118.898 311.606 121.262 313.97 124.178 313.97Z" fill="white"/> <path d="M239.379 328.05C252.032 328.05 262.289 317.793 262.289 305.14C262.289 292.487 252.032 282.23 239.379 282.23C226.726 282.23 216.469 292.487 216.469 305.14C216.469 317.793 226.726 328.05 239.379 328.05Z" fill="#213346"/> <path d="M249.598 300.81C256.612 300.81 262.298 295.124 262.298 288.11C262.298 281.096 256.612 275.41 249.598 275.41C242.584 275.41 236.898 281.096 236.898 288.11C236.898 295.124 242.584 300.81 249.598 300.81Z" fill="#F9CDB7"/> <path d="M230.178 318.97C233.094 318.97 235.458 316.606 235.458 313.69C235.458 310.774 233.094 308.41 230.178 308.41C227.262 308.41 224.898 310.774 224.898 313.69C224.898 316.606 227.262 318.97 230.178 318.97Z" fill="white"/> </g> <defs> <clipPath id="clip0"> <rect width="391.31" height="560.11" fill="white"/> </clipPath> </defs> </svg> 